{
DisplayStrings = (
"HHHHHHH\012OOOOOOOOO\012OOAOOBOOCOODOOEOOFOOGOOHOOIOOJOOKOOLOOMOONOOPOOQOOROOSOOTOOUOOVOOWOOXOOYOOZOO\012HHAHHBHHCHHDHHEHHFHHGHHIHHJHHKHHLHHMHHNHHOHHPHHQHHRHHSHHTHHUHHVHHWHHXHHYHHZHH",
x,
"X/Zhe-cy K",
"Iq/Ef-cy hOhO",
"/Ef-cy",
"BP/Be-cy LFE",
"A/De-cy p",
"p/De-cy A",
"HH/Zhe-cy HXK",
"/De-cy A",
"SH?H!HO",
"\U00BFO",
"\U00A1",
"?",
"\U00BF",
",!\U00A1.?\U00BF",
":",
";,",
"/quotedblbase ,",
/quotedblleft,
/quotesinglbase,
/quoteleft,
"/quotereversed ,",
/quotedblbase,
/quotedblright,
/quotereversed,
/quoteright,
//,
_n,
"\U00B7.",
/backslash//,
"H*H",
"(H)",
_,
"-/endash/emdash",
"[]H",
/x.001,
"dyjd/g.alt q",
"/a.alt2 g",
"odHo/a.alt2 o/g.alt yjoqono",
lkaen,
"K/k.001/x.001 xX",
"H/t.alt Ht",
"/A.alt VH",
R,
"R/R.alt oyal",
QO,
Q/Q.alt,
"Qo/Q.alt oR/R.alt o",
"(H)H{H}k",
/guilsinglleft/guilsinglright,
"/guilsinglleft H",
"\U00AB\U00BB/guilsinglleft/guilsinglright",
"\"",
"H#H",
"\"'/quotedblright",
"#",
"\U00AB",
"\U00BB",
/guilsinglleft,
/guilsinglright,
"'",
"H\"H'H",
0,
2,
"/two.001 2",
/two.001/two.001,
HbpqHbp,
AH,
DBH,
A,
CH,
D,
HBPEFHILT,
FlS,
G,
I,
J,
K,
L,
M,
N,
O,
P,
S,
T,
U,
V,
W,
X,
Y,
Z,
b,
bd,
nfnnnrn,
hnmr,
l,
mnur,
CGS,
"HbpqHbp default and",
Q,
Hhghph,
tf,
nan,
cx,
ec,
nnjnnfin,
"minimum\012plodin",
on,
opn,
r,
sceo,
u,
v,
w,
y,
z,
e,
d,
nogean,
"ncnonen\012conehead\012nnhnnn",
ABCDEFGHIJKLMNOPQRSTUVWXYZabcdefghijklmnopqrstuvwxyz,
"/Be-cy",
"/Zhe-cy",
"*H",
"H/backslash H",
"\U00B7",
"*",
/backslash,
",",
"!",
"\U00A59HhIifi9",
"minimum\012hodgepodge\012unannnimous\012plodding",
o,
"hnno\012nononon\012nnnnnn\012oooooo\012nnonnonno\012oonoonoon",
"lhnmirn\012mirror\012mirror",
pblbqod,
"nan ad",
an,
qd,
c,
gnm,
hn,
i012i,
m,
"minimum\012minimum\012minimum\012lllddd",
pb,
"abcdeghilmnopqru\012sc",
g,
s,
f,
j,
"t ",
"/f.alt f",
"/a.alt2 d",
"j/g.alt d",
/g.alt,
/k.001,
/t.alt,
"padua\012minimum\012Hasslefree \012Hark a flagrant\012bibliographic\012biobabble\012lombardi",
0O,
02O,

glyphs = (
{
color = 5;
glyphname = A;
lastChange = "2015-09-26 19:44:04 +0000";
layers = (
{
anchors = (
{
name = bottom;
position = "{500, 0}";
},
{
name = ogonek;
position = "{899, 10}";
},
{
name = top;
position = "{501, 490}";
}
);
layerId = "B29C398E-974A-40D0-A0A0-00935056D4B4";
name = "Light Extended";
paths = (
{
closed = 1;
nodes = (
"166 13 LINE",
"501 502 LINE",
"498 502 LINE",
"833 13 LINE",
"862 13 LINE",
"518 510 LINE SMOOTH",
"480 510 LINE",
"137 13 LINE"
);
},
{
closed = 1;
nodes = (
"321 0 LINE",
"321 23 LINE",
"-18 23 LINE",
"-18 0 LINE"
);
},
{
closed = 1;
nodes = (
"718 199 LINE",
"701 222 LINE",
"295 222 LINE",
"277 199 LINE"
);
},
{
closed = 1;
nodes = (
"1016 0 LINE",
"1016 23 LINE",
"678 23 LINE",
"678 0 LINE"
);
},
{
closed = 1;
nodes = (
"687 497 LINE",
"687 520 LINE",
"311 520 LINE",
"311 497 LINE"
);
}
);
width = 999;
},
{
anchors = (
{
name = bottom;
position = "{347, 0}";
},
{
name = ogonek;
position = "{647, 10}";
},
{
name = top;
position = "{348, 520}";
}
);
background = {
paths = (
{
closed = 1;
nodes = (
"702 0 LINE",
"702 73 LINE",
"434 73 LINE",
"434 0 LINE"
);
},
{
closed = 1;
nodes = (
"259 0 LINE",
"259 73 LINE",
"-10 73 LINE",
"-10 0 LINE"
);
},
{
closed = 1;
nodes = (
"478 214 LINE",
"212 214 LINE",
"194 148 LINE",
"495 148 LINE"
);
},
{
closed = 1;
nodes = (
"498 417 LINE",
"498 490 LINE",
"192 490 LINE",
"192 417 LINE"
);
},
{
closed = 1;
nodes = (
"40 13 LINE",
"149 13 LINE",
"373 440 LINE",
"317 440 LINE",
"541 13 LINE",
"653 13 LINE",
"404 449 LINE SMOOTH",
"287 449 LINE"
);
}
);
};
layerId = "FA480B27-EBBD-4830-9868-98507D39050C";
name = Bold;
paths = (
{
closed = 1;
nodes = (
"149 13 LINE",
"363 470 LINE",
"327 470 LINE",
"541 13 LINE",
"653 13 LINE",
"417 470 LINE SMOOTH",
"274 470 LINE",
"40 13 LINE"
);
},
{
closed = 1;
nodes = (
"259 0 LINE",
"259 84 LINE",
"0 84 LINE",
"0 0 LINE"
);
},
{
closed = 1;
nodes = (
"495 177 LINE",
"478 252 LINE",
"212 252 LINE",
"194 177 LINE"
);
},
{
closed = 1;
nodes = (
"692 0 LINE",
"692 84 LINE",
"434 84 LINE",
"434 0 LINE"
);
},
{
closed = 1;
nodes = (
"500 436 LINE",
"500 520 LINE",
"190 520 LINE",
"190 436 LINE"
);
}
);
width = 692;
},
{
anchors = (
{
name = bottom;
position = "{354, 0}";
},
{
name = ogonek;
position = "{593, 13}";
},
{
name = top;
position = "{355, 490}";
}
);
layerId = "543F9737-16F7-428D-9F96-2EBD9FC8D3B6";
name = Light;
paths = (
{
closed = 1;
nodes = (
"145 13 LINE",
"355 502 LINE",
"355 502 LINE",
"565 13 LINE",
"593 13 LINE",
"375 510 LINE SMOOTH",
"335 510 LINE",
"120 13 LINE"
);
},
{
closed = 1;
nodes = (
"269 0 LINE",
"269 23 LINE",
"0 23 LINE",
"0 0 LINE"
);
},
{
closed = 1;
nodes = (
"505 198 LINE",
"488 221 LINE",
"222 221 LINE",
"204 198 LINE"
);
},
{
closed = 1;
nodes = (
"712 0 LINE",
"712 23 LINE",
"444 23 LINE",
"444 0 LINE"
);
},
{
closed = 1;
nodes = (
"508 497 LINE",
"508 520 LINE",
"202 520 LINE",
"202 497 LINE"
);
}
);
width = 712;
}
);
unicode = 0041;
},
{
color = 6;
glyphname = A.alt;
lastChange = "2015-09-26 20:51:32 +0000";
layers = (
{
anchors = (
{
name = bottom;
position = "{497, 0}";
},
{
name = ogonek;
position = "{894, 10}";
},
{
name = top;
position = "{497, 490}";
}
);
background = {
paths = (
{
closed = 1;
nodes = (
"115 0 LINE",
"358 347 LINE",
"604 0 LINE",
"613 18 LINE",
"358 376 LINE",
"106 18 LINE"
);
},
{
closed = 1;
nodes = (
"504 151 LINE",
"210 151 LINE",
"197 133 LINE",
"517 133 LINE"
);
},
{
closed = 1;
nodes = (
"231 -1 LINE",
"231 18 LINE",
"-18 18 LINE",
"-18 -1 LINE"
);
},
{
closed = 1;
nodes = (
"488 18 LINE",
"488 -1 LINE",
"734 -1 LINE",
"735 18 LINE"
);
}
);
};
layerId = "B29C398E-974A-40D0-A0A0-00935056D4B4";
name = "Light Extended";
paths = (
{
closed = 1;
nodes = (
"166 13 LINE",
"497 482 LINE",
"827 13 LINE",
"856 13 LINE",
"497 522 LINE",
"137 13 LINE"
);
},
{
closed = 1;
nodes = (
"1010 0 LINE",
"1010 23 LINE",
"673 23 LINE",
"673 0 LINE"
);
},
{
closed = 1;
nodes = (
"319 0 LINE",
"319 23 LINE",
"-18 23 LINE",
"-18 0 LINE"
);
},
{
closed = 1;
nodes = (
"703 206 LINE",
"291 206 LINE",
"272 183 LINE",
"718 183 LINE"
);
}
);
width = 993;
},
{
anchors = (
{
name = bottom;
position = "{339, 0}";
},
{
name = ogonek;
position = "{646, 10}";
},
{
name = top;
position = "{339, 495}";
}
);
layerId = "FA480B27-EBBD-4830-9868-98507D39050C";
name = Bold;
paths = (
{
closed = 1;
nodes = (
"312 495 LINE",
"31 13 LINE",
"136 13 LINE",
"336 373 LINE",
"536 13 LINE",
"646 13 LINE",
"366 495 LINE"
);
},
{
closed = 1;
nodes = (
"695 0 LINE",
"695 84 LINE",
"428 84 LINE",
"428 0 LINE"
);
},
{
closed = 1;
nodes = (
"249 0 LINE",
"249 84 LINE",
"-18 84 LINE",
"-18 0 LINE"
);
},
{
closed = 1;
nodes = (
"468 216 LINE",
"206 216 LINE",
"189 150 LINE",
"485 150 LINE"
);
}
);
width = 678;
},
{
anchors = (
{
name = bottom;
position = "{339, 0}";
},
{
name = ogonek;
position = "{646, 10}";
},
{
name = top;
position = "{339, 490}";
}
);
layerId = "543F9737-16F7-428D-9F96-2EBD9FC8D3B6";
name = Light;
paths = (
{
closed = 1;
nodes = (
"127 13 LINE",
"338 472 LINE",
"549 13 LINE",
"576 13 LINE",
"339 522 LINE",
"102 13 LINE"
);
},
{
closed = 1;
nodes = (
"695 0 LINE",
"695 23 LINE",
"428 23 LINE",
"428 0 LINE"
);
},
{
closed = 1;
nodes = (
"249 0 LINE",
"249 23 LINE",
"-18 23 LINE",
"-18 0 LINE"
);
},
{
closed = 1;
nodes = (
"468 205 LINE",
"206 205 LINE",
"189 182 LINE",
"485 182 LINE"
);
}
);
width = 678;
}
);
},
{
glyphname = AE;
lastChange = "2015-08-27 00:35:44 +0000";
layers = (
{
anchors = (
{
name = bottom;
position = "{657, 0}";
},
{
name = top;
position = "{847, 490}";
}
);
layerId = "B29C398E-974A-40D0-A0A0-00935056D4B4";
name = "Light Extended";
paths = (
{
closed = 1;
nodes = (
"324 0 LINE",
"324 23 LINE",
"-25 23 LINE",
"-25 0 LINE"
);
},
{
closed = 1;
nodes = (
"744 202 LINE",
"334 202 LINE",
"310 179 LINE",
"744 179 LINE"
);
},
{
closed = 1;
nodes = (
"127 13 LINE",
"160 13 LINE",
"598 472 LINE",
"588 472 LINE",
"828 13 LINE",
"856 13 LINE",
"611 480 LINE SMOOTH",
"572 480 LINE"
);
},
{
closed = 1;
nodes = (
"1264 0 LINE",
"1264 186 LINE",
"1240 186 LINE",
"1240 23 LINE",
"648 23 LINE",
"648 0 LINE"
);
},
{
closed = 1;
nodes = (
"985 251 LINE",
"985 274 LINE",
"712 274 LINE",
"712 251 LINE"
);
},
{
closed = 1;
nodes = (
"998 137 LINE",
"998 377 LINE",
"973 377 LINE",
"973 137 LINE"
);
},
{
closed = 1;
nodes = (
"1239 467 LINE",
"1239 307 LINE",
"1264 307 LINE",
"1264 490 LINE",
"388 490 LINE",
"388 467 LINE"
);
}
);
width = 1313;
},
{
layerId = "FA480B27-EBBD-4830-9868-98507D39050C";
name = Bold;
width = 420;
},
{
layerId = "543F9737-16F7-428D-9F96-2EBD9FC8D3B6";
name = Light;
width = 420;
}
);
rightMetricsKey = "=E";
unicode = 00C6;
},
{
color = 5;
glyphname = B;
lastChange = "2015-09-26 20:51:53 +0000";
layers = (
{
anchors = (
{
name = bottom;
position = "{462, 0}";
},
{
name = top;
position = "{462, 520}";
}
);
background = {
paths = (
{
closed = 1;
nodes = (
"263 14 LINE",
"263 478 LINE",
"238 478 LINE",
"238 14 LINE"
);
},
{
closed = 1;
nodes = (
"664 247 LINE",
"776 247 OFFCURVE",
"828 302 OFFCURVE",
"828 365 CURVE SMOOTH",
"828 443 OFFCURVE",
"769 490 OFFCURVE",
"666 490 CURVE SMOOTH",
"56 490 LINE",
"56 467 LINE",
"666 467 LINE SMOOTH",
"755 467 OFFCURVE",
"803 427 OFFCURVE",
"803 365 CURVE SMOOTH",
"803 305 OFFCURVE",
"746 263 OFFCURVE",
"656 263 CURVE SMOOTH",
"254 263 LINE",
"254 240 LINE",
"656 239 LINE SMOOTH",
"756 239 OFFCURVE",
"837 202 OFFCURVE",
"837 128 CURVE SMOOTH",
"837 57 OFFCURVE",
"778 23 OFFCURVE",
"675 23 CURVE SMOOTH",
"56 23 LINE",
"56 0 LINE",
"673 0 LINE SMOOTH",
"805 0 OFFCURVE",
"862 48 OFFCURVE",
"862 128 CURVE SMOOTH",
"862 205 OFFCURVE",
"794 255 OFFCURVE",
"664 255 CURVE"
);
}
);
};
layerId = "B29C398E-974A-40D0-A0A0-00935056D4B4";
name = "Light Extended";
paths = (
{
closed = 1;
nodes = (
"673 0 LINE SMOOTH",
"790 0 OFFCURVE",
"862 45 OFFCURVE",
"862 136 CURVE SMOOTH",
"862 231 OFFCURVE",
"781 270 OFFCURVE",
"664 270 CURVE",
"664 262 LINE",
"775 262 OFFCURVE",
"828 315 OFFCURVE",
"828 391 CURVE SMOOTH",
"828 469 OFFCURVE",
"768 520 OFFCURVE",
"667 520 CURVE SMOOTH",
"56 520 LINE",
"56 497 LINE",
"664 497 LINE SMOOTH",
"743 497 OFFCURVE",
"803 465 OFFCURVE",
"803 391 CURVE SMOOTH",
"803 316 OFFCURVE",
"745 278 OFFCURVE",
"661 278 CURVE SMOOTH",
"254 278 LINE",
"254 255 LINE",
"656 254 LINE SMOOTH",
"755 254 OFFCURVE",
"837 222 OFFCURVE",
"837 137 CURVE SMOOTH",
"837 55 OFFCURVE",
"769 23 OFFCURVE",
"667 23 CURVE SMOOTH",
"56 23 LINE",
"56 0 LINE"
);
},
{
closed = 1;
nodes = (
"263 14 LINE",
"263 508 LINE",
"238 508 LINE",
"238 14 LINE"
);
}
);
width = 923;
},
{
anchors = (
{
name = bottom;
position = "{282, 0}";
},
{
name = top;
position = "{282, 520}";
}
);
layerId = "FA480B27-EBBD-4830-9868-98507D39050C";
name = Bold;
paths = (
{
closed = 1;
nodes = (
"376 0 LINE SMOOTH",
"509 0 OFFCURVE",
"579 53 OFFCURVE",
"579 145 CURVE SMOOTH",
"579 262 OFFCURVE",
"460 284 OFFCURVE",
"364 284 CURVE",
"365 244 LINE",
"440 244 OFFCURVE",
"539 284 OFFCURVE",
"539 381 CURVE SMOOTH",
"539 462 OFFCURVE",
"479 520 OFFCURVE",
"361 520 CURVE SMOOTH",
"34 520 LINE",
"34 435 LINE",
"356 435 LINE SMOOTH",
"394 435 OFFCURVE",
"435 419 OFFCURVE",
"435 368 CURVE SMOOTH",
"435 318 OFFCURVE",
"396 299 OFFCURVE",
"336 299 CURVE SMOOTH",
"193 299 LINE",
"193 221 LINE",
"381 221 LINE SMOOTH",
"438 221 OFFCURVE",
"475 203 OFFCURVE",
"475 153 CURVE SMOOTH",
"475 102 OFFCURVE",
"434 85 OFFCURVE",
"376 85 CURVE SMOOTH",
"34 85 LINE",
"34 0 LINE"
);
},
{
closed = 1;
nodes = (
"226 46 LINE",
"226 472 LINE",
"127 472 LINE",
"127 46 LINE"
);
}
);
width = 599;
},
{
anchors = (
{
name = bottom;
position = "{282, 0}";
},
{
name = top;
position = "{282, 490}";
}
);
background = {
paths = (
{
closed = 1;
nodes = (
"548 242 LINE",
"548 265 LINE",
"152 265 LINE",
"152 242 LINE"
);
},
{
closed = 1;
nodes = (
"261 0 LINE",
"261 23 LINE",
"20 23 LINE",
"20 0 LINE"
);
},
{
closed = 1;
nodes = (
"157 13 LINE",
"157 509 LINE",
"133 509 LINE",
"133 13 LINE"
);
},
{
closed = 1;
nodes = (
"261 497 LINE",
"261 520 LINE",
"20 520 LINE",
"20 497 LINE"
);
},
{
closed = 1;
nodes = (
"679 0 LINE",
"679 23 LINE",
"438 23 LINE",
"438 0 LINE"
);
},
{
closed = 1;
nodes = (
"567 13 LINE",
"567 509 LINE",
"542 509 LINE",
"542 13 LINE"
);
},
{
closed = 1;
nodes = (
"679 497 LINE",
"679 520 LINE",
"438 520 LINE",
"438 497 LINE"
);
}
);
};
layerId = "543F9737-16F7-428D-9F96-2EBD9FC8D3B6";
name = Light;
paths = (
{
closed = 1;
nodes = (
"328 0 LINE SMOOTH",
"445 0 OFFCURVE",
"517 45 OFFCURVE",
"517 136 CURVE SMOOTH",
"517 231 OFFCURVE",
"436 270 OFFCURVE",
"319 270 CURVE",
"319 262 LINE",
"430 262 OFFCURVE",
"483 315 OFFCURVE",
"483 391 CURVE SMOOTH",
"483 469 OFFCURVE",
"423 520 OFFCURVE",
"322 520 CURVE SMOOTH",
"30 520 LINE",
"30 497 LINE",
"319 497 LINE SMOOTH",
"398 497 OFFCURVE",
"458 465 OFFCURVE",
"458 391 CURVE SMOOTH",
"458 316 OFFCURVE",
"400 278 OFFCURVE",
"316 278 CURVE SMOOTH",
"159 278 LINE",
"159 255 LINE",
"311 254 LINE SMOOTH",
"410 253 OFFCURVE",
"492 222 OFFCURVE",
"492 137 CURVE SMOOTH",
"492 55 OFFCURVE",
"424 23 OFFCURVE",
"322 23 CURVE SMOOTH",
"30 23 LINE",
"30 0 LINE"
);
},
{
closed = 1;
nodes = (
"168 14 LINE",
"168 508 LINE",
"143 508 LINE",
"143 14 LINE"
);
}
);
width = 542;
}
);
leftMetricsKey = "=H";
unicode = 0042;
},
{
color = 5;
glyphname = C;
lastChange = "2015-09-26 20:52:12 +0000";
layers = (
{
anchors = (
{
name = bottom;
position = "{429, -10}";
},
{
name = top;
position = "{429, 530}";
}
);
background = {
paths = (
{
closed = 1;
nodes = (
"797 173 LINE",
"759 82 OFFCURVE",
"640 -20 OFFCURVE",
"426 -20 CURVE",
"234 -20 OFFCURVE",
"70 79 OFFCURVE",
"70 249 CURVE",
"70 419 OFFCURVE",
"241 517 OFFCURVE",
"434 517 CURVE",
"605 517 OFFCURVE",
"719 445 OFFCURVE",
"789 348 CURVE",
"769 348 LINE",
"769 491 LINE",
"792 491 LINE",
"792 311 LINE",
"690 447 OFFCURVE",
"561 494 OFFCURVE",
"434 494 CURVE",
"249 494 OFFCURVE",
"95 401 OFFCURVE",
"95 249 CURVE",
"95 97 OFFCURVE",
"244 3 OFFCURVE",
"426 3 CURVE",
"624 3 OFFCURVE",
"743 103 OFFCURVE",
"774 182 CURVE"
);
}
);
};
layerId = "B29C398E-974A-40D0-A0A0-00935056D4B4";
name = "Light Extended";
paths = (
{
closed = 1;
nodes = (
"640 -11 OFFCURVE",
"747 85 OFFCURVE",
"794 168 CURVE",
"774 181 LINE",
"734 107 OFFCURVE",
"624 12 OFFCURVE",
"426 12 CURVE",
"244 12 OFFCURVE",
"95 106 OFFCURVE",
"95 260 CURVE",
"95 414 OFFCURVE",
"249 507 OFFCURVE",
"434 507 CURVE",
"573 507 OFFCURVE",
"688 450 OFFCURVE",
"789 315 CURVE",
"792 316 LINE",
"792 520 LINE",
"769 520 LINE",
"769 351 LINE",
"786 351 LINE",
"716 450 OFFCURVE",
"598 530 OFFCURVE",
"434 530 CURVE",
"241 530 OFFCURVE",
"70 432 OFFCURVE",
"70 260 CURVE",
"70 88 OFFCURVE",
"234 -11 OFFCURVE",
"426 -11 CURVE"
);
}
);
width = 858;
},
{
associatedMasterId = "B29C398E-974A-40D0-A0A0-00935056D4B4";
background = {
paths = (
{
closed = 1;
nodes = (
"748 293 LINE",
"771 300 LINE",
"771 301 OFFCURVE",
"739 354 OFFCURVE",
"673 408 CURVE SMOOTH",
"608 462 OFFCURVE",
"508 516 OFFCURVE",
"376 516 CURVE SMOOTH",
"251 516 OFFCURVE",
"157 479 OFFCURVE",
"94 425 CURVE SMOOTH",
"31 370 OFFCURVE",
"0 298 OFFCURVE",
"0 227 CURVE SMOOTH",
"0 155 OFFCURVE",
"31 84 OFFCURVE",
"94 31 CURVE SMOOTH",
"156 -22 OFFCURVE",
"250 -57 OFFCURVE",
"375 -57 CURVE SMOOTH",
"534 -57 OFFCURVE",
"634 -2 OFFCURVE",
"694 53 CURVE SMOOTH",
"748 102 OFFCURVE",
"770 158 OFFCURVE",
"773 166 CURVE",
"748 174 LINE",
"746 166 OFFCURVE",
"727 119 OFFCURVE",
"675 71 CURVE SMOOTH",
"620 21 OFFCURVE",
"527 -31 OFFCURVE",
"375 -31 CURVE SMOOTH",
"255 -31 OFFCURVE",
"167 2 OFFCURVE",
"111 50 CURVE SMOOTH",
"53 99 OFFCURVE",
"26 162 OFFCURVE",
"26 227 CURVE SMOOTH",
"26 291 OFFCURVE",
"53 356 OFFCURVE",
"111 406 CURVE SMOOTH",
"168 456 OFFCURVE",
"255 490 OFFCURVE",
"376 490 CURVE SMOOTH",
"501 490 OFFCURVE",
"594 439 OFFCURVE",
"657 388 CURVE SMOOTH",
"708 346 OFFCURVE",
"739 309 OFFCURVE",
"773 247 CURVE",
"773 490 LINE",
"748 490 LINE"
);
}
);
};
layerId = "4CE72ED2-500C-4544-8864-BE0CB7E60B06";
name = Background;
paths = (
{
closed = 1;
nodes = (
"748 302 LINE",
"771 300 LINE",
"685 449 OFFCURVE",
"545 516 OFFCURVE",
"376 516 CURVE SMOOTH",
"251 516 OFFCURVE",
"157 479 OFFCURVE",
"94 425 CURVE SMOOTH",
"31 370 OFFCURVE",
"0 298 OFFCURVE",
"0 227 CURVE SMOOTH",
"0 155 OFFCURVE",
"31 84 OFFCURVE",
"94 31 CURVE SMOOTH",
"156 -22 OFFCURVE",
"250 -57 OFFCURVE",
"375 -57 CURVE SMOOTH",
"534 -57 OFFCURVE",
"634 -2 OFFCURVE",
"694 53 CURVE SMOOTH",
"748 102 OFFCURVE",
"770 158 OFFCURVE",
"773 166 CURVE",
"748 174 LINE",
"746 166 OFFCURVE",
"727 119 OFFCURVE",
"675 71 CURVE SMOOTH",
"620 21 OFFCURVE",
"527 -31 OFFCURVE",
"375 -31 CURVE SMOOTH",
"255 -31 OFFCURVE",
"167 2 OFFCURVE",
"111 50 CURVE SMOOTH",
"53 99 OFFCURVE",
"26 162 OFFCURVE",
"26 227 CURVE SMOOTH",
"26 291 OFFCURVE",
"53 356 OFFCURVE",
"111 406 CURVE SMOOTH",
"168 456 OFFCURVE",
"255 490 OFFCURVE",
"376 490 CURVE SMOOTH",
"541 490 OFFCURVE",
"687 419 OFFCURVE",
"773 247 CURVE",
"773 490 LINE",
"748 490 LINE"
);
}
);
width = 829;
},
{
anchors = (
{
name = bottom;
position = "{294, -10}";
},
{
name = top;
position = "{294, 530}";
}
);
background = {
paths = (
{
closed = 1;
nodes = (
"457 -11 OFFCURVE",
"563 94 OFFCURVE",
"563 261 CURVE SMOOTH",
"563 287 LINE",
"239 287 LINE",
"239 204 LINE",
"455 204 LINE",
"448 131 OFFCURVE",
"393 72 OFFCURVE",
"298 72 CURVE SMOOTH",
"200 72 OFFCURVE",
"124 137 OFFCURVE",
"124 260 CURVE SMOOTH",
"124 384 OFFCURVE",
"200 448 OFFCURVE",
"303 448 CURVE SMOOTH",
"391 448 OFFCURVE",
"448 398 OFFCURVE",
"477 347 CURVE",
"545 351 LINE",
"545 520 LINE",
"451 520 LINE",
"451 422 LINE",
"498 408 LINE",
"461 477 OFFCURVE",
"386 530 OFFCURVE",
"277 530 CURVE SMOOTH",
"149 530 OFFCURVE",
"15 438 OFFCURVE",
"15 260 CURVE SMOOTH",
"15 91 OFFCURVE",
"138 -11 OFFCURVE",
"294 -11 CURVE SMOOTH"
);
}
);
};
layerId = "FA480B27-EBBD-4830-9868-98507D39050C";
name = Bold;
paths = (
{
closed = 1;
nodes = (
"420 -10 OFFCURVE",
"496 49 OFFCURVE",
"542 116 CURVE",
"477 169 LINE",
"446 119 OFFCURVE",
"382 73 OFFCURVE",
"307 73 CURVE SMOOTH",
"203 73 OFFCURVE",
"129 149 OFFCURVE",
"129 258 CURVE SMOOTH",
"129 373 OFFCURVE",
"205 448 OFFCURVE",
"304 448 CURVE SMOOTH",
"381 448 OFFCURVE",
"442 398 OFFCURVE",
"471 337 CURVE",
"539 341 LINE",
"539 520 LINE",
"445 520 LINE",
"445 412 LINE",
"492 398 LINE",
"455 477 OFFCURVE",
"382 530 OFFCURVE",
"278 530 CURVE SMOOTH",
"145 530 OFFCURVE",
"20 424 OFFCURVE",
"20 258 CURVE SMOOTH",
"20 98 OFFCURVE",
"151 -10 OFFCURVE",
"303 -10 CURVE SMOOTH"
);
}
);
width = 562;
},
{
anchors = (
{
name = bottom;
position = "{299, -10}";
},
{
name = top;
position = "{299, 510}";
}
);
background = {
paths = (
{
closed = 1;
nodes = (
"442 -10 OFFCURVE",
"557 89 OFFCURVE",
"557 257 CURVE",
"557 424 OFFCURVE",
"442 523 OFFCURVE",
"304 523 CURVE",
"165 523 OFFCURVE",
"51 424 OFFCURVE",
"51 257 CURVE",
"51 89 OFFCURVE",
"165 -10 OFFCURVE",
"304 -10 CURVE"
);
},
{
closed = 1;
nodes = (
"175 14 OFFCURVE",
"75 107 OFFCURVE",
"75 257 CURVE",
"75 406 OFFCURVE",
"175 499 OFFCURVE",
"304 499 CURVE",
"432 499 OFFCURVE",
"533 406 OFFCURVE",
"533 257 CURVE",
"533 107 OFFCURVE",
"432 14 OFFCURVE",
"304 14 CURVE"
);
}
);
};
layerId = "543F9737-16F7-428D-9F96-2EBD9FC8D3B6";
name = Light;
paths = (
{
closed = 1;
nodes = (
"415 -11 OFFCURVE",
"477 50 OFFCURVE",
"511 97 CURVE",
"494 111 LINE",
"461 64 OFFCURVE",
"399 12 OFFCURVE",
"301 12 CURVE SMOOTH",
"174 12 OFFCURVE",
"75 111 OFFCURVE",
"75 260 CURVE SMOOTH",
"75 409 OFFCURVE",
"179 507 OFFCURVE",
"306 507 CURVE SMOOTH",
"403 507 OFFCURVE",
"471 453 OFFCURVE",
"504 354 CURVE",
"512 355 LINE",
"512 520 LINE",
"489 520 LINE",
"489 412 LINE",
"506 391 LINE",
"484 465 OFFCURVE",
"413 530 OFFCURVE",
"306 530 CURVE SMOOTH",
"171 530 OFFCURVE",
"50 427 OFFCURVE",
"50 260 CURVE SMOOTH",
"50 93 OFFCURVE",
"164 -11 OFFCURVE",
"301 -11 CURVE SMOOTH"
);
}
);
width = 562;
}
);
leftMetricsKey = "=O";
rightMetricsKey = "=O";
unicode = 0043;
},
{
color = 5;
glyphname = D;
lastChange = "2015-09-26 20:52:31 +0000";
layers = (
{
anchors = (
{
name = bottom;
position = "{480, 0}";
},
{
name = center;
position = "{480, 245}";
},
{
name = top;
position = "{480, 520}";
}
);
layerId = "B29C398E-974A-40D0-A0A0-00935056D4B4";
name = "Light Extended";
paths = (
{
closed = 1;
nodes = (
"545 0 LINE",
"750 0 OFFCURVE",
"889 85 OFFCURVE",
"889 260 CURVE",
"889 435 OFFCURVE",
"750 520 OFFCURVE",
"545 520 CURVE",
"56 520 LINE",
"56 497 LINE",
"545 497 LINE",
"739 497 OFFCURVE",
"864 418 OFFCURVE",
"864 260 CURVE",
"864 102 OFFCURVE",
"739 23 OFFCURVE",
"545 23 CURVE",
"56 23 LINE",
"56 0 LINE"
);
},
{
closed = 1;
nodes = (
"263 13 LINE",
"263 507 LINE",
"238 507 LINE",
"238 13 LINE"
);
}
);
width = 959;
},
{
anchors = (
{
name = bottom;
position = "{300, 0}";
},
{
name = center;
position = "{300, 260}";
},
{
name = top;
position = "{300, 520}";
}
);
background = {
paths = (
{
closed = 1;
nodes = (
"104 133 LINE",
"212 133 LINE",
"212 490 LINE",
"104 490 LINE"
);
},
{
closed = 1;
nodes = (
"34 490 LINE",
"34 431 LINE",
"206 431 LINE",
"206 490 LINE"
);
},
{
closed = 1;
nodes = (
"116 400 LINE",
"116 441 LINE",
"66 440 LINE"
);
}
);
};
layerId = "FA480B27-EBBD-4830-9868-98507D39050C";
name = Bold;
paths = (
{
closed = 1;
nodes = (
"324 0 LINE",
"473 0 OFFCURVE",
"616 78 OFFCURVE",
"616 260 CURVE",
"616 442 OFFCURVE",
"473 520 OFFCURVE",
"324 520 CURVE",
"34 520 LINE",
"34 435 LINE",
"300 435 LINE",
"393 435 OFFCURVE",
"507 402 OFFCURVE",
"507 260 CURVE",
"507 118 OFFCURVE",
"393 86 OFFCURVE",
"300 86 CURVE",
"34 86 LINE",
"34 0 LINE"
);
},
{
closed = 1;
nodes = (
"221 48 LINE",
"221 472 LINE",
"122 472 LINE",
"122 48 LINE"
);
}
);
width = 641;
},
{
anchors = (
{
name = bottom;
position = "{276, 0}";
},
{
name = center;
position = "{276, 245}";
},
{
name = top;
position = "{276, 490}";
}
);
layerId = "543F9737-16F7-428D-9F96-2EBD9FC8D3B6";
name = Light;
paths = (
{
closed = 1;
nodes = (
"271 0 LINE",
"444 0 OFFCURVE",
"556 99 OFFCURVE",
"556 260 CURVE",
"556 421 OFFCURVE",
"444 520 OFFCURVE",
"271 520 CURVE",
"30 520 LINE",
"30 497 LINE",
"271 497 LINE",
"434 497 OFFCURVE",
"531 404 OFFCURVE",
"531 260 CURVE",
"531 116 OFFCURVE",
"434 23 OFFCURVE",
"271 23 CURVE",
"30 23 LINE",
"30 0 LINE"
);
},
{
closed = 1;
nodes = (
"161 13 LINE",
"161 507 LINE",
"136 507 LINE",
"136 13 LINE"
);
}
);
width = 606;
}
);
leftMetricsKey = "=H";
rightMetricsKey = "=O";
unicode = 0044;
},
{
glyphname = Eth;
lastChange = "2015-08-27 00:35:44 +0000";
layers = (
{
components = (
{
name = D;
}
);
layerId = "B29C398E-974A-40D0-A0A0-00935056D4B4";
name = "Light Extended";
paths = (
{
closed = 1;
nodes = (
"80 256 LINE",
"80 234 LINE",
"641 234 LINE",
"641 256 LINE"
);
}
);
width = 959;
},
{
layerId = "FA480B27-EBBD-4830-9868-98507D39050C";
name = Bold;
width = 420;
},
{
layerId = "543F9737-16F7-428D-9F96-2EBD9FC8D3B6";
name = Light;
width = 420;
}
);
leftMetricsKey = "=D";
rightMetricsKey = "=D";
unicode = 00D0;
},
{
color = 5;
glyphname = E;
lastChange = "2015-09-26 20:52:49 +0000";
layers = (
{
anchors = (
{
name = bottom;
position = "{456, 10}";
},
{
name = ogonek;
position = "{760, 10}";
},
{
name = top;
position = "{456, 490}";
}
);
background = {
paths = (
{
closed = 1;
nodes = (
"891 7 LINE",
"891 189 LINE",
"865 189 LINE",
"865 33 LINE",
"83 33 LINE",
"83 7 LINE"
);
},
{
closed = 1;
nodes = (
"291 25 LINE",
"291 479 LINE",
"265 479 LINE",
"265 25 LINE"
);
},
{
closed = 1;
nodes = (
"608 260 LINE",
"608 286 LINE",
"278 286 LINE",
"278 260 LINE"
);
},
{
closed = 1;
nodes = (
"621 144 LINE",
"621 390 LINE",
"595 390 LINE",
"595 144 LINE"
);
},
{
closed = 1;
nodes = (
"867 464 LINE",
"867 313 LINE",
"893 313 LINE",
"893 490 LINE",
"86 490 LINE",
"85 464 LINE"
);
}
);
};
guideLines = (
{
position = "{417, 307}";
}
);
layerId = "B29C398E-974A-40D0-A0A0-00935056D4B4";
name = "Light Extended";
paths = (
{
closed = 1;
nodes = (
"862 0 LINE",
"862 186 LINE",
"838 186 LINE",
"838 23 LINE",
"56 23 LINE",
"56 0 LINE"
);
},
{
closed = 1;
nodes = (
"263 13 LINE",
"263 507 LINE",
"238 507 LINE",
"238 13 LINE"
);
},
{
closed = 1;
nodes = (
"583 261 LINE",
"583 284 LINE",
"260 284 LINE",
"260 261 LINE"
);
},
{
closed = 1;
nodes = (
"596 147 LINE",
"596 387 LINE",
"571 387 LINE",
"571 147 LINE"
);
},
{
closed = 1;
nodes = (
"862 337 LINE",
"862 520 LINE",
"56 520 LINE",
"56 497 LINE",
"837 497 LINE",
"837 337 LINE"
);
}
);
width = 911;
},
{
anchors = (
{
name = bottom;
position = "{306, 0}";
},
{
name = ogonek;
position = "{571, 0}";
},
{
name = top;
position = "{306, 520}";
}
);
layerId = "FA480B27-EBBD-4830-9868-98507D39050C";
name = Bold;
paths = (
{
closed = 1;
nodes = (
"572 0 LINE",
"572 183 LINE",
"479 183 LINE",
"479 88 LINE",
"34 88 LINE",
"34 0 LINE"
);
},
{
closed = 1;
nodes = (
"225 46 LINE",
"225 467 LINE",
"127 467 LINE",
"127 46 LINE"
);
},
{
closed = 1;
nodes = (
"370 216 LINE",
"370 299 LINE",
"164 299 LINE",
"164 216 LINE"
);
},
{
closed = 1;
nodes = (
"405 152 LINE",
"405 355 LINE",
"322 355 LINE",
"322 152 LINE"
);
},
{
closed = 1;
nodes = (
"572 337 LINE",
"572 520 LINE",
"34 520 LINE",
"34 432 LINE",
"479 432 LINE",
"479 337 LINE"
);
}
);
width = 612;
},
{
anchors = (
{
name = bottom;
position = "{306, 10}";
},
{
name = ogonek;
position = "{504, 10}";
},
{
name = top;
position = "{306, 490}";
}
);
background = {
paths = (
{
closed = 1;
nodes = (
"795 0 LINE",
"795 184 LINE",
"778 184 LINE",
"778 23 LINE",
"203 23 LINE",
"203 0 LINE"
);
},
{
closed = 1;
nodes = (
"590 258 LINE",
"590 281 LINE",
"352 281 LINE",
"352 258 LINE"
);
},
{
closed = 1;
nodes = (
"600 145 LINE",
"600 382 LINE",
"582 382 LINE",
"582 145 LINE"
);
},
{
closed = 1;
nodes = (
"777 491 LINE",
"777 333 LINE",
"795 333 LINE",
"795 514 LINE",
"203 514 LINE",
"203 491 LINE"
);
},
{
closed = 1;
nodes = (
"355 13 LINE",
"355 501 LINE",
"337 501 LINE",
"337 13 LINE"
);
}
);
};
layerId = "543F9737-16F7-428D-9F96-2EBD9FC8D3B6";
name = Light;
paths = (
{
closed = 1;
nodes = (
"516 0 LINE",
"516 136 LINE",
"492 136 LINE",
"492 23 LINE",
"30 23 LINE",
"30 0 LINE"
);
},
{
closed = 1;
nodes = (
"167 13 LINE",
"167 507 LINE",
"142 507 LINE",
"142 13 LINE"
);
},
{
closed = 1;
nodes = (
"347 261 LINE",
"347 284 LINE",
"164 284 LINE",
"164 261 LINE"
);
},
{
closed = 1;
nodes = (
"360 177 LINE",
"360 367 LINE",
"335 367 LINE",
"335 177 LINE"
);
},
{
closed = 1;
nodes = (
"516 387 LINE",
"516 520 LINE",
"30 520 LINE",
"30 497 LINE",
"491 497 LINE",
"491 387 LINE"
);
}
);
width = 546;
}
);
leftMetricsKey = "=H";
unicode = 0045;
},
{
color = 5;
glyphname = F;
lastChange = "2015-09-26 20:52:58 +0000";
layers = (
{
anchors = (
{
name = bottom;
position = "{449, 0}";
},
{
name = top;
position = "{449, 490}";
}
);
layerId = "B29C398E-974A-40D0-A0A0-00935056D4B4";
name = "Light Extended";
paths = (
{
closed = 1;
nodes = (
"862 337 LINE",
"862 520 LINE",
"56 520 LINE",
"56 497 LINE",
"838 497 LINE",
"838 337 LINE"
);
},
{
closed = 1;
nodes = (
"455 0 LINE",
"455 23 LINE",
"56 23 LINE",
"56 0 LINE"
);
},
{
closed = 1;
nodes = (
"263 13 LINE",
"263 507 LINE",
"238 507 LINE",
"238 13 LINE"
);
},
{
closed = 1;
nodes = (
"603 240 LINE",
"603 263 LINE",
"260 263 LINE",
"260 240 LINE"
);
},
{
closed = 1;
nodes = (
"615 127 LINE",
"615 368 LINE",
"591 368 LINE",
"591 127 LINE"
);
}
);
width = 897;
},
{
anchors = (
{
name = bottom;
position = "{309, 0}";
},
{
name = top;
position = "{309, 520}";
}
);
background = {
paths = (
{
closed = 1;
nodes = (
"591 201 LINE",
"591 284 LINE",
"159 284 LINE",
"159 201 LINE"
);
},
{
closed = 1;
nodes = (
"317 0 LINE",
"317 86 LINE",
"34 86 LINE",
"34 0 LINE"
);
},
{
closed = 1;
nodes = (
"225 46 LINE",
"225 442 LINE",
"127 442 LINE",
"127 46 LINE"
);
},
{
closed = 1;
nodes = (
"317 405 LINE",
"317 490 LINE",
"34 490 LINE",
"34 405 LINE"
);
},
{
closed = 1;
nodes = (
"715 0 LINE",
"715 86 LINE",
"431 86 LINE",
"431 0 LINE"
);
},
{
closed = 1;
nodes = (
"622 48 LINE",
"622 445 LINE",
"523 445 LINE",
"523 48 LINE"
);
},
{
closed = 1;
nodes = (
"715 405 LINE",
"715 490 LINE",
"431 490 LINE",
"431 405 LINE"
);
}
);
};
layerId = "FA480B27-EBBD-4830-9868-98507D39050C";
name = Bold;
paths = (
{
closed = 1;
nodes = (
"577 327 LINE",
"577 520 LINE",
"34 520 LINE",
"34 432 LINE",
"484 432 LINE",
"484 327 LINE"
);
},
{
closed = 1;
nodes = (
"317 0 LINE",
"317 86 LINE",
"34 86 LINE",
"34 0 LINE"
);
},
{
closed = 1;
nodes = (
"225 46 LINE",
"225 472 LINE",
"127 472 LINE",
"127 46 LINE"
);
},
{
closed = 1;
nodes = (
"380 211 LINE",
"380 294 LINE",
"164 294 LINE",
"164 211 LINE"
);
},
{
closed = 1;
nodes = (
"415 147 LINE",
"415 350 LINE",
"332 350 LINE",
"332 147 LINE"
);
}
);
width = 587;
},
{
anchors = (
{
name = bottom;
position = "{279, 0}";
},
{
name = top;
position = "{279, 490}";
}
);
layerId = "543F9737-16F7-428D-9F96-2EBD9FC8D3B6";
name = Light;
paths = (
{
closed = 1;
nodes = (
"536 387 LINE",
"536 520 LINE",
"30 520 LINE",
"30 497 LINE",
"511 497 LINE",
"511 387 LINE"
);
},
{
closed = 1;
nodes = (
"293 0 LINE",
"293 23 LINE",
"30 23 LINE",
"30 0 LINE"
);
},
{
closed = 1;
nodes = (
"167 13 LINE",
"167 507 LINE",
"142 507 LINE",
"142 13 LINE"
);
},
{
closed = 1;
nodes = (
"367 241 LINE",
"367 264 LINE",
"164 264 LINE",
"164 241 LINE"
);
},
{
closed = 1;
nodes = (
"380 157 LINE",
"380 347 LINE",
"355 347 LINE",
"355 157 LINE"
);
}
);
width = 541;
}
);
leftMetricsKey = "=H";
unicode = 0046;
},
{
glyphname = G;
lastChange = "2015-09-26 20:53:23 +0000";
layers = (
{
anchors = (
{
name = bottom;
position = "{429, -10}";
},
{
name = top;
position = "{429, 530}";
}
);
background = {
paths = (
{
closed = 0;
nodes = (
"433 517 LINE",
"597 517 OFFCURVE",
"715 447 OFFCURVE",
"785 348 CURVE",
"768 348 LINE",
"768 491 LINE",
"791 491 LINE",
"791 311 LINE",
"689 447 OFFCURVE",
"572 494 OFFCURVE",
"433 494 CURVE"
);
}
);
};
layerId = "B29C398E-974A-40D0-A0A0-00935056D4B4";
name = "Light Extended";
paths = (
{
closed = 1;
nodes = (
"241 530 OFFCURVE",
"70 431 OFFCURVE",
"70 259 CURVE",
"70 89 OFFCURVE",
"234 -10 OFFCURVE",
"426 -10 CURVE",
"637 -10 OFFCURVE",
"793 90 OFFCURVE",
"799 254 CURVE",
"774 238 LINE",
"764 122 OFFCURVE",
"652 13 OFFCURVE",
"426 13 CURVE",
"244 13 OFFCURVE",
"95 107 OFFCURVE",
"95 259 CURVE",
"95 413 OFFCURVE",
"249 507 OFFCURVE",
"434 507 CURVE",
"566 507 OFFCURVE",
"689 461 OFFCURVE",
"791 324 CURVE",
"791 520 LINE",
"768 520 LINE",
"768 360 LINE",
"785 360 LINE",
"715 457 OFFCURVE",
"605 530 OFFCURVE",
"434 530 CURVE"
);
},
{
closed = 1;
nodes = (
"422 254 LINE",
"422 231 LINE",
"792 231 LINE",
"799 254 LINE"
);
}
);
width = 858;
},
{
anchors = (
{
name = bottom;
position = "{309, -10}";
},
{
name = top;
position = "{309, 530}";
}
);
background = {
paths = (
{
closed = 1;
nodes = (
"453 -11 OFFCURVE",
"581 81 OFFCURVE",
"581 247 CURVE",
"581 413 OFFCURVE",
"453 505 OFFCURVE",
"303 505 CURVE SMOOTH",
"153 505 OFFCURVE",
"25 413 OFFCURVE",
"25 247 CURVE",
"25 81 OFFCURVE",
"153 -11 OFFCURVE",
"303 -11 CURVE SMOOTH"
);
},
{
closed = 1;
nodes = (
"406 422 OFFCURVE",
"472 348 OFFCURVE",
"472 247 CURVE",
"472 146 OFFCURVE",
"406 72 OFFCURVE",
"303 72 CURVE SMOOTH",
"200 72 OFFCURVE",
"134 146 OFFCURVE",
"134 247 CURVE",
"134 348 OFFCURVE",
"200 422 OFFCURVE",
"303 422 CURVE SMOOTH"
);
}
);
};
layerId = "FA480B27-EBBD-4830-9868-98507D39050C";
name = Bold;
paths = (
{
closed = 1;
nodes = (
"467 -11 OFFCURVE",
"573 94 OFFCURVE",
"573 261 CURVE SMOOTH",
"573 287 LINE",
"249 287 LINE",
"249 204 LINE",
"465 204 LINE",
"458 131 OFFCURVE",
"403 72 OFFCURVE",
"308 72 CURVE SMOOTH",
"210 72 OFFCURVE",
"134 137 OFFCURVE",
"134 260 CURVE SMOOTH",
"134 379 OFFCURVE",
"216 448 OFFCURVE",
"313 448 CURVE SMOOTH",
"401 448 OFFCURVE",
"458 398 OFFCURVE",
"487 347 CURVE",
"555 351 LINE",
"555 520 LINE",
"461 520 LINE",
"461 422 LINE",
"508 408 LINE",
"471 477 OFFCURVE",
"396 530 OFFCURVE",
"287 530 CURVE SMOOTH",
"165 530 OFFCURVE",
"25 433 OFFCURVE",
"25 260 CURVE SMOOTH",
"25 91 OFFCURVE",
"148 -11 OFFCURVE",
"304 -11 CURVE SMOOTH"
);
}
);
width = 596;
},
{
layerId = "543F9737-16F7-428D-9F96-2EBD9FC8D3B6";
name = Light;
width = 420;
}
);
leftMetricsKey = "=O";
unicode = 0047;
},
{
color = 5;
glyphname = H;
lastChange = "2015-09-26 20:54:01 +0000";
layers = (
{
anchors = (
{
name = bottom;
position = "{566, 0}";
},
{
name = center;
position = "{566, 265}";
},
{
name = top;
position = "{566, 520}";
}
);
layerId = "B29C398E-974A-40D0-A0A0-00935056D4B4";
name = "Light Extended";
paths = (
{
closed = 1;
nodes = (
"875 252 LINE",
"875 275 LINE",
"258 275 LINE",
"258 252 LINE"
);
},
{
closed = 1;
nodes = (
"442 0 LINE",
"442 23 LINE",
"56 23 LINE",
"56 0 LINE"
);
},
{
closed = 1;
nodes = (
"263 11 LINE",
"263 507 LINE",
"238 507 LINE",
"238 11 LINE"
);
},
{
closed = 1;
nodes = (
"442 497 LINE",
"442 520 LINE",
"56 520 LINE",
"56 497 LINE"
);
},
{
closed = 1;
nodes = (
"1075 0 LINE",
"1075 23 LINE",
"689 23 LINE",
"689 0 LINE"
);
},
{
closed = 1;
nodes = (
"894 13 LINE",
"894 509 LINE",
"869 509 LINE",
"869 13 LINE"
);
},
{
closed = 1;
nodes = (
"1075 497 LINE",
"1075 520 LINE",
"689 520 LINE",
"689 497 LINE"
);
}
);
width = 1131;
},
{
anchors = (
{
name = bottom;
position = "{371, 0}";
},
{
name = center;
position = "{371, 255}";
},
{
name = top;
position = "{371, 520}";
}
);
layerId = "FA480B27-EBBD-4830-9868-98507D39050C";
name = Bold;
paths = (
{
closed = 1;
nodes = (
"585 216 LINE",
"585 299 LINE",
"159 299 LINE",
"159 216 LINE"
);
},
{
closed = 1;
nodes = (
"317 0 LINE",
"317 83 LINE",
"34 83 LINE",
"34 0 LINE"
);
},
{
closed = 1;
nodes = (
"225 46 LINE",
"225 472 LINE",
"127 472 LINE",
"127 46 LINE"
);
},
{
closed = 1;
nodes = (
"317 437 LINE",
"317 520 LINE",
"34 520 LINE",
"34 437 LINE"
);
},
{
closed = 1;
nodes = (
"709 0 LINE",
"709 83 LINE",
"425 83 LINE",
"425 0 LINE"
);
},
{
closed = 1;
nodes = (
"616 48 LINE",
"616 475 LINE",
"517 475 LINE",
"517 48 LINE"
);
},
{
closed = 1;
nodes = (
"709 437 LINE",
"709 520 LINE",
"425 520 LINE",
"425 437 LINE"
);
}
);
width = 743;
},
{
anchors = (
{
name = bottom;
position = "{360, 0}";
},
{
name = center;
position = "{360, 245}";
},
{
name = top;
position = "{360, 490}";
}
);
background = {
paths = (
{
closed = 1;
nodes = (
"577 13 LINE",
"577 479 LINE",
"552 479 LINE",
"552 13 LINE"
);
},
{
closed = 1;
nodes = (
"271 0 LINE",
"271 25 LINE",
"30 25 LINE",
"30 0 LINE"
);
},
{
closed = 1;
nodes = (
"167 13 LINE",
"167 479 LINE",
"143 479 LINE",
"143 13 LINE"
);
},
{
closed = 1;
nodes = (
"558 230 LINE",
"558 254 LINE",
"162 254 LINE",
"162 230 LINE"
);
},
{
closed = 1;
nodes = (
"271 465 LINE",
"271 490 LINE",
"30 490 LINE",
"30 465 LINE"
);
},
{
closed = 1;
nodes = (
"689 0 LINE",
"689 25 LINE",
"448 25 LINE",
"448 0 LINE"
);
},
{
closed = 1;
nodes = (
"689 465 LINE",
"689 490 LINE",
"448 490 LINE",
"448 465 LINE"
);
}
);
};
layerId = "543F9737-16F7-428D-9F96-2EBD9FC8D3B6";
name = Light;
paths = (
{
closed = 1;
nodes = (
"558 242 LINE",
"558 265 LINE",
"162 265 LINE",
"162 242 LINE"
);
},
{
closed = 1;
nodes = (
"271 0 LINE",
"271 23 LINE",
"30 23 LINE",
"30 0 LINE"
);
},
{
closed = 1;
nodes = (
"167 13 LINE",
"167 509 LINE",
"143 509 LINE",
"143 13 LINE"
);
},
{
closed = 1;
nodes = (
"271 497 LINE",
"271 520 LINE",
"30 520 LINE",
"30 497 LINE"
);
},
{
closed = 1;
nodes = (
"689 0 LINE",
"689 23 LINE",
"448 23 LINE",
"448 0 LINE"
);
},
{
closed = 1;
nodes = (
"577 13 LINE",
"577 509 LINE",
"552 509 LINE",
"552 13 LINE"
);
},
{
closed = 1;
nodes = (
"689 497 LINE",
"689 520 LINE",
"448 520 LINE",
"448 497 LINE"
);
}
);
width = 719;
}
);
unicode = 0048;
},
{
glyphname = Hbar;
lastChange = "2015-08-27 00:35:44 +0000";
layers = (
{
layerId = "B29C398E-974A-40D0-A0A0-00935056D4B4";
name = "Light Extended";
paths = (
{
closed = 1;
nodes = (
"56 356 LINE",
"56 334 LINE",
"1075 334 LINE",
"1075 356 LINE"
);
},
{
closed = 1;
nodes = (
"875 207 LINE",
"875 230 LINE",
"258 230 LINE",
"258 207 LINE"
);
},
{
closed = 1;
nodes = (
"442 0 LINE",
"442 23 LINE",
"56 23 LINE",
"56 0 LINE"
);
},
{
closed = 1;
nodes = (
"263 11 LINE",
"263 477 LINE",
"238 477 LINE",
"238 11 LINE"
);
},
{
closed = 1;
nodes = (
"442 467 LINE",
"442 490 LINE",
"56 490 LINE",
"56 467 LINE"
);
},
{
closed = 1;
nodes = (
"1075 0 LINE",
"1075 23 LINE",
"689 23 LINE",
"689 0 LINE"
);
},
{
closed = 1;
nodes = (
"894 13 LINE",
"894 479 LINE",
"869 479 LINE",
"869 13 LINE"
);
},
{
closed = 1;
nodes = (
"1075 467 LINE",
"1075 490 LINE",
"689 490 LINE",
"689 467 LINE"
);
}
);
width = 1131;
},
{
layerId = "FA480B27-EBBD-4830-9868-98507D39050C";
name = Bold;
width = 420;
},
{
layerId = "543F9737-16F7-428D-9F96-2EBD9FC8D3B6";
name = Light;
width = 420;
}
);
unicode = 0126;
},
{
color = 5;
glyphname = I;
lastChange = "2015-09-26 20:54:28 +0000";
layers = (
{
anchors = (
{
name = bottom;
position = "{261, 0}";
},
{
name = ogonek;
position = "{455, 11}";
},
{
name = top;
position = "{261, 520}";
}
);
layerId = "B29C398E-974A-40D0-A0A0-00935056D4B4";
name = "Light Extended";
paths = (
{
closed = 1;
nodes = (
"273 13 LINE SMOOTH",
"273 507 LINE SMOOTH",
"248 507 LINE SMOOTH",
"248 13 LINE SMOOTH"
);
},
{
closed = 1;
nodes = (
"465 0 LINE SMOOTH",
"465 23 LINE SMOOTH",
"56 23 LINE SMOOTH",
"56 0 LINE SMOOTH"
);
},
{
closed = 1;
nodes = (
"465 497 LINE SMOOTH",
"465 520 LINE SMOOTH",
"56 520 LINE SMOOTH",
"56 497 LINE SMOOTH"
);
}
);
width = 521;
},
{
anchors = (
{
name = bottom;
position = "{159, 0}";
},
{
name = ogonek;
position = "{279, 0}";
},
{
name = top;
position = "{159, 520}";
}
);
layerId = "FA480B27-EBBD-4830-9868-98507D39050C";
name = Bold;
paths = (
{
closed = 1;
nodes = (
"208 0 LINE",
"208 472 LINE",
"109 472 LINE",
"109 0 LINE"
);
},
{
closed = 1;
nodes = (
"283 0 LINE",
"283 85 LINE",
"34 85 LINE",
"34 0 LINE"
);
},
{
closed = 1;
nodes = (
"283 435 LINE",
"283 520 LINE",
"34 520 LINE",
"34 435 LINE"
);
}
);
width = 317;
},
{
anchors = (
{
name = bottom;
position = "{151, 0}";
},
{
name = ogonek;
position = "{279, 0}";
},
{
name = top;
position = "{151, 490}";
}
);
layerId = "543F9737-16F7-428D-9F96-2EBD9FC8D3B6";
name = Light;
paths = (
{
closed = 1;
nodes = (
"167 13 LINE",
"167 509 LINE",
"142 509 LINE",
"142 13 LINE"
);
},
{
closed = 1;
nodes = (
"279 0 LINE",
"279 23 LINE",
"30 23 LINE",
"30 0 LINE"
);
},
{
closed = 1;
nodes = (
"279 497 LINE",
"279 520 LINE",
"30 520 LINE",
"30 497 LINE"
);
}
);
width = 309;
}
);
leftMetricsKey = "=H";
rightMetricsKey = "=H";
unicode = 0049;
},
{
glyphname = J;
lastChange = "2015-09-26 20:55:03 +0000";
layers = (
{
anchors = (
{
name = bottom;
position = "{322, 0}";
},
{
name = top;
position = "{322, 520}";
}
);
background = {
paths = (
{
closed = 1;
nodes = (
"615 467 LINE",
"615 490 LINE",
"190 490 LINE",
"190 467 LINE"
);
},
{
closed = 1;
nodes = (
"2 103 LINE",
"41 45 OFFCURVE",
"115 -20 OFFCURVE",
"233 -20 CURVE SMOOTH",
"365 -20 OFFCURVE",
"455 55 OFFCURVE",
"455 176 CURVE SMOOTH",
"455 477 LINE",
"430 477 LINE",
"430 176 LINE SMOOTH",
"430 58 OFFCURVE",
"339 3 OFFCURVE",
"233 3 CURVE SMOOTH",
"132 3 OFFCURVE",
"61 62 OFFCURVE",
"21 117 CURVE"
);
}
);
};
layerId = "B29C398E-974A-40D0-A0A0-00935056D4B4";
name = "Light Extended";
paths = (
{
closed = 1;
nodes = (
"615 497 LINE",
"615 520 LINE",
"190 520 LINE",
"190 497 LINE"
);
},
{
closed = 1;
nodes = (
"4 111 LINE",
"43 55 OFFCURVE",
"115 -10 OFFCURVE",
"233 -10 CURVE SMOOTH",
"365 -10 OFFCURVE",
"455 65 OFFCURVE",
"455 186 CURVE SMOOTH",
"455 507 LINE",
"430 507 LINE",
"430 186 LINE SMOOTH",
"430 68 OFFCURVE",
"339 13 OFFCURVE",
"233 13 CURVE SMOOTH",
"132 13 OFFCURVE",
"61 72 OFFCURVE",
"21 127 CURVE"
);
}
);
width = 629;
},
{
anchors = (
{
name = bottom;
position = "{182, -10}";
},
{
name = top;
position = "{302, 520}";
}
);
layerId = "FA480B27-EBBD-4830-9868-98507D39050C";
name = Bold;
paths = (
{
closed = 1;
nodes = (
"465 435 LINE",
"465 520 LINE",
"121 520 LINE",
"121 435 LINE"
);
},
{
closed = 1;
nodes = (
"0 67 LINE",
"33 33 OFFCURVE",
"95 -10 OFFCURVE",
"182 -10 CURVE SMOOTH",
"282 -10 OFFCURVE",
"362 62 OFFCURVE",
"362 177 CURVE SMOOTH",
"362 475 LINE",
"264 475 LINE",
"265 183 LINE SMOOTH",
"265 114 OFFCURVE",
"227 79 OFFCURVE",
"177 77 CURVE SMOOTH",
"124 75 OFFCURVE",
"77 116 OFFCURVE",
"54 141 CURVE"
);
}
);
width = 465;
},
{
layerId = "543F9737-16F7-428D-9F96-2EBD9FC8D3B6";
name = Light;
width = 420;
}
);
rightMetricsKey = "=U";
unicode = 004A;
},
{
glyphname = K;
lastChange = "2015-09-26 20:55:30 +0000";
layers = (
{
anchors = (
{
name = bottom;
position = "{535, 0}";
},
{
name = top;
position = "{535, 520}";
}
);
background = {
paths = (
{
closed = 1;
nodes = (
"465 0 LINE SMOOTH",
"465 23 LINE SMOOTH",
"56 23 LINE SMOOTH",
"56 0 LINE SMOOTH"
);
},
{
closed = 1;
nodes = (
"248 477 LINE SMOOTH",
"248 13 LINE SMOOTH",
"273 13 LINE SMOOTH",
"273 477 LINE SMOOTH"
);
},
{
closed = 1;
nodes = (
"56 490 LINE SMOOTH",
"56 467 LINE SMOOTH",
"465 467 LINE SMOOTH",
"465 490 LINE SMOOTH"
);
},
{
closed = 1;
nodes = (
"815 485 LINE",
"253 137 LINE",
"267 118 LINE",
"825 465 LINE"
);
},
{
closed = 1;
nodes = (
"820 25 LINE",
"501 279 LINE",
"485 263 LINE",
"812 1 LINE"
);
},
{
closed = 1;
nodes = (
"972 467 LINE SMOOTH",
"972 490 LINE SMOOTH",
"620 490 LINE SMOOTH",
"620 467 LINE SMOOTH"
);
},
{
closed = 1;
nodes = (
"972 0 LINE SMOOTH",
"972 23 LINE SMOOTH",
"620 23 LINE SMOOTH",
"620 0 LINE SMOOTH"
);
}
);
};
layerId = "B29C398E-974A-40D0-A0A0-00935056D4B4";
name = "Light Extended";
paths = (
{
closed = 1;
nodes = (
"465 0 LINE SMOOTH",
"465 23 LINE SMOOTH",
"56 23 LINE SMOOTH",
"56 0 LINE SMOOTH"
);
},
{
closed = 1;
nodes = (
"248 507 LINE SMOOTH",
"248 13 LINE SMOOTH",
"273 13 LINE SMOOTH",
"273 507 LINE SMOOTH"
);
},
{
closed = 1;
nodes = (
"56 520 LINE SMOOTH",
"56 497 LINE SMOOTH",
"465 497 LINE SMOOTH",
"465 520 LINE SMOOTH"
);
},
{
closed = 1;
nodes = (
"804 507 LINE",
"260 156 LINE",
"260 129 LINE",
"844 507 LINE"
);
},
{
closed = 1;
nodes = (
"850 10 LINE",
"501 294 LINE",
"485 278 LINE",
"815 10 LINE"
);
},
{
closed = 1;
nodes = (
"972 497 LINE SMOOTH",
"972 520 LINE SMOOTH",
"620 520 LINE SMOOTH",
"620 497 LINE SMOOTH"
);
},
{
closed = 1;
nodes = (
"982 0 LINE SMOOTH",
"982 23 LINE SMOOTH",
"630 23 LINE SMOOTH",
"630 0 LINE SMOOTH"
);
}
);
width = 990;
},
{
anchors = (
{
name = bottom;
position = "{365, 0}";
},
{
name = top;
position = "{365, 520}";
}
);
layerId = "FA480B27-EBBD-4830-9868-98507D39050C";
name = Bold;
paths = (
{
closed = 1;
nodes = (
"624 454 LINE",
"496 454 LINE",
"168 182 LINE",
"169 86 LINE"
);
},
{
closed = 1;
nodes = (
"317 0 LINE",
"317 86 LINE",
"34 86 LINE",
"34 0 LINE"
);
},
{
closed = 1;
nodes = (
"225 46 LINE",
"225 472 LINE",
"127 472 LINE",
"127 46 LINE"
);
},
{
closed = 1;
nodes = (
"317 435 LINE",
"317 520 LINE",
"34 520 LINE",
"34 435 LINE"
);
},
{
closed = 1;
nodes = (
"689 0 LINE",
"689 86 LINE",
"405 86 LINE",
"405 0 LINE"
);
},
{
closed = 1;
nodes = (
"679 435 LINE",
"679 520 LINE",
"395 520 LINE",
"395 435 LINE"
);
},
{
closed = 1;
nodes = (
"314 276 LINE",
"508 61 LINE",
"634 61 LINE",
"389 326 LINE"
);
}
);
width = 699;
},
{
layerId = "543F9737-16F7-428D-9F96-2EBD9FC8D3B6";
name = Light;
width = 420;
}
);
leftMetricsKey = "=H";
unicode = 004B;
},
{
color = 5;
glyphname = L;
lastChange = "2015-09-26 20:55:57 +0000";
layers = (
{
anchors = (
{
name = bottom;
position = "{412, 0}";
},
{
name = center;
position = "{412, 245}";
},
{
name = top;
position = "{412, 520}";
},
{
name = topright;
position = "{804, 490}";
}
);
layerId = "B29C398E-974A-40D0-A0A0-00935056D4B4";
name = "Light Extended";
paths = (
{
closed = 1;
nodes = (
"789 0 LINE",
"789 186 LINE",
"764 186 LINE",
"764 23 LINE",
"56 23 LINE",
"56 0 LINE"
);
},
{
closed = 1;
nodes = (
"263 13 LINE",
"263 507 LINE",
"238 507 LINE",
"238 13 LINE"
);
},
{
closed = 1;
nodes = (
"455 497 LINE",
"455 520 LINE",
"56 520 LINE",
"56 497 LINE"
);
}
);
width = 824;
},
{
anchors = (
{
name = bottom;
position = "{272, 0}";
},
{
name = center;
position = "{272, 245}";
},
{
name = top;
position = "{272, 520}";
},
{
name = topright;
position = "{474, 490}";
}
);
layerId = "FA480B27-EBBD-4830-9868-98507D39050C";
name = Bold;
paths = (
{
closed = 1;
nodes = (
"542 0 LINE",
"542 193 LINE",
"449 193 LINE",
"449 88 LINE",
"34 88 LINE",
"34 0 LINE"
);
},
{
closed = 1;
nodes = (
"220 46 LINE",
"220 467 LINE",
"122 467 LINE",
"122 46 LINE"
);
},
{
closed = 1;
nodes = (
"312 435 LINE",
"312 520 LINE",
"35 520 LINE",
"35 435 LINE"
);
}
);
width = 542;
},
{
anchors = (
{
name = bottom;
position = "{222, 0}";
},
{
name = center;
position = "{222, 245}";
},
{
name = top;
position = "{222, 490}";
},
{
name = topright;
position = "{434, 490}";
}
);
layerId = "543F9737-16F7-428D-9F96-2EBD9FC8D3B6";
name = Light;
paths = (
{
closed = 1;
nodes = (
"516 0 LINE",
"516 136 LINE",
"492 136 LINE",
"492 23 LINE",
"30 23 LINE",
"30 0 LINE"
);
},
{
closed = 1;
nodes = (
"167 13 LINE",
"167 507 LINE",
"142 507 LINE",
"142 13 LINE"
);
},
{
closed = 1;
nodes = (
"279 497 LINE",
"279 520 LINE",
"30 520 LINE",
"30 497 LINE"
);
}
);
width = 521;
}
);
leftMetricsKey = "=H";
unicode = 004C;
},
{
color = 5;
glyphname = M;
lastChange = "2015-09-26 20:56:32 +0000";
layers = (
{
anchors = (
{
name = bottom;
position = "{614, 0}";
},
{
name = top;
position = "{614, 490}";
}
);
background = {
paths = (
{
closed = 1;
nodes = (
"624 3 LINE",
"258 490 LINE",
"227 490 LINE",
"614 -27 LINE"
);
},
{
closed = 1;
nodes = (
"395 0 LINE",
"395 23 LINE",
"56 23 LINE",
"56 0 LINE"
);
},
{
closed = 1;
nodes = (
"258 12 LINE",
"258 477 LINE",
"233 477 LINE",
"233 12 LINE"
);
},
{
closed = 1;
nodes = (
"258 467 LINE",
"258 490 LINE",
"56 490 LINE",
"56 467 LINE"
);
},
{
closed = 1;
nodes = (
"1171 0 LINE",
"1171 23 LINE",
"832 23 LINE",
"832 0 LINE"
);
},
{
closed = 1;
nodes = (
"1001 490 LINE",
"967 490 LINE",
"606 3 LINE",
"614 -27 LINE"
);
},
{
closed = 1;
nodes = (
"994 12 LINE",
"994 477 LINE",
"969 477 LINE",
"969 12 LINE"
);
},
{
closed = 1;
nodes = (
"1171 467 LINE",
"1171 490 LINE",
"969 490 LINE",
"969 467 LINE"
);
}
);
};
layerId = "B29C398E-974A-40D0-A0A0-00935056D4B4";
name = "Light Extended";
paths = (
{
closed = 1;
nodes = (
"624 3 LINE",
"258 520 LINE",
"227 520 LINE",
"614 -27 LINE"
);
},
{
closed = 1;
nodes = (
"395 0 LINE",
"395 23 LINE",
"56 23 LINE",
"56 0 LINE"
);
},
{
closed = 1;
nodes = (
"258 12 LINE",
"258 507 LINE",
"233 507 LINE",
"233 12 LINE"
);
},
{
closed = 1;
nodes = (
"258 497 LINE",
"258 520 LINE",
"56 520 LINE",
"56 497 LINE"
);
},
{
closed = 1;
nodes = (
"1171 0 LINE",
"1171 23 LINE",
"832 23 LINE",
"832 0 LINE"
);
},
{
closed = 1;
nodes = (
"1001 520 LINE",
"967 520 LINE",
"606 3 LINE",
"614 -27 LINE"
);
},
{
closed = 1;
nodes = (
"994 12 LINE",
"994 507 LINE",
"969 507 LINE",
"969 12 LINE"
);
},
{
closed = 1;
nodes = (
"1171 497 LINE",
"1171 520 LINE",
"969 520 LINE",
"969 497 LINE"
);
}
);
width = 1227;
},
{
anchors = (
{
name = bottom;
position = "{438, -2}";
},
{
name = top;
position = "{421, 490}";
}
);
background = {
paths = (
{
closed = 1;
nodes = (
"300 0 LINE",
"300 86 LINE",
"34 86 LINE",
"34 0 LINE"
);
},
{
closed = 1;
nodes = (
"215 46 LINE",
"215 442 LINE",
"122 442 LINE",
"122 46 LINE"
);
},
{
closed = 1;
nodes = (
"220 405 LINE",
"220 490 LINE",
"34 490 LINE",
"34 405 LINE"
);
},
{
closed = 1;
nodes = (
"813 0 LINE",
"813 86 LINE",
"542 86 LINE",
"542 0 LINE"
);
},
{
closed = 1;
nodes = (
"434 -3 LINE",
"455 73 LINE",
"231 490 LINE",
"129 490 LINE",
"396 -3 LINE",
"411 -3 LINE",
"446 -3 LINE"
);
},
{
closed = 1;
nodes = (
"725 46 LINE",
"725 442 LINE",
"627 442 LINE",
"627 46 LINE"
);
},
{
closed = 1;
nodes = (
"813 405 LINE",
"813 490 LINE",
"622 490 LINE",
"622 405 LINE"
);
},
{
closed = 1;
nodes = (
"446 -3 LINE",
"713 490 LINE",
"615 490 LINE",
"396 73 LINE",
"411 -3 LINE",
"396 -3 LINE",
"434 -3 LINE"
);
}
);
};
layerId = "FA480B27-EBBD-4830-9868-98507D39050C";
name = Bold;
paths = (
{
closed = 1;
nodes = (
"411 -3 LINE",
"446 -3 LINE",
"434 -3 LINE",
"455 73 LINE",
"231 520 LINE",
"129 520 LINE",
"396 -3 LINE"
);
},
{
closed = 1;
nodes = (
"300 0 LINE",
"300 86 LINE",
"34 86 LINE",
"34 0 LINE"
);
},
{
closed = 1;
nodes = (
"215 46 LINE",
"215 472 LINE",
"122 472 LINE",
"122 46 LINE"
);
},
{
closed = 1;
nodes = (
"220 435 LINE",
"220 520 LINE",
"34 520 LINE",
"34 435 LINE"
);
},
{
closed = 1;
nodes = (
"813 0 LINE",
"813 86 LINE",
"542 86 LINE",
"542 0 LINE"
);
},
{
closed = 1;
nodes = (
"434 -3 LINE",
"446 -3 LINE",
"713 520 LINE",
"615 520 LINE",
"396 73 LINE",
"411 -3 LINE",
"396 -3 LINE"
);
},
{
closed = 1;
nodes = (
"725 46 LINE",
"725 472 LINE",
"627 472 LINE",
"627 46 LINE"
);
},
{
closed = 1;
nodes = (
"813 435 LINE",
"813 520 LINE",
"622 520 LINE",
"622 435 LINE"
);
}
);
width = 847;
},
{
anchors = (
{
name = bottom;
position = "{406, -35}";
},
{
name = top;
position = "{404, 480}";
}
);
background = {
paths = (
{
closed = 1;
nodes = (
"30 23 LINE",
"260 23 LINE",
"260 0 LINE",
"30 0 LINE"
);
},
{
closed = 1;
nodes = (
"138 490 LINE",
"163 490 LINE",
"163 12 LINE",
"138 12 LINE"
);
},
{
closed = 1;
nodes = (
"30 490 LINE",
"163 490 LINE",
"163 467 LINE",
"30 467 LINE"
);
},
{
closed = 1;
nodes = (
"407 -27 LINE",
"141 490 LINE",
"167 490 LINE",
"417 6 LINE"
);
},
{
closed = 1;
nodes = (
"647 490 LINE",
"673 490 LINE",
"407 -27 LINE",
"399 6 LINE"
);
},
{
closed = 1;
nodes = (
"554 0 LINE",
"554 23 LINE",
"784 23 LINE",
"784 0 LINE"
);
},
{
closed = 1;
nodes = (
"651 12 LINE",
"651 490 LINE",
"676 490 LINE",
"676 12 LINE"
);
},
{
closed = 1;
nodes = (
"651 467 LINE",
"651 490 LINE",
"784 490 LINE",
"784 467 LINE"
);
}
);
};
layerId = "543F9737-16F7-428D-9F96-2EBD9FC8D3B6";
name = Light;
paths = (
{
closed = 1;
nodes = (
"418 6 LINE",
"167 520 LINE",
"140 520 LINE",
"407 -27 LINE"
);
},
{
closed = 1;
nodes = (
"260 0 LINE",
"260 23 LINE",
"30 23 LINE",
"30 0 LINE"
);
},
{
closed = 1;
nodes = (
"163 12 LINE",
"163 520 LINE",
"138 520 LINE",
"138 12 LINE"
);
},
{
closed = 1;
nodes = (
"163 497 LINE",
"163 520 LINE",
"30 520 LINE",
"30 497 LINE"
);
},
{
closed = 1;
nodes = (
"784 0 LINE",
"784 23 LINE",
"554 23 LINE",
"554 0 LINE"
);
},
{
closed = 1;
nodes = (
"673 520 LINE",
"647 520 LINE",
"399 6 LINE",
"407 -27 LINE"
);
},
{
closed = 1;
nodes = (
"676 12 LINE",
"676 520 LINE",
"651 520 LINE",
"651 12 LINE"
);
},
{
closed = 1;
nodes = (
"784 497 LINE",
"784 520 LINE",
"651 520 LINE",
"651 497 LINE"
);
}
);
width = 814;
}
);
leftMetricsKey = "=H";
rightMetricsKey = "=H";
unicode = 004D;
},
{
glyphname = N;
lastChange = "2015-09-26 20:51:07 +0000";
layers = (
{
anchors = (
{
name = bottom;
position = "{550, 0}";
},
{
name = top;
position = "{550, 490}";
}
);
background = {
paths = (
{
closed = 1;
nodes = (
"262 12 LINE",
"262 490 LINE",
"237 490 LINE",
"237 12 LINE"
);
},
{
closed = 1;
nodes = (
"218 490 LINE",
"909 -26 LINE",
"909 477 LINE",
"884 477 LINE",
"884 24 LINE",
"262 490 LINE"
);
},
{
closed = 1;
nodes = (
"262 490 LINE",
"56 490 LINE",
"56 467 LINE",
"262 467 LINE"
);
},
{
closed = 1;
nodes = (
"1090 467 LINE",
"1090 490 LINE",
"704 490 LINE",
"704 467 LINE"
);
},
{
closed = 1;
nodes = (
"56 23 LINE",
"56 0 LINE",
"442 0 LINE",
"442 23 LINE"
);
}
);
};
layerId = "B29C398E-974A-40D0-A0A0-00935056D4B4";
name = "Light Extended";
paths = (
{
closed = 1;
nodes = (
"262 12 LINE",
"262 520 LINE",
"237 520 LINE",
"237 12 LINE"
);
},
{
closed = 1;
nodes = (
"218 520 LINE",
"909 -26 LINE",
"909 507 LINE",
"884 507 LINE",
"884 24 LINE",
"262 520 LINE"
);
},
{
closed = 1;
nodes = (
"262 520 LINE",
"56 520 LINE",
"56 497 LINE",
"262 497 LINE"
);
},
{
closed = 1;
nodes = (
"1090 497 LINE",
"1090 520 LINE",
"704 520 LINE",
"704 497 LINE"
);
},
{
closed = 1;
nodes = (
"56 23 LINE",
"56 0 LINE",
"442 0 LINE",
"442 23 LINE"
);
}
);
width = 1100;
},
{
anchors = (
{
name = bottom;
position = "{380, 20}";
},
{
name = top;
position = "{380, 490}";
}
);
layerId = "FA480B27-EBBD-4830-9868-98507D39050C";
name = Bold;
paths = (
{
closed = 1;
nodes = (
"222 12 LINE",
"222 520 LINE",
"125 520 LINE",
"125 12 LINE"
);
},
{
closed = 1;
nodes = (
"188 520 LINE",
"34 520 LINE",
"34 437 LINE",
"188 437 LINE"
);
},
{
closed = 1;
nodes = (
"719 437 LINE",
"719 520 LINE",
"435 520 LINE",
"435 437 LINE"
);
},
{
closed = 1;
nodes = (
"34 83 LINE",
"34 0 LINE",
"318 0 LINE",
"318 83 LINE"
);
},
{
closed = 1;
nodes = (
"625 -4 LINE",
"625 507 LINE",
"528 507 LINE",
"528 174 LINE",
"242 520 LINE",
"106 520 LINE",
"576 -5 LINE"
);
}
);
width = 724;
},
{
layerId = "543F9737-16F7-428D-9F96-2EBD9FC8D3B6";
name = Light;
width = 420;
}
);
leftMetricsKey = "=H";
unicode = 004E;
},
{
glyphname = Eng;
lastChange = "2015-08-27 00:35:44 +0000";
layers = (
{
layerId = "B29C398E-974A-40D0-A0A0-00935056D4B4";
name = "Light Extended";
paths = (
{
closed = 1;
nodes = (
"262 12 LINE",
"262 490 LINE",
"237 490 LINE",
"237 12 LINE"
);
},
{
closed = 1;
nodes = (
"218 490 LINE",
"909 -23 LINE",
"909 477 LINE",
"884 477 LINE",
"884 24 LINE",
"262 490 LINE"
);
},
{
closed = 1;
nodes = (
"262 490 LINE",
"56 490 LINE",
"56 467 LINE",
"262 467 LINE"
);
},
{
closed = 1;
nodes = (
"1090 467 LINE",
"1090 490 LINE",
"704 490 LINE",
"704 467 LINE"
);
},
{
closed = 1;
nodes = (
"56 23 LINE",
"56 0 LINE",
"442 0 LINE",
"442 23 LINE"
);
},
{
closed = 1;
nodes = (
"495 -141 LINE",
"562 -175 OFFCURVE",
"639 -210 OFFCURVE",
"732 -210 CURVE SMOOTH",
"834 -210 OFFCURVE",
"909 -145 OFFCURVE",
"909 -24 CURVE SMOOTH",
"909 477 LINE",
"884 477 LINE",
"884 -24 LINE SMOOTH",
"884 -142 OFFCURVE",
"808 -187 OFFCURVE",
"732 -187 CURVE SMOOTH",
"656 -187 OFFCURVE",
"574 -154 OFFCURVE",
"506 -119 CURVE"
);
}
);
width = 1118;
},
{
layerId = "FA480B27-EBBD-4830-9868-98507D39050C";
name = Bold;
width = 420;
},
{
layerId = "543F9737-16F7-428D-9F96-2EBD9FC8D3B6";
name = Light;
width = 420;
}
);
leftMetricsKey = "=N";
rightMetricsKey = "=J";
unicode = 014A;
},
{
color = 5;
glyphname = O;
lastChange = "2015-09-26 20:57:25 +0000";
layers = (
{
anchors = (
{
name = bottom;
position = "{453, -10}";
},
{
name = center;
position = "{453, 245}";
},
{
name = ogonek;
position = "{455, -8}";
},
{
name = top;
position = "{453, 530}";
},
{
name = topright;
position = "{886, 490}";
}
);
background = {
paths = (
{
closed = 1;
nodes = (
"669 -20 OFFCURVE",
"836 78 OFFCURVE",
"836 248 CURVE",
"836 417 OFFCURVE",
"669 516 OFFCURVE",
"453 516 CURVE",
"237 516 OFFCURVE",
"70 417 OFFCURVE",
"70 248 CURVE",
"70 78 OFFCURVE",
"237 -20 OFFCURVE",
"453 -20 CURVE"
);
},
{
closed = 1;
nodes = (
"247 3 OFFCURVE",
"95 96 OFFCURVE",
"95 248 CURVE",
"95 400 OFFCURVE",
"247 493 OFFCURVE",
"453 493 CURVE",
"658 493 OFFCURVE",
"811 400 OFFCURVE",
"811 248 CURVE",
"811 96 OFFCURVE",
"658 3 OFFCURVE",
"453 3 CURVE"
);
}
);
};
layerId = "B29C398E-974A-40D0-A0A0-00935056D4B4";
name = "Light Extended";
paths = (
{
closed = 1;
nodes = (
"669 -10 OFFCURVE",
"836 88 OFFCURVE",
"836 260 CURVE",
"836 431 OFFCURVE",
"669 530 OFFCURVE",
"453 530 CURVE",
"237 530 OFFCURVE",
"70 431 OFFCURVE",
"70 260 CURVE",
"70 88 OFFCURVE",
"237 -10 OFFCURVE",
"453 -10 CURVE"
);
},
{
closed = 1;
nodes = (
"247 13 OFFCURVE",
"95 106 OFFCURVE",
"95 260 CURVE",
"95 414 OFFCURVE",
"247 507 OFFCURVE",
"453 507 CURVE",
"658 507 OFFCURVE",
"811 414 OFFCURVE",
"811 260 CURVE",
"811 106 OFFCURVE",
"658 13 OFFCURVE",
"453 13 CURVE"
);
}
);
width = 906;
},
{
anchors = (
{
name = bottom;
position = "{297, -10}";
},
{
name = center;
position = "{299, 245}";
},
{
name = ogonek;
position = "{339, -10}";
},
{
name = top;
position = "{298, 531}";
},
{
name = topright;
position = "{536, 490}";
}
);
layerId = "FA480B27-EBBD-4830-9868-98507D39050C";
name = Bold;
paths = (
{
closed = 1;
nodes = (
"448 -10 OFFCURVE",
"576 82 OFFCURVE",
"576 260 CURVE",
"576 438 OFFCURVE",
"448 530 OFFCURVE",
"298 530 CURVE SMOOTH",
"148 530 OFFCURVE",
"20 438 OFFCURVE",
"20 260 CURVE",
"20 82 OFFCURVE",
"148 -10 OFFCURVE",
"298 -10 CURVE SMOOTH"
);
},
{
closed = 1;
nodes = (
"195 73 OFFCURVE",
"129 147 OFFCURVE",
"129 260 CURVE",
"129 373 OFFCURVE",
"195 447 OFFCURVE",
"298 447 CURVE SMOOTH",
"401 447 OFFCURVE",
"467 373 OFFCURVE",
"467 260 CURVE",
"467 147 OFFCURVE",
"401 73 OFFCURVE",
"298 73 CURVE SMOOTH"
);
}
);
width = 596;
},
{
anchors = (
{
name = bottom;
position = "{303, -27}";
},
{
name = center;
position = "{303, 245}";
},
{
name = ogonek;
position = "{303, -15}";
},
{
name = top;
position = "{303, 517}";
},
{
name = topright;
position = "{540, 490}";
}
);
layerId = "543F9737-16F7-428D-9F96-2EBD9FC8D3B6";
name = Light;
paths = (
{
closed = 1;
nodes = (
"441 -10 OFFCURVE",
"556 89 OFFCURVE",
"556 260 CURVE",
"556 431 OFFCURVE",
"441 530 OFFCURVE",
"303 530 CURVE",
"164 530 OFFCURVE",
"50 431 OFFCURVE",
"50 260 CURVE",
"50 89 OFFCURVE",
"164 -10 OFFCURVE",
"303 -10 CURVE"
);
},
{
closed = 1;
nodes = (
"174 14 OFFCURVE",
"74 107 OFFCURVE",
"74 260 CURVE",
"74 413 OFFCURVE",
"174 506 OFFCURVE",
"303 506 CURVE",
"431 506 OFFCURVE",
"532 413 OFFCURVE",
"532 260 CURVE",
"532 107 OFFCURVE",
"431 14 OFFCURVE",
"303 14 CURVE"
);
}
);
width = 606;
}
);
unicode = 004F;
},
{
glyphname = OE;
lastChange = "2015-08-27 00:35:44 +0000";
layers = (
{
anchors = (
{
name = bottom;
position = "{685, 0}";
},
{
name = top;
position = "{685, 490}";
}
);
layerId = "B29C398E-974A-40D0-A0A0-00935056D4B4";
name = "Light Extended";
paths = (
{
closed = 1;
nodes = (
"1041 246 LINE",
"1041 269 LINE",
"718 269 LINE",
"718 246 LINE"
);
},
{
closed = 1;
nodes = (
"1054 132 LINE",
"1054 372 LINE",
"1029 372 LINE",
"1029 132 LINE"
);
},
{
closed = 1;
nodes = (
"721 13 LINE",
"721 477 LINE",
"696 477 LINE",
"696 13 LINE"
);
},
{
closed = 1;
nodes = (
"1320 490 LINE",
"414 490 LINE SMOOTH",
"209 490 OFFCURVE",
"70 405 OFFCURVE",
"70 245 CURVE SMOOTH",
"70 85 OFFCURVE",
"209 0 OFFCURVE",
"414 0 CURVE SMOOTH",
"1320 0 LINE",
"1320 186 LINE",
"1296 186 LINE",
"1296 23 LINE",
"414 23 LINE SMOOTH",
"220 23 OFFCURVE",
"95 102 OFFCURVE",
"95 245 CURVE SMOOTH",
"95 388 OFFCURVE",
"220 467 OFFCURVE",
"414 467 CURVE SMOOTH",
"1295 467 LINE",
"1295 307 LINE",
"1320 307 LINE"
);
}
);
width = 1369;
},
{
layerId = "FA480B27-EBBD-4830-9868-98507D39050C";
name = Bold;
width = 420;
},
{
layerId = "543F9737-16F7-428D-9F96-2EBD9FC8D3B6";
name = Light;
width = 420;
}
);
leftMetricsKey = "=O";
rightMetricsKey = "=E";
unicode = 0152;
},
{
color = 5;
glyphname = P;
lastChange = "2015-09-26 20:57:40 +0000";
layers = (
{
anchors = (
{
name = bottom;
position = "{462, 0}";
},
{
name = top;
position = "{462, 520}";
}
);
background = {
paths = (
{
closed = 1;
nodes = (
"263 13 LINE",
"263 477 LINE",
"238 477 LINE",
"238 13 LINE"
);
},
{
closed = 1;
nodes = (
"455 0 LINE",
"455 23 LINE",
"56 23 LINE",
"56 0 LINE"
);
},
{
closed = 1;
nodes = (
"694 193 LINE SMOOTH",
"806 193 OFFCURVE",
"874 258 OFFCURVE",
"874 340 CURVE SMOOTH",
"874 431 OFFCURVE",
"804 490 OFFCURVE",
"694 490 CURVE SMOOTH",
"56 490 LINE",
"56 467 LINE",
"701 467 LINE SMOOTH",
"790 467 OFFCURVE",
"849 415 OFFCURVE",
"849 340 CURVE SMOOTH",
"849 267 OFFCURVE",
"787 216 OFFCURVE",
"701 216 CURVE SMOOTH",
"251 216 LINE",
"251 193 LINE"
);
}
);
};
layerId = "B29C398E-974A-40D0-A0A0-00935056D4B4";
name = "Light Extended";
paths = (
{
closed = 1;
nodes = (
"694 223 LINE SMOOTH",
"806 223 OFFCURVE",
"874 288 OFFCURVE",
"874 370 CURVE SMOOTH",
"874 461 OFFCURVE",
"804 520 OFFCURVE",
"694 520 CURVE SMOOTH",
"56 520 LINE",
"56 497 LINE",
"701 497 LINE SMOOTH",
"790 497 OFFCURVE",
"849 445 OFFCURVE",
"849 370 CURVE SMOOTH",
"849 297 OFFCURVE",
"787 246 OFFCURVE",
"701 246 CURVE SMOOTH",
"251 246 LINE",
"251 223 LINE"
);
},
{
closed = 1;
nodes = (
"455 0 LINE",
"455 23 LINE",
"56 23 LINE",
"56 0 LINE"
);
},
{
closed = 1;
nodes = (
"263 13 LINE",
"263 507 LINE",
"238 507 LINE",
"238 13 LINE"
);
}
);
width = 923;
},
{
anchors = (
{
name = bottom;
position = "{292, 0}";
},
{
name = top;
position = "{292, 520}";
}
);
layerId = "FA480B27-EBBD-4830-9868-98507D39050C";
name = Bold;
paths = (
{
closed = 1;
nodes = (
"364 197 LINE SMOOTH",
"488 197 OFFCURVE",
"570 263 OFFCURVE",
"570 362 CURVE SMOOTH",
"570 457 OFFCURVE",
"488 520 OFFCURVE",
"364 520 CURVE SMOOTH",
"34 520 LINE",
"34 435 LINE",
"359 435 LINE SMOOTH",
"412 435 OFFCURVE",
"466 418 OFFCURVE",
"466 362 CURVE SMOOTH",
"466 297 OFFCURVE",
"409 282 OFFCURVE",
"359 282 CURVE SMOOTH",
"193 282 LINE",
"193 197 LINE"
);
},
{
closed = 1;
nodes = (
"327 0 LINE",
"327 86 LINE",
"34 86 LINE",
"34 0 LINE"
);
},
{
closed = 1;
nodes = (
"226 46 LINE",
"226 475 LINE",
"127 475 LINE",
"127 46 LINE"
);
}
);
width = 590;
},
{
anchors = (
{
name = bottom;
position = "{272, 0}";
},
{
name = top;
position = "{272, 490}";
}
);
layerId = "543F9737-16F7-428D-9F96-2EBD9FC8D3B6";
name = Light;
paths = (
{
closed = 1;
nodes = (
"326 227 LINE SMOOTH",
"443 227 OFFCURVE",
"527 274 OFFCURVE",
"527 374 CURVE SMOOTH",
"527 475 OFFCURVE",
"455 520 OFFCURVE",
"338 520 CURVE SMOOTH",
"30 520 LINE",
"30 497 LINE",
"332 497 LINE SMOOTH",
"434 497 OFFCURVE",
"502 465 OFFCURVE",
"502 373 CURVE SMOOTH",
"502 288 OFFCURVE",
"420 252 OFFCURVE",
"321 251 CURVE SMOOTH",
"159 250 LINE",
"159 227 LINE"
);
},
{
closed = 1;
nodes = (
"293 0 LINE",
"293 23 LINE",
"30 23 LINE",
"30 0 LINE"
);
},
{
closed = 1;
nodes = (
"167 13 LINE",
"167 507 LINE",
"142 507 LINE",
"142 13 LINE"
);
}
);
width = 532;
}
);
leftMetricsKey = "=H";
unicode = 0050;
},
{
glyphname = Thorn;
lastChange = "2015-08-27 00:35:44 +0000";
layers = (
{
anchors = (
{
name = bottom;
position = "{426, 0}";
},
{
name = top;
position = "{426, 490}";
}
);
layerId = "B29C398E-974A-40D0-A0A0-00935056D4B4";
name = "Light Extended";
paths = (
{
closed = 1;
nodes = (
"455 0 LINE",
"455 23 LINE",
"56 23 LINE",
"56 0 LINE"
);
},
{
closed = 1;
nodes = (
"455 0 LINE SMOOTH",
"455 23 LINE SMOOTH",
"56 23 LINE SMOOTH",
"56 0 LINE SMOOTH"
);
},
{
closed = 1;
nodes = (
"238 477 LINE SMOOTH",
"238 13 LINE SMOOTH",
"263 13 LINE SMOOTH",
"263 477 LINE SMOOTH"
);
},
{
closed = 1;
nodes = (
"56 490 LINE SMOOTH",
"56 467 LINE SMOOTH",
"455 467 LINE SMOOTH",
"455 490 LINE SMOOTH"
);
},
{
closed = 1;
nodes = (
"822 312 OFFCURVE",
"764 357 OFFCURVE",
"672 357 CURVE SMOOTH",
"249 357 LINE",
"249 334 LINE",
"679 334 LINE SMOOTH",
"745 334 OFFCURVE",
"797 303 OFFCURVE",
"797 245 CURVE",
"797 187 OFFCURVE",
"745 156 OFFCURVE",
"679 156 CURVE SMOOTH",
"249 156 LINE",
"249 133 LINE",
"672 133 LINE SMOOTH",
"764 133 OFFCURVE",
"822 178 OFFCURVE",
"822 245 CURVE"
);
}
);
width = 852;
},
{
layerId = "FA480B27-EBBD-4830-9868-98507D39050C";
name = Bold;
width = 420;
},
{
layerId = "543F9737-16F7-428D-9F96-2EBD9FC8D3B6";
name = Light;
width = 420;
}
);
leftMetricsKey = "=P";
unicode = 00DE;
},
{
glyphname = Q;
lastChange = "2015-09-26 21:00:25 +0000";
layers = (
{
anchors = (
{
name = bottom;
position = "{451, -10}";
},
{
name = top;
position = "{451, 530}";
}
);
background = {
paths = (
{
closed = 1;
nodes = (
"669 -20 OFFCURVE",
"836 78 OFFCURVE",
"836 248 CURVE",
"836 417 OFFCURVE",
"669 516 OFFCURVE",
"453 516 CURVE",
"237 516 OFFCURVE",
"70 417 OFFCURVE",
"70 248 CURVE",
"70 78 OFFCURVE",
"237 -20 OFFCURVE",
"453 -20 CURVE"
);
},
{
closed = 1;
nodes = (
"247 3 OFFCURVE",
"95 96 OFFCURVE",
"95 248 CURVE",
"95 400 OFFCURVE",
"247 493 OFFCURVE",
"453 493 CURVE",
"658 493 OFFCURVE",
"811 400 OFFCURVE",
"811 248 CURVE",
"811 96 OFFCURVE",
"658 3 OFFCURVE",
"453 3 CURVE"
);
}
);
};
layerId = "B29C398E-974A-40D0-A0A0-00935056D4B4";
name = "Light Extended";
paths = (
{
closed = 1;
nodes = (
"874 -9 LINE",
"864 -87 OFFCURVE",
"808 -135 OFFCURVE",
"731 -135 CURVE SMOOTH",
"646 -135 OFFCURVE",
"588 -71 OFFCURVE",
"510 23 CURVE SMOOTH",
"417 134 OFFCURVE",
"350 223 OFFCURVE",
"174 223 CURVE SMOOTH",
"93 223 LINE",
"93 200 LINE",
"174 200 LINE SMOOTH",
"336 200 OFFCURVE",
"404 113 OFFCURVE",
"485 17 CURVE SMOOTH",
"575 -93 OFFCURVE",
"634 -158 OFFCURVE",
"731 -158 CURVE SMOOTH",
"823 -158 OFFCURVE",
"886 -99 OFFCURVE",
"897 -13 CURVE"
);
},
{
closed = 1;
nodes = (
"669 -10 OFFCURVE",
"836 88 OFFCURVE",
"836 260 CURVE",
"836 431 OFFCURVE",
"669 530 OFFCURVE",
"453 530 CURVE",
"237 530 OFFCURVE",
"70 431 OFFCURVE",
"70 260 CURVE",
"70 88 OFFCURVE",
"237 -10 OFFCURVE",
"453 -10 CURVE"
);
},
{
closed = 1;
nodes = (
"247 13 OFFCURVE",
"95 106 OFFCURVE",
"95 260 CURVE",
"95 414 OFFCURVE",
"247 507 OFFCURVE",
"453 507 CURVE",
"658 507 OFFCURVE",
"811 414 OFFCURVE",
"811 260 CURVE",
"811 106 OFFCURVE",
"658 13 OFFCURVE",
"453 13 CURVE"
);
}
);
width = 932;
},
{
anchors = (
{
name = bottom;
position = "{297, -10}";
},
{
name = top;
position = "{297, 530}";
}
);
background = {
paths = (
{
closed = 1;
nodes = (
"620 -9 LINE",
"613 -87 OFFCURVE",
"571 -135 OFFCURVE",
"512 -135 CURVE SMOOTH",
"449 -135 OFFCURVE",
"405 -71 OFFCURVE",
"347 23 CURVE SMOOTH",
"276 134 OFFCURVE",
"226 193 OFFCURVE",
"94 193 CURVE SMOOTH",
"32 193 LINE",
"32 170 LINE",
"94 170 LINE SMOOTH",
"215 170 OFFCURVE",
"266 113 OFFCURVE",
"327 17 CURVE SMOOTH",
"396 -93 OFFCURVE",
"440 -158 OFFCURVE",
"512 -158 CURVE SMOOTH",
"582 -158 OFFCURVE",
"629 -99 OFFCURVE",
"638 -13 CURVE"
);
},
{
closed = 1;
nodes = (
"466 -20 OFFCURVE",
"592 78 OFFCURVE",
"592 248 CURVE",
"592 417 OFFCURVE",
"466 516 OFFCURVE",
"304 516 CURVE",
"141 516 OFFCURVE",
"16 417 OFFCURVE",
"16 248 CURVE",
"16 78 OFFCURVE",
"141 -20 OFFCURVE",
"304 -20 CURVE"
);
},
{
closed = 1;
nodes = (
"149 3 OFFCURVE",
"34 96 OFFCURVE",
"34 248 CURVE",
"34 400 OFFCURVE",
"149 493 OFFCURVE",
"304 493 CURVE",
"457 493 OFFCURVE",
"573 400 OFFCURVE",
"573 248 CURVE",
"573 96 OFFCURVE",
"457 3 OFFCURVE",
"304 3 CURVE"
);
}
);
};
layerId = "FA480B27-EBBD-4830-9868-98507D39050C";
name = Bold;
paths = (
{
closed = 1;
nodes = (
"567 -9 LINE",
"563 -46 OFFCURVE",
"549 -75 OFFCURVE",
"511 -75 CURVE SMOOTH",
"469 -75 OFFCURVE",
"440 -25 OFFCURVE",
"404 78 CURVE SMOOTH",
"356 215 OFFCURVE",
"281 282 OFFCURVE",
"146 282 CURVE SMOOTH",
"94 282 LINE",
"94 199 LINE",
"146 199 LINE SMOOTH",
"254 199 OFFCURVE",
"277 155 OFFCURVE",
"324 33 CURVE SMOOTH",
"369 -83 OFFCURVE",
"417 -158 OFFCURVE",
"508 -158 CURVE SMOOTH",
"586 -158 OFFCURVE",
"634 -100 OFFCURVE",
"640 -20 CURVE"
);
},
{
closed = 1;
nodes = (
"448 -10 OFFCURVE",
"576 82 OFFCURVE",
"576 260 CURVE",
"576 438 OFFCURVE",
"448 530 OFFCURVE",
"298 530 CURVE SMOOTH",
"148 530 OFFCURVE",
"20 438 OFFCURVE",
"20 260 CURVE",
"20 82 OFFCURVE",
"148 -10 OFFCURVE",
"298 -10 CURVE SMOOTH"
);
},
{
closed = 1;
nodes = (
"401 447 OFFCURVE",
"467 373 OFFCURVE",
"467 260 CURVE",
"467 147 OFFCURVE",
"401 73 OFFCURVE",
"298 73 CURVE SMOOTH",
"195 73 OFFCURVE",
"129 147 OFFCURVE",
"129 260 CURVE",
"129 373 OFFCURVE",
"195 447 OFFCURVE",
"298 447 CURVE SMOOTH"
);
}
);
width = 615;
},
{
layerId = "543F9737-16F7-428D-9F96-2EBD9FC8D3B6";
name = Light;
width = 420;
}
);
leftMetricsKey = "=O";
unicode = 0051;
},
{
color = 6;
glyphname = Q.alt;
lastChange = "2015-09-26 21:00:38 +0000";
layers = (
{
anchors = (
{
name = bottom;
position = "{451, -10}";
},
{
name = top;
position = "{451, 530}";
}
);
background = {
paths = (
{
closed = 1;
nodes = (
"538 196 OFFCURVE",
"428 265 OFFCURVE",
"130 265 CURVE SMOOTH",
"83 265 LINE",
"83 242 LINE",
"130 242 LINE SMOOTH",
"395 242 OFFCURVE",
"507 191 OFFCURVE",
"661 -1 CURVE SMOOTH",
"830 -214 OFFCURVE",
"952 -351 OFFCURVE",
"1156 -351 CURVE SMOOTH",
"1296 -351 OFFCURVE",
"1387 -305 OFFCURVE",
"1465 -234 CURVE",
"1449 -216 LINE",
"1378 -281 OFFCURVE",
"1292 -328 OFFCURVE",
"1156 -328 CURVE SMOOTH",
"973 -328 OFFCURVE",
"853 -205 OFFCURVE",
"692 0 CURVE SMOOTH"
);
},
{
closed = 1;
nodes = (
"669 -20 OFFCURVE",
"836 78 OFFCURVE",
"836 248 CURVE",
"836 417 OFFCURVE",
"669 516 OFFCURVE",
"453 516 CURVE",
"237 516 OFFCURVE",
"70 417 OFFCURVE",
"70 248 CURVE",
"70 78 OFFCURVE",
"237 -20 OFFCURVE",
"453 -20 CURVE"
);
},
{
closed = 1;
nodes = (
"247 3 OFFCURVE",
"95 96 OFFCURVE",
"95 248 CURVE",
"95 400 OFFCURVE",
"247 493 OFFCURVE",
"453 493 CURVE",
"658 493 OFFCURVE",
"811 400 OFFCURVE",
"811 248 CURVE",
"811 96 OFFCURVE",
"658 3 OFFCURVE",
"453 3 CURVE"
);
}
);
};
guideLines = (
{
position = "{603, 27}";
}
);
layerId = "B29C398E-974A-40D0-A0A0-00935056D4B4";
name = "Light Extended";
paths = (
{
closed = 1;
nodes = (
"552 185 OFFCURVE",
"428 265 OFFCURVE",
"180 265 CURVE SMOOTH",
"83 265 LINE",
"83 242 LINE",
"180 242 LINE SMOOTH",
"407 242 OFFCURVE",
"527 174 OFFCURVE",
"681 19 CURVE SMOOTH",
"883 -185 OFFCURVE",
"1022 -280 OFFCURVE",
"1212 -280 CURVE SMOOTH",
"1356 -280 OFFCURVE",
"1456 -227 OFFCURVE",
"1522 -184 CURVE",
"1509 -165 LINE",
"1448 -206 OFFCURVE",
"1352 -257 OFFCURVE",
"1212 -257 CURVE SMOOTH",
"1043 -257 OFFCURVE",
"912 -177 OFFCURVE",
"716 20 CURVE SMOOTH"
);
},
{
closed = 1;
nodes = (
"669 -10 OFFCURVE",
"836 88 OFFCURVE",
"836 258 CURVE",
"836 427 OFFCURVE",
"669 526 OFFCURVE",
"453 526 CURVE",
"237 526 OFFCURVE",
"70 427 OFFCURVE",
"70 258 CURVE",
"70 88 OFFCURVE",
"237 -10 OFFCURVE",
"453 -10 CURVE"
);
},
{
closed = 1;
nodes = (
"247 13 OFFCURVE",
"95 106 OFFCURVE",
"95 258 CURVE",
"95 410 OFFCURVE",
"247 503 OFFCURVE",
"453 503 CURVE",
"658 503 OFFCURVE",
"811 410 OFFCURVE",
"811 258 CURVE",
"811 106 OFFCURVE",
"658 13 OFFCURVE",
"453 13 CURVE"
);
}
);
width = 905;
},
{
anchors = (
{
name = bottom;
position = "{317, -10}";
},
{
name = top;
position = "{317, 530}";
}
);
layerId = "FA480B27-EBBD-4830-9868-98507D39050C";
name = Bold;
paths = (
{
closed = 1;
nodes = (
"104 282 LINE",
"104 199 LINE",
"146 199 LINE SMOOTH",
"243 199 OFFCURVE",
"323 194 OFFCURVE",
"447 40 CURVE SMOOTH",
"594 -142 OFFCURVE",
"731 -191 OFFCURVE",
"838 -191 CURVE SMOOTH",
"921 -191 OFFCURVE",
"992 -163 OFFCURVE",
"1039 -134 CURVE",
"997 -53 LINE",
"954 -78 OFFCURVE",
"904 -98 OFFCURVE",
"838 -98 CURVE SMOOTH",
"772 -98 OFFCURVE",
"678 -82 OFFCURVE",
"555 59 CURVE SMOOTH",
"398 239 OFFCURVE",
"326 282 OFFCURVE",
"180 282 CURVE SMOOTH"
);
},
{
closed = 1;
nodes = (
"468 -10 OFFCURVE",
"596 82 OFFCURVE",
"596 260 CURVE",
"596 438 OFFCURVE",
"468 530 OFFCURVE",
"318 530 CURVE SMOOTH",
"168 530 OFFCURVE",
"40 438 OFFCURVE",
"40 260 CURVE",
"40 82 OFFCURVE",
"168 -10 OFFCURVE",
"318 -10 CURVE SMOOTH"
);
},
{
closed = 1;
nodes = (
"215 73 OFFCURVE",
"149 147 OFFCURVE",
"149 260 CURVE",
"149 373 OFFCURVE",
"215 447 OFFCURVE",
"318 447 CURVE SMOOTH",
"421 447 OFFCURVE",
"487 373 OFFCURVE",
"487 260 CURVE",
"487 147 OFFCURVE",
"421 73 OFFCURVE",
"318 73 CURVE SMOOTH"
);
}
);
width = 634;
},
{
layerId = "543F9737-16F7-428D-9F96-2EBD9FC8D3B6";
name = Light;
width = 420;
}
);
},
{
glyphname = R;
lastChange = "2015-09-26 21:00:57 +0000";
layers = (
{
anchors = (
{
name = bottom;
position = "{564, 0}";
},
{
name = top;
position = "{524, 520}";
}
);
background = {
paths = (
{
closed = 1;
nodes = (
"452 209 LINE SMOOTH",
"536 209 OFFCURVE",
"581 154 OFFCURVE",
"630 95 CURVE SMOOTH",
"685 29 OFFCURVE",
"747 -37 OFFCURVE",
"839 -37 CURVE SMOOTH",
"949 -37 OFFCURVE",
"1012 37 OFFCURVE",
"1012 148 CURVE SMOOTH",
"1012 169 LINE",
"987 169 LINE",
"987 148 LINE SMOOTH",
"987 48 OFFCURVE",
"931 -14 OFFCURVE",
"839 -14 CURVE SMOOTH",
"756 -14 OFFCURVE",
"705 45 OFFCURVE",
"651 108 CURVE SMOOTH",
"588 182 OFFCURVE",
"548 223 OFFCURVE",
"440 223 CURVE SMOOTH",
"258 223 LINE",
"258 209 LINE"
);
},
{
closed = 1;
nodes = (
"263 14 LINE",
"263 477 LINE",
"238 477 LINE",
"238 14 LINE"
);
},
{
closed = 1;
nodes = (
"454 1 LINE",
"454 24 LINE",
"56 23 LINE",
"56 0 LINE"
);
},
{
closed = 1;
nodes = (
"717 211 LINE SMOOTH",
"841 211 OFFCURVE",
"900 279 OFFCURVE",
"900 348 CURVE SMOOTH",
"900 427 OFFCURVE",
"840 490 OFFCURVE",
"717 490 CURVE SMOOTH",
"56 490 LINE",
"56 467 LINE",
"717 467 LINE SMOOTH",
"826 467 OFFCURVE",
"875 411 OFFCURVE",
"875 348 CURVE SMOOTH",
"875 287 OFFCURVE",
"823 232 OFFCURVE",
"717 232 CURVE SMOOTH",
"258 232 LINE",
"258 211 LINE"
);
}
);
};
layerId = "B29C398E-974A-40D0-A0A0-00935056D4B4";
name = "Light Extended";
paths = (
{
closed = 1;
nodes = (
"452 239 LINE SMOOTH",
"536 239 OFFCURVE",
"581 169 OFFCURVE",
"630 110 CURVE SMOOTH",
"685 44 OFFCURVE",
"747 -37 OFFCURVE",
"839 -37 CURVE SMOOTH",
"949 -37 OFFCURVE",
"1012 37 OFFCURVE",
"1012 148 CURVE SMOOTH",
"1012 169 LINE",
"987 169 LINE",
"987 148 LINE SMOOTH",
"987 48 OFFCURVE",
"931 -14 OFFCURVE",
"839 -14 CURVE SMOOTH",
"756 -14 OFFCURVE",
"705 60 OFFCURVE",
"651 123 CURVE SMOOTH",
"588 197 OFFCURVE",
"548 253 OFFCURVE",
"440 253 CURVE SMOOTH",
"258 253 LINE",
"258 239 LINE"
);
},
{
closed = 1;
nodes = (
"263 13 LINE",
"263 507 LINE",
"238 507 LINE",
"238 13 LINE"
);
},
{
closed = 1;
nodes = (
"454 0 LINE",
"454 23 LINE",
"56 22 LINE",
"56 -1 LINE"
);
},
{
closed = 1;
nodes = (
"717 241 LINE SMOOTH",
"841 241 OFFCURVE",
"900 309 OFFCURVE",
"900 378 CURVE SMOOTH",
"900 457 OFFCURVE",
"840 520 OFFCURVE",
"717 520 CURVE SMOOTH",
"56 520 LINE",
"56 497 LINE",
"717 497 LINE SMOOTH",
"826 497 OFFCURVE",
"875 441 OFFCURVE",
"875 378 CURVE SMOOTH",
"875 317 OFFCURVE",
"823 262 OFFCURVE",
"717 262 CURVE SMOOTH",
"258 262 LINE",
"258 241 LINE"
);
}
);
width = 1047;
},
{
anchors = (
{
name = bottom;
position = "{364, 0}";
},
{
name = top;
position = "{324, 520}";
}
);
background = {
paths = (
{
closed = 1;
nodes = (
"622 48 LINE",
"622 445 LINE",
"523 445 LINE",
"523 48 LINE"
);
}
);
};
layerId = "FA480B27-EBBD-4830-9868-98507D39050C";
name = Bold;
paths = (
{
closed = 1;
nodes = (
"317 0 LINE",
"317 86 LINE",
"34 86 LINE",
"34 0 LINE"
);
},
{
closed = 1;
nodes = (
"226 46 LINE",
"226 472 LINE",
"127 472 LINE",
"127 46 LINE"
);
},
{
closed = 1;
nodes = (
"559 155 LINE",
"559 130 LINE SMOOTH",
"559 101 OFFCURVE",
"548 77 OFFCURVE",
"519 77 CURVE SMOOTH",
"492 77 OFFCURVE",
"478 98 OFFCURVE",
"457 136 CURVE SMOOTH",
"433 180 OFFCURVE",
"404 238 OFFCURVE",
"332 238 CURVE SMOOTH",
"250 238 LINE",
"250 221 LINE",
"282 221 LINE SMOOTH",
"319 221 OFFCURVE",
"325 175 OFFCURVE",
"357 117 CURVE SMOOTH",
"389 60 OFFCURVE",
"426 -11 OFFCURVE",
"516 -11 CURVE SMOOTH",
"602 -11 OFFCURVE",
"650 55 OFFCURVE",
"650 132 CURVE SMOOTH",
"650 155 LINE"
);
},
{
closed = 1;
nodes = (
"34 520 LINE",
"34 435 LINE",
"367 435 LINE SMOOTH",
"415 435 OFFCURVE",
"461 418 OFFCURVE",
"461 371 CURVE SMOOTH",
"461 319 OFFCURVE",
"412 299 OFFCURVE",
"367 299 CURVE SMOOTH",
"193 299 LINE",
"193 221 LINE",
"372 221 LINE SMOOTH",
"501 221 OFFCURVE",
"565 299 OFFCURVE",
"565 371 CURVE SMOOTH",
"565 457 OFFCURVE",
"500 520 OFFCURVE",
"372 520 CURVE SMOOTH"
);
}
);
width = 650;
},
{
layerId = "543F9737-16F7-428D-9F96-2EBD9FC8D3B6";
name = Light;
width = 420;
}
);
leftMetricsKey = "=H";
unicode = 0052;
},
{
color = 6;
glyphname = R.alt;
lastChange = "2015-09-26 21:02:06 +0000";
layers = (
{
anchors = (
{
name = bottom;
position = "{447, 0}";
},
{
name = top;
position = "{447, 520}";
}
);
background = {
paths = (
{
closed = 1;
nodes = (
"263 18 LINE",
"263 475 LINE",
"238 475 LINE",
"238 18 LINE"
);
},
{
closed = 1;
nodes = (
"456 0 LINE",
"456 23 LINE",
"56 23 LINE",
"56 0 LINE"
);
},
{
closed = 1;
nodes = (
"613 213 LINE SMOOTH",
"729 213 OFFCURVE",
"815 264 OFFCURVE",
"815 350 CURVE SMOOTH",
"815 433 OFFCURVE",
"754 490 OFFCURVE",
"638 490 CURVE SMOOTH",
"56 490 LINE",
"56 467 LINE",
"638 467 LINE SMOOTH",
"741 467 OFFCURVE",
"790 417 OFFCURVE",
"790 350 CURVE SMOOTH",
"790 276 OFFCURVE",
"711 236 OFFCURVE",
"613 236 CURVE SMOOTH",
"251 236 LINE",
"251 213 LINE"
);
},
{
closed = 1;
nodes = (
"302 225 LINE",
"281 213 LINE",
"403 213 LINE SMOOTH",
"566 213 OFFCURVE",
"642 173 OFFCURVE",
"762 -8 CURVE SMOOTH",
"904 -223 OFFCURVE",
"1051 -353 OFFCURVE",
"1266 -353 CURVE SMOOTH",
"1433 -353 OFFCURVE",
"1537 -286 OFFCURVE",
"1595 -248 CURVE",
"1584 -229 LINE",
"1531 -265 OFFCURVE",
"1429 -330 OFFCURVE",
"1266 -330 CURVE SMOOTH",
"1072 -330 OFFCURVE",
"928 -214 OFFCURVE",
"790 -7 CURVE SMOOTH",
"672 170 OFFCURVE",
"610 225 OFFCURVE",
"405 225 CURVE SMOOTH"
);
}
);
};
guideLines = (
{
position = "{475, -263}";
}
);
layerId = "B29C398E-974A-40D0-A0A0-00935056D4B4";
name = "Light Extended";
paths = (
{
closed = 1;
nodes = (
"263 18 LINE",
"263 505 LINE",
"238 505 LINE",
"238 18 LINE"
);
},
{
closed = 1;
nodes = (
"456 0 LINE",
"456 23 LINE",
"56 23 LINE",
"56 0 LINE"
);
},
{
closed = 1;
nodes = (
"251 247 LINE",
"252 233 LINE",
"403 233 LINE SMOOTH",
"566 233 OFFCURVE",
"627 187 OFFCURVE",
"762 12 CURVE SMOOTH",
"885 -147 OFFCURVE",
"1031 -280 OFFCURVE",
"1246 -280 CURVE SMOOTH",
"1413 -280 OFFCURVE",
"1508 -214 OFFCURVE",
"1566 -176 CURVE",
"1554 -156 LINE",
"1501 -192 OFFCURVE",
"1409 -257 OFFCURVE",
"1246 -257 CURVE SMOOTH",
"1052 -257 OFFCURVE",
"914 -143 OFFCURVE",
"795 13 CURVE SMOOTH",
"660 189 OFFCURVE",
"593 247 OFFCURVE",
"405 247 CURVE SMOOTH"
);
},
{
closed = 1;
nodes = (
"631 234 LINE SMOOTH",
"755 234 OFFCURVE",
"814 303 OFFCURVE",
"814 378 CURVE SMOOTH",
"814 462 OFFCURVE",
"754 520 OFFCURVE",
"631 520 CURVE SMOOTH",
"56 520 LINE",
"56 497 LINE",
"631 497 LINE SMOOTH",
"740 497 OFFCURVE",
"789 446 OFFCURVE",
"789 378 CURVE SMOOTH",
"789 311 OFFCURVE",
"737 255 OFFCURVE",
"631 255 CURVE SMOOTH",
"258 255 LINE",
"258 234 LINE"
);
}
);
width = 893;
},
{
anchors = (
{
name = bottom;
position = "{364, 0}";
},
{
name = top;
position = "{324, 520}";
}
);
layerId = "FA480B27-EBBD-4830-9868-98507D39050C";
name = Bold;
paths = (
{
closed = 1;
nodes = (
"322 0 LINE",
"322 86 LINE",
"39 86 LINE",
"39 0 LINE"
);
},
{
closed = 1;
nodes = (
"231 46 LINE",
"231 472 LINE",
"132 472 LINE",
"132 46 LINE"
);
},
{
closed = 1;
nodes = (
"1020 -50 LINE",
"973 -78 OFFCURVE",
"928 -98 OFFCURVE",
"862 -98 CURVE SMOOTH",
"772 -98 OFFCURVE",
"676 -70 OFFCURVE",
"596 59 CURVE SMOOTH",
"518 184 OFFCURVE",
"459 233 OFFCURVE",
"387 233 CURVE SMOOTH",
"255 233 LINE",
"255 216 LINE",
"307 216 LINE SMOOTH",
"364 216 OFFCURVE",
"390 189 OFFCURVE",
"486 40 CURVE SMOOTH",
"591 -124 OFFCURVE",
"706 -191 OFFCURVE",
"849 -191 CURVE SMOOTH",
"940 -191 OFFCURVE",
"1011 -163 OFFCURVE",
"1059 -134 CURVE"
);
},
{
closed = 1;
nodes = (
"39 520 LINE",
"39 435 LINE",
"372 435 LINE SMOOTH",
"420 435 OFFCURVE",
"466 418 OFFCURVE",
"466 368 CURVE SMOOTH",
"466 309 OFFCURVE",
"417 294 OFFCURVE",
"372 294 CURVE SMOOTH",
"198 294 LINE",
"198 216 LINE",
"377 216 LINE SMOOTH",
"506 216 OFFCURVE",
"570 289 OFFCURVE",
"570 368 CURVE SMOOTH",
"570 457 OFFCURVE",
"505 520 OFFCURVE",
"377 520 CURVE SMOOTH"
);
}
);
width = 644;
},
{
layerId = "543F9737-16F7-428D-9F96-2EBD9FC8D3B6";
name = Light;
width = 420;
}
);
},
{
glyphname = S;
lastChange = "2015-09-26 21:02:30 +0000";
layers = (
{
anchors = (
{
name = bottom;
position = "{464, -10}";
},
{
name = top;
position = "{444, 530}";
}
);
background = {
paths = (
{
closed = 1;
nodes = (
"237 494 OFFCURVE",
"136 450 OFFCURVE",
"136 375 CURVE SMOOTH",
"136 305 OFFCURVE",
"221 281 OFFCURVE",
"424 258 CURVE SMOOTH",
"658 232 OFFCURVE",
"771 218 OFFCURVE",
"771 119 CURVE SMOOTH",
"771 20 OFFCURVE",
"652 -20 OFFCURVE",
"491 -20 CURVE",
"319 -20 OFFCURVE",
"165 55 OFFCURVE",
"112 120 CURVE",
"134 120 LINE",
"134 0 LINE",
"109 0 LINE",
"109 158 LINE",
"185 64 OFFCURVE",
"343 3 OFFCURVE",
"492 3 CURVE",
"636 3 OFFCURVE",
"747 43 OFFCURVE",
"747 119 CURVE SMOOTH",
"747 196 OFFCURVE",
"652 209 OFFCURVE",
"423 234 CURVE SMOOTH",
"206 257 OFFCURVE",
"111 281 OFFCURVE",
"111 375 CURVE SMOOTH",
"111 466 OFFCURVE",
"211 517 OFFCURVE",
"368 517 CURVE",
"567 517 OFFCURVE",
"680 440 OFFCURVE",
"732 375 CURVE",
"711 375 LINE",
"711 490 LINE",
"736 490 LINE",
"736 338 LINE",
"659 431 OFFCURVE",
"543 494 OFFCURVE",
"366 494 CURVE"
);
}
);
};
layerId = "B29C398E-974A-40D0-A0A0-00935056D4B4";
name = "Light Extended";
paths = (
{
closed = 1;
nodes = (
"132 0 LINE",
"132 140 LINE",
"117 140 LINE",
"190 65 OFFCURVE",
"354 -10 OFFCURVE",
"526 -10 CURVE SMOOTH",
"667 -10 OFFCURVE",
"771 34 OFFCURVE",
"771 124 CURVE SMOOTH",
"771 218 OFFCURVE",
"673 249 OFFCURVE",
"434 268 CURVE SMOOTH",
"211 286 OFFCURVE",
"136 316 OFFCURVE",
"136 386 CURVE SMOOTH",
"136 468 OFFCURVE",
"227 507 OFFCURVE",
"366 507 CURVE SMOOTH",
"533 507 OFFCURVE",
"639 444 OFFCURVE",
"736 341 CURVE",
"736 520 LINE",
"713 520 LINE",
"713 378 LINE",
"727 378 LINE",
"655 453 OFFCURVE",
"552 530 OFFCURVE",
"368 530 CURVE SMOOTH",
"206 530 OFFCURVE",
"111 479 OFFCURVE",
"111 386 CURVE SMOOTH",
"111 305 OFFCURVE",
"188 261 OFFCURVE",
"433 244 CURVE SMOOTH",
"659 228 OFFCURVE",
"747 201 OFFCURVE",
"747 124 CURVE SMOOTH",
"747 47 OFFCURVE",
"651 13 OFFCURVE",
"527 13 CURVE SMOOTH",
"378 13 OFFCURVE",
"205 74 OFFCURVE",
"109 178 CURVE",
"109 0 LINE"
);
}
);
width = 848;
},
{
anchors = (
{
name = bottom;
position = "{304, -10}";
},
{
name = top;
position = "{284, 530}";
}
);
background = {
paths = (
{
closed = 1;
nodes = (
"460 -10 OFFCURVE",
"535 45 OFFCURVE",
"535 134 CURVE SMOOTH",
"535 231 OFFCURVE",
"447 275 OFFCURVE",
"323 307 CURVE SMOOTH",
"209 336 OFFCURVE",
"165 353 OFFCURVE",
"165 388 CURVE SMOOTH",
"165 426 OFFCURVE",
"196 447 OFFCURVE",
"242 447 CURVE SMOOTH",
"333 447 OFFCURVE",
"414 399 OFFCURVE",
"489 307 CURVE",
"509 311 LINE",
"509 520 LINE",
"415 520 LINE",
"415 402 LINE",
"467 398 LINE",
"412 475 OFFCURVE",
"340 530 OFFCURVE",
"227 530 CURVE SMOOTH",
"126 530 OFFCURVE",
"56 472 OFFCURVE",
"56 382 CURVE SMOOTH",
"56 303 OFFCURVE",
"110 245 OFFCURVE",
"240 213 CURVE SMOOTH",
"376 180 OFFCURVE",
"426 161 OFFCURVE",
"426 124 CURVE SMOOTH",
"426 85 OFFCURVE",
"389 71 OFFCURVE",
"342 71 CURVE SMOOTH",
"262 71 OFFCURVE",
"150 116 OFFCURVE",
"78 218 CURVE",
"55 214 LINE",
"55 1 LINE",
"149 1 LINE",
"149 117 LINE",
"91 123 LINE",
"159 49 OFFCURVE",
"236 -10 OFFCURVE",
"352 -10 CURVE SMOOTH"
);
}
);
};
layerId = "FA480B27-EBBD-4830-9868-98507D39050C";
name = Bold;
paths = (
{
closed = 1;
nodes = (
"460 -10 OFFCURVE",
"535 45 OFFCURVE",
"535 134 CURVE SMOOTH",
"535 231 OFFCURVE",
"447 275 OFFCURVE",
"323 307 CURVE SMOOTH",
"209 336 OFFCURVE",
"165 353 OFFCURVE",
"165 388 CURVE SMOOTH",
"165 426 OFFCURVE",
"196 447 OFFCURVE",
"252 447 CURVE SMOOTH",
"333 447 OFFCURVE",
"409 399 OFFCURVE",
"449 337 CURVE",
"509 341 LINE",
"509 520 LINE",
"415 520 LINE",
"415 402 LINE",
"467 398 LINE",
"412 475 OFFCURVE",
"335 530 OFFCURVE",
"232 530 CURVE SMOOTH",
"126 530 OFFCURVE",
"56 472 OFFCURVE",
"56 382 CURVE SMOOTH",
"56 303 OFFCURVE",
"110 245 OFFCURVE",
"240 213 CURVE SMOOTH",
"376 180 OFFCURVE",
"426 161 OFFCURVE",
"426 124 CURVE SMOOTH",
"426 85 OFFCURVE",
"389 71 OFFCURVE",
"342 71 CURVE SMOOTH",
"262 71 OFFCURVE",
"175 116 OFFCURVE",
"118 188 CURVE",
"55 184 LINE",
"55 1 LINE",
"149 1 LINE",
"149 117 LINE",
"91 123 LINE",
"159 49 OFFCURVE",
"242 -10 OFFCURVE",
"352 -10 CURVE SMOOTH"
);
}
);
width = 575;
},
{
layerId = "543F9737-16F7-428D-9F96-2EBD9FC8D3B6";
name = Light;
width = 420;
}
);
unicode = 0053;
},
{
glyphname = Germandbls;
lastChange = "2015-08-27 00:35:44 +0000";
layers = (
{
anchors = (
{
name = bottom;
position = "{481, 0}";
},
{
name = top;
position = "{481, 520}";
}
);
layerId = "B29C398E-974A-40D0-A0A0-00935056D4B4";
name = "Light Extended";
paths = (
{
closed = 1;
nodes = (
"502 238 LINE",
"817 215 OFFCURVE",
"881 160 OFFCURVE",
"881 98 CURVE SMOOTH",
"881 37 OFFCURVE",
"810 3 OFFCURVE",
"726 3 CURVE SMOOTH",
"612 3 OFFCURVE",
"484 64 OFFCURVE",
"388 168 CURVE",
"388 0 LINE",
"411 0 LINE",
"411 130 LINE",
"396 130 LINE",
"469 55 OFFCURVE",
"588 -20 OFFCURVE",
"725 -20 CURVE SMOOTH",
"826 -20 OFFCURVE",
"905 24 OFFCURVE",
"905 98 CURVE SMOOTH",
"905 182 OFFCURVE",
"809 234 OFFCURVE",
"555 253 CURVE",
"873 499 LINE",
"860 518 LINE"
);
},
{
closed = 1;
nodes = (
"219 0 LINE",
"219 23 LINE",
"20 23 LINE",
"20 0 LINE"
);
},
{
closed = 1;
nodes = (
"732 400 LINE",
"667 458 OFFCURVE",
"575 518 OFFCURVE",
"452 518 CURVE SMOOTH",
"297 518 OFFCURVE",
"202 424 OFFCURVE",
"202 286 CURVE SMOOTH",
"202 0 LINE",
"227 0 LINE",
"227 288 LINE SMOOTH",
"227 410 OFFCURVE",
"314 495 OFFCURVE",
"450 495 CURVE SMOOTH",
"571 495 OFFCURVE",
"648 441 OFFCURVE",
"713 385 CURVE"
);
}
);
width = 961;
},
{
layerId = "FA480B27-EBBD-4830-9868-98507D39050C";
name = Bold;
width = 420;
},
{
layerId = "543F9737-16F7-428D-9F96-2EBD9FC8D3B6";
name = Light;
width = 420;
}
);
unicode = 1E9E;
},
{
color = 5;
glyphname = T;
lastChange = "2015-09-26 21:02:45 +0000";
layers = (
{
anchors = (
{
name = bottom;
position = "{410, 0}";
},
{
name = center;
position = "{410, 245}";
},
{
name = top;
position = "{410, 520}";
}
);
layerId = "B29C398E-974A-40D0-A0A0-00935056D4B4";
name = "Light Extended";
paths = (
{
closed = 1;
nodes = (
"64 337 LINE",
"64 497 LINE",
"755 497 LINE",
"755 337 LINE",
"780 337 LINE",
"780 520 LINE",
"39 520 LINE",
"39 337 LINE"
);
},
{
closed = 1;
nodes = (
"614 0 LINE",
"614 23 LINE",
"204 23 LINE",
"204 0 LINE"
);
},
{
closed = 1;
nodes = (
"422 13 LINE",
"422 507 LINE",
"397 507 LINE",
"397 13 LINE"
);
}
);
width = 819;
},
{
anchors = (
{
name = bottom;
position = "{300, 0}";
},
{
name = center;
position = "{300, 245}";
},
{
name = top;
position = "{300, 520}";
}
);
layerId = "FA480B27-EBBD-4830-9868-98507D39050C";
name = Bold;
paths = (
{
closed = 1;
nodes = (
"113 327 LINE",
"113 437 LINE",
"491 437 LINE",
"491 327 LINE",
"584 327 LINE",
"584 520 LINE",
"20 520 LINE",
"20 327 LINE"
);
},
{
closed = 1;
nodes = (
"438 0 LINE",
"438 85 LINE",
"166 85 LINE",
"166 0 LINE"
);
},
{
closed = 1;
nodes = (
"351 53 LINE",
"351 474 LINE",
"253 474 LINE",
"253 53 LINE"
);
}
);
width = 604;
},
{
anchors = (
{
name = bottom;
position = "{250, 0}";
},
{
name = center;
position = "{250, 245}";
},
{
name = top;
position = "{250, 490}";
}
);
layerId = "543F9737-16F7-428D-9F96-2EBD9FC8D3B6";
name = Light;
paths = (
{
closed = 1;
nodes = (
"30 366 LINE",
"30 497 LINE",
"479 497 LINE",
"479 366 LINE",
"504 366 LINE",
"504 520 LINE",
"5 520 LINE",
"5 366 LINE"
);
},
{
closed = 1;
nodes = (
"393 0 LINE",
"393 23 LINE",
"116 23 LINE",
"116 0 LINE"
);
},
{
closed = 1;
nodes = (
"267 13 LINE",
"267 507 LINE",
"242 507 LINE",
"242 13 LINE"
);
}
);
width = 509;
}
);
unicode = 0054;
},
{
glyphname = Tbar;
lastChange = "2015-08-27 00:35:44 +0000";
layers = (
{
components = (
{
name = T;
}
);
layerId = "B29C398E-974A-40D0-A0A0-00935056D4B4";
name = "Light Extended";
paths = (
{
closed = 1;
nodes = (
"115 226 LINE",
"115 204 LINE",
"704 204 LINE",
"704 226 LINE"
);
}
);
width = 819;
},
{
layerId = "FA480B27-EBBD-4830-9868-98507D39050C";
name = Bold;
width = 420;
},
{
layerId = "543F9737-16F7-428D-9F96-2EBD9FC8D3B6";
name = Light;
width = 420;
}
);
unicode = 0166;
},
{
glyphname = U;
lastChange = "2015-09-26 21:03:30 +0000";
layers = (
{
anchors = (
{
name = bottom;
position = "{512, -10}";
},
{
name = ogonek;
position = "{521, -9}";
},
{
name = top;
position = "{512, 490}";
},
{
name = topright;
position = "{1003, 490}";
}
);
background = {
paths = (
{
closed = 1;
nodes = (
"846 160 LINE SMOOTH",
"846 133 OFFCURVE",
"838 108 OFFCURVE",
"821 85 CURVE SMOOTH",
"797 51 OFFCURVE",
"756 22 OFFCURVE",
"704 1 CURVE SMOOTH",
"653 -19 OFFCURVE",
"592 -31 OFFCURVE",
"529 -31 CURVE SMOOTH",
"451 -31 OFFCURVE",
"373 -10 OFFCURVE",
"316 25 CURVE SMOOTH",
"287 41 OFFCURVE",
"263 62 OFFCURVE",
"247 85 CURVE SMOOTH",
"231 108 OFFCURVE",
"223 133 OFFCURVE",
"222 160 CURVE",
"222 477 LINE",
"197 477 LINE",
"197 160 LINE SMOOTH",
"197 127 OFFCURVE",
"207 97 OFFCURVE",
"226 70 CURVE SMOOTH",
"254 31 OFFCURVE",
"299 -1 OFFCURVE",
"352 -22 CURVE SMOOTH",
"406 -44 OFFCURVE",
"467 -57 OFFCURVE",
"529 -57 CURVE SMOOTH",
"617 -57 OFFCURVE",
"701 -35 OFFCURVE",
"765 2 CURVE SMOOTH",
"797 21 OFFCURVE",
"824 43 OFFCURVE",
"842 70 CURVE SMOOTH",
"862 97 OFFCURVE",
"872 127 OFFCURVE",
"872 160 CURVE SMOOTH",
"872 477 LINE",
"846 477 LINE"
);
},
{
closed = 1;
nodes = (
"420 464 LINE",
"420 490 LINE",
"-15 490 LINE",
"-15 464 LINE"
);
},
{
closed = 1;
nodes = (
"1082 464 LINE",
"1082 490 LINE",
"647 490 LINE",
"647 464 LINE"
);
}
);
};
layerId = "B29C398E-974A-40D0-A0A0-00935056D4B4";
name = "Light Extended";
paths = (
{
closed = 1;
nodes = (
"407 497 LINE",
"407 520 LINE",
"14 520 LINE",
"14 497 LINE"
);
},
{
closed = 1;
nodes = (
"705 -10 OFFCURVE",
"830 79 OFFCURVE",
"830 254 CURVE SMOOTH",
"830 507 LINE",
"808 507 LINE",
"805 242 LINE SMOOTH",
"803 89 OFFCURVE",
"686 13 OFFCURVE",
"512 13 CURVE",
"337 13 OFFCURVE",
"220 89 OFFCURVE",
"218 243 CURVE SMOOTH",
"215 507 LINE",
"193 507 LINE",
"193 254 LINE SMOOTH",
"193 79 OFFCURVE",
"319 -10 OFFCURVE",
"512 -10 CURVE"
);
},
{
closed = 1;
nodes = (
"1009 520 LINE",
"616 520 LINE",
"616 497 LINE",
"1009 497 LINE"
);
}
);
width = 1023;
},
{
anchors = (
{
name = bottom;
position = "{337, -10}";
},
{
name = ogonek;
position = "{346, -9}";
},
{
name = top;
position = "{337, 490}";
}
);
layerId = "FA480B27-EBBD-4830-9868-98507D39050C";
name = Bold;
paths = (
{
closed = 1;
nodes = (
"670 435 LINE",
"670 520 LINE",
"386 520 LINE",
"386 435 LINE"
);
},
{
closed = 1;
nodes = (
"479 475 LINE",
"480 210 LINE SMOOTH",
"480 131 OFFCURVE",
"421 77 OFFCURVE",
"335 77 CURVE SMOOTH",
"249 77 OFFCURVE",
"192 130 OFFCURVE",
"192 209 CURVE SMOOTH",
"193 475 LINE",
"93 475 LINE",
"93 204 LINE SMOOTH",
"93 79 OFFCURVE",
"190 -10 OFFCURVE",
"335 -10 CURVE SMOOTH",
"475 -10 OFFCURVE",
"577 79 OFFCURVE",
"577 204 CURVE SMOOTH",
"577 475 LINE"
);
},
{
closed = 1;
nodes = (
"284 520 LINE",
"0 520 LINE",
"0 435 LINE",
"284 435 LINE"
);
}
);
width = 670;
},
{
layerId = "543F9737-16F7-428D-9F96-2EBD9FC8D3B6";
name = Light;
width = 420;
}
);
unicode = 0055;
},
{
glyphname = V;
lastChange = "2015-09-26 21:03:50 +0000";
layers = (
{
anchors = (
{
name = bottom;
position = "{476, 0}";
},
{
name = top;
position = "{476, 490}";
}
);
layerId = "B29C398E-974A-40D0-A0A0-00935056D4B4";
name = "Light Extended";
paths = (
{
closed = 1;
nodes = (
"785 507 LINE",
"476 12 LINE",
"168 507 LINE",
"137 507 LINE",
"475 -31 LINE",
"814 507 LINE"
);
},
{
closed = 1;
nodes = (
"-18 520 LINE",
"-18 497 LINE",
"319 497 LINE",
"319 520 LINE"
);
},
{
closed = 1;
nodes = (
"631 520 LINE",
"631 497 LINE",
"968 497 LINE",
"968 520 LINE"
);
}
);
width = 951;
},
{
anchors = (
{
name = bottom;
position = "{336, 0}";
},
{
name = top;
position = "{336, 490}";
}
);
background = {
paths = (
{
closed = 1;
nodes = (
"539 477 LINE",
"339 117 LINE",
"139 477 LINE",
"29 477 LINE",
"336 -46 LINE",
"644 477 LINE"
);
},
{
closed = 1;
nodes = (
"-20 490 LINE",
"-20 406 LINE",
"247 406 LINE",
"247 490 LINE"
);
},
{
closed = 1;
nodes = (
"426 490 LINE",
"426 406 LINE",
"693 406 LINE",
"693 490 LINE"
);
}
);
};
layerId = "FA480B27-EBBD-4830-9868-98507D39050C";
name = Bold;
paths = (
{
closed = 1;
nodes = (
"0 520 LINE",
"0 435 LINE",
"267 435 LINE",
"267 520 LINE"
);
},
{
closed = 1;
nodes = (
"406 520 LINE",
"406 435 LINE",
"673 435 LINE",
"673 520 LINE"
);
},
{
closed = 1;
nodes = (
"363 -10 LINE",
"624 507 LINE",
"519 507 LINE",
"339 110 LINE",
"159 507 LINE",
"49 507 LINE",
"309 -10 LINE"
);
}
);
width = 673;
},
{
layerId = "543F9737-16F7-428D-9F96-2EBD9FC8D3B6";
name = Light;
width = 420;
}
);
unicode = 0056;
},
{
glyphname = W;
lastChange = "2015-09-26 21:04:04 +0000";
layers = (
{
anchors = (
{
name = bottom;
position = "{619, 0}";
},
{
name = top;
position = "{619, 490}";
}
);
background = {
paths = (
{
closed = 1;
nodes = (
"748 477 LINE",
"440 13 LINE",
"172 477 LINE",
"143 477 LINE",
"437 -31 LINE",
"775 477 LINE"
);
},
{
closed = 1;
nodes = (
"-14 490 LINE",
"-14 468 LINE",
"309 468 LINE",
"309 490 LINE"
);
},
{
closed = 1;
nodes = (
"383 490 LINE",
"383 468 LINE",
"853 468 LINE",
"853 490 LINE"
);
},
{
closed = 1;
nodes = (
"1070 477 LINE",
"801 13 LINE",
"493 477 LINE",
"465 477 LINE",
"801 -31 LINE",
"1095 477 LINE"
);
},
{
closed = 1;
nodes = (
"929 490 LINE",
"929 468 LINE",
"1252 468 LINE",
"1252 490 LINE"
);
}
);
};
layerId = "B29C398E-974A-40D0-A0A0-00935056D4B4";
name = "Light Extended";
paths = (
{
closed = 1;
nodes = (
"748 507 LINE",
"440 13 LINE",
"172 507 LINE",
"143 507 LINE",
"437 -31 LINE",
"775 507 LINE"
);
},
{
closed = 1;
nodes = (
"-14 520 LINE",
"-14 498 LINE",
"309 498 LINE",
"309 520 LINE"
);
},
{
closed = 1;
nodes = (
"383 520 LINE",
"383 498 LINE",
"853 498 LINE",
"853 520 LINE"
);
},
{
closed = 1;
nodes = (
"1070 507 LINE",
"801 13 LINE",
"493 507 LINE",
"465 507 LINE",
"801 -31 LINE",
"1095 507 LINE"
);
},
{
closed = 1;
nodes = (
"929 520 LINE",
"929 498 LINE",
"1252 498 LINE",
"1252 520 LINE"
);
}
);
width = 1238;
},
{
anchors = (
{
name = bottom;
position = "{439, 0}";
},
{
name = top;
position = "{439, 490}";
}
);
background = {
paths = (
{
closed = 1;
nodes = (
"5 490 LINE",
"5 405 LINE",
"252 405 LINE",
"252 490 LINE"
);
},
{
closed = 1;
nodes = (
"315 490 LINE",
"315 405 LINE",
"582 405 LINE",
"582 490 LINE"
);
},
{
closed = 1;
nodes = (
"318 -3 LINE",
"559 477 LINE",
"464 477 LINE",
"297 131 LINE",
"149 477 LINE",
"39 477 LINE",
"260 -3 LINE"
);
},
{
closed = 1;
nodes = (
"317 490 LINE",
"317 405 LINE",
"564 405 LINE",
"564 490 LINE"
);
},
{
closed = 1;
nodes = (
"627 490 LINE",
"627 405 LINE",
"894 405 LINE",
"894 490 LINE"
);
},
{
closed = 1;
nodes = (
"620 -3 LINE",
"861 477 LINE",
"766 477 LINE",
"599 131 LINE",
"496 357 LINE",
"408 333 LINE",
"562 -3 LINE"
);
}
);
};
layerId = "FA480B27-EBBD-4830-9868-98507D39050C";
name = Bold;
paths = (
{
closed = 1;
nodes = (
"5 520 LINE",
"5 435 LINE",
"252 435 LINE",
"252 520 LINE"
);
},
{
closed = 1;
nodes = (
"315 520 LINE",
"315 435 LINE",
"582 435 LINE",
"582 520 LINE"
);
},
{
closed = 1;
nodes = (
"318 -10 LINE",
"559 507 LINE",
"464 507 LINE",
"297 124 LINE",
"149 507 LINE",
"39 507 LINE",
"260 -10 LINE"
);
},
{
closed = 1;
nodes = (
"317 520 LINE",
"317 435 LINE",
"564 435 LINE",
"564 520 LINE"
);
},
{
closed = 1;
nodes = (
"627 520 LINE",
"627 435 LINE",
"894 435 LINE",
"894 520 LINE"
);
},
{
closed = 1;
nodes = (
"620 -10 LINE",
"861 507 LINE",
"766 507 LINE",
"599 124 LINE",
"485 381 LINE",
"408 333 LINE",
"562 -10 LINE"
);
}
);
width = 899;
},
{
layerId = "543F9737-16F7-428D-9F96-2EBD9FC8D3B6";
name = Light;
width = 420;
}
);
unicode = 0057;
},
{
glyphname = X;
lastChange = "2015-09-26 21:04:21 +0000";
layers = (
{
anchors = (
{
name = bottom;
position = "{455, 0}";
},
{
name = top;
position = "{455, 490}";
}
);
background = {
paths = (
{
closed = 1;
nodes = (
"25 490 LINE",
"25 467 LINE",
"362 467 LINE",
"362 490 LINE SMOOTH"
);
},
{
closed = 1;
nodes = (
"885 0 LINE",
"885 23 LINE",
"549 23 LINE",
"549 0 LINE"
);
},
{
closed = 1;
nodes = (
"739 12 LINE",
"466 246 LINE",
"463 246 LINE",
"194 477 LINE",
"157 477 LINE",
"444 231 LINE",
"447 231 LINE",
"702 12 LINE"
);
},
{
closed = 1;
nodes = (
"548 467 LINE",
"885 467 LINE",
"885 490 LINE",
"548 490 LINE SMOOTH"
);
},
{
closed = 1;
nodes = (
"361 23 LINE",
"25 23 LINE",
"25 0 LINE",
"361 0 LINE"
);
},
{
closed = 1;
nodes = (
"463 231 LINE",
"466 231 LINE",
"753 477 LINE",
"718 477 LINE",
"449 246 LINE",
"446 246 LINE",
"173 12 LINE",
"208 12 LINE"
);
}
);
};
layerId = "B29C398E-974A-40D0-A0A0-00935056D4B4";
name = "Light Extended";
paths = (
{
closed = 1;
nodes = (
"25 520 LINE",
"25 497 LINE",
"362 497 LINE",
"362 520 LINE SMOOTH"
);
},
{
closed = 1;
nodes = (
"885 0 LINE",
"885 23 LINE",
"549 23 LINE",
"549 0 LINE"
);
},
{
closed = 1;
nodes = (
"739 12 LINE",
"466 261 LINE",
"463 261 LINE",
"194 507 LINE",
"157 507 LINE",
"444 246 LINE",
"447 246 LINE",
"702 12 LINE"
);
},
{
closed = 1;
nodes = (
"548 497 LINE",
"885 497 LINE",
"885 520 LINE",
"548 520 LINE SMOOTH"
);
},
{
closed = 1;
nodes = (
"361 23 LINE",
"25 23 LINE",
"25 0 LINE",
"361 0 LINE"
);
},
{
closed = 1;
nodes = (
"463 246 LINE",
"466 246 LINE",
"753 507 LINE",
"718 507 LINE",
"449 261 LINE",
"446 261 LINE",
"173 12 LINE",
"208 12 LINE"
);
}
);
width = 910;
},
{
anchors = (
{
name = bottom;
position = "{326, 0}";
},
{
name = top;
position = "{326, 490}";
}
);
background = {
paths = (
{
closed = 1;
nodes = (
"301 213 LINE",
"464 67 LINE",
"595 67 LINE",
"366 272 LINE",
"354 272 LINE",
"185 424 LINE",
"54 424 LINE",
"289 213 LINE"
);
},
{
closed = 1;
nodes = (
"645 86 LINE",
"382 86 LINE",
"382 0 LINE",
"645 0 LINE"
);
},
{
closed = 1;
nodes = (
"274 490 LINE",
"10 490 LINE",
"10 405 LINE",
"274 405 LINE"
);
},
{
closed = 1;
nodes = (
"273 0 LINE",
"273 86 LINE",
"10 86 LINE",
"10 0 LINE"
);
},
{
closed = 1;
nodes = (
"645 405 LINE",
"645 490 LINE",
"381 490 LINE",
"381 405 LINE"
);
},
{
closed = 1;
nodes = (
"54 67 LINE",
"182 67 LINE",
"351 219 LINE",
"366 219 LINE",
"595 424 LINE",
"468 424 LINE",
"305 278 LINE",
"289 278 LINE"
);
}
);
};
layerId = "FA480B27-EBBD-4830-9868-98507D39050C";
name = Bold;
paths = (
{
closed = 1;
nodes = (
"301 228 LINE",
"464 67 LINE",
"595 67 LINE",
"366 287 LINE",
"354 287 LINE",
"185 454 LINE",
"54 454 LINE",
"289 228 LINE"
);
},
{
closed = 1;
nodes = (
"645 86 LINE",
"382 86 LINE",
"382 0 LINE",
"645 0 LINE"
);
},
{
closed = 1;
nodes = (
"274 520 LINE",
"10 520 LINE",
"10 435 LINE",
"274 435 LINE"
);
},
{
closed = 1;
nodes = (
"273 0 LINE",
"273 86 LINE",
"10 86 LINE",
"10 0 LINE"
);
},
{
closed = 1;
nodes = (
"645 435 LINE",
"645 520 LINE",
"381 520 LINE",
"381 435 LINE"
);
},
{
closed = 1;
nodes = (
"54 67 LINE",
"182 67 LINE",
"351 234 LINE",
"366 234 LINE",
"595 454 LINE",
"468 454 LINE",
"305 293 LINE",
"289 293 LINE"
);
}
);
width = 655;
},
{
layerId = "543F9737-16F7-428D-9F96-2EBD9FC8D3B6";
name = Light;
width = 420;
}
);
unicode = 0058;
},
{
glyphname = Y;
lastChange = "2015-09-26 21:04:36 +0000";
layers = (
{
anchors = (
{
name = bottom;
position = "{459, 0}";
},
{
name = top;
position = "{459, 490}";
}
);
background = {
paths = (
{
closed = 1;
nodes = (
"320 18 LINE",
"115 18 LINE",
"115 0 LINE",
"338 0 LINE",
"338 106 LINE",
"320 106 LINE"
);
},
{
closed = 1;
nodes = (
"546 0 LINE",
"546 18 LINE",
"328 18 LINE",
"328 0 LINE"
);
},
{
closed = 1;
nodes = (
"515 350 LINE",
"322 112 LINE",
"336 100 LINE",
"523 332 LINE",
"694 332 LINE",
"694 350 LINE"
);
},
{
closed = 1;
nodes = (
"144 350 LINE",
"-36 350 LINE",
"-36 332 LINE",
"135 332 LINE",
"323 100 LINE",
"337 112 LINE"
);
}
);
};
layerId = "B29C398E-974A-40D0-A0A0-00935056D4B4";
name = "Light Extended";
paths = (
{
closed = 1;
nodes = (
"739 518 LINE",
"451 195 LINE",
"468 178 LINE",
"751 495 LINE"
);
},
{
closed = 1;
nodes = (
"178 520 LINE",
"166 495 LINE",
"450 178 LINE",
"470 195 LINE"
);
},
{
closed = 1;
nodes = (
"472 204 LINE",
"447 204 LINE",
"447 0 LINE",
"472 0 LINE"
);
},
{
closed = 1;
nodes = (
"654 0 LINE",
"654 23 LINE",
"265 23 LINE",
"265 0 LINE"
);
},
{
closed = 1;
nodes = (
"578 520 LINE",
"578 497 LINE",
"914 497 LINE",
"914 520 LINE"
);
},
{
closed = 1;
nodes = (
"4 520 LINE",
"4 497 LINE",
"341 497 LINE",
"341 520 LINE"
);
}
);
width = 918;
},
{
anchors = (
{
name = bottom;
position = "{317, 0}";
},
{
name = top;
position = "{317, 490}";
}
);
layerId = "FA480B27-EBBD-4830-9868-98507D39050C";
name = Bold;
paths = (
{
closed = 1;
nodes = (
"10 520 LINE",
"10 435 LINE",
"247 435 LINE",
"247 520 LINE"
);
},
{
closed = 1;
nodes = (
"386 520 LINE",
"386 435 LINE",
"623 435 LINE",
"623 520 LINE"
);
},
{
closed = 1;
nodes = (
"343 180 LINE",
"609 507 LINE",
"496 507 LINE",
"321 280 LINE",
"138 507 LINE",
"19 507 LINE",
"289 180 LINE"
);
},
{
closed = 1;
nodes = (
"367 244 LINE",
"267 244 LINE",
"267 0 LINE",
"367 0 LINE"
);
},
{
closed = 1;
nodes = (
"462 0 LINE",
"462 83 LINE",
"172 83 LINE",
"172 0 LINE"
);
}
);
width = 633;
},
{
layerId = "543F9737-16F7-428D-9F96-2EBD9FC8D3B6";
name = Light;
width = 420;
}
);
unicode = 0059;
},
{
glyphname = Z;
lastChange = "2015-09-26 21:04:51 +0000";
layers = (
{
anchors = (
{
name = bottom;
position = "{382, 0}";
},
{
name = top;
position = "{382, 520}";
}
);
layerId = "B29C398E-974A-40D0-A0A0-00935056D4B4";
name = "Light Extended";
paths = (
{
closed = 1;
nodes = (
"686 183 LINE",
"711 183 LINE",
"711 0 LINE",
"56 0 LINE",
"56 13 LINE",
"638 488 LINE",
"668 499 LINE",
"668 500 LINE",
"638 497 LINE",
"78 497 LINE",
"78 337 LINE",
"53 337 LINE",
"53 520 LINE",
"707 520 LINE",
"707 507 LINE",
"125 32 LINE",
"95 21 LINE",
"95 20 LINE",
"125 23 LINE",
"686 23 LINE"
);
}
);
width = 763;
},
{
anchors = (
{
name = bottom;
position = "{292, 0}";
},
{
name = top;
position = "{292, 520}";
}
);
layerId = "FA480B27-EBBD-4830-9868-98507D39050C";
name = Bold;
paths = (
{
closed = 1;
nodes = (
"435 183 LINE",
"528 183 LINE",
"528 0 LINE",
"33 0 LINE",
"33 73 LINE",
"435 488 LINE",
"485 499 LINE",
"485 500 LINE",
"455 437 LINE",
"123 437 LINE",
"123 337 LINE",
"30 337 LINE",
"30 520 LINE",
"524 520 LINE",
"524 447 LINE",
"122 32 LINE",
"72 21 LINE",
"72 20 LINE",
"102 83 LINE",
"435 83 LINE"
);
}
);
width = 558;
},
{
layerId = "543F9737-16F7-428D-9F96-2EBD9FC8D3B6";
name = Light;
width = 420;
}
);
unicode = 005A;
},
{
color = 5;
glyphname = a;
lastChange = "2015-09-26 21:07:18 +0000";
layers = (
{
anchors = (
{
name = bottom;
position = "{384, -10}";
},
{
name = ogonek;
position = "{735, 0}";
},
{
name = top;
position = "{364, 367}";
}
);
background = {
paths = (
{
closed = 1;
nodes = (
"627 98 LINE",
"627 32 OFFCURVE",
"674 -16 OFFCURVE",
"737 -16 CURVE SMOOTH",
"827 -16 OFFCURVE",
"855 63 OFFCURVE",
"855 116 CURVE",
"830 116 LINE",
"830 60 OFFCURVE",
"803 8 OFFCURVE",
"739 8 CURVE SMOOTH",
"693 8 OFFCURVE",
"651 43 OFFCURVE",
"651 98 CURVE",
"651 207 LINE",
"651 307 OFFCURVE",
"594 377 OFFCURVE",
"450 377 CURVE",
"337 377 OFFCURVE",
"224 364 OFFCURVE",
"99 336 CURVE",
"99 310 LINE",
"225 339 OFFCURVE",
"337 353 OFFCURVE",
"450 353 CURVE",
"581 353 OFFCURVE",
"627 291 OFFCURVE",
"627 207 CURVE"
);
},
{
closed = 1;
nodes = (
"70 15 OFFCURVE",
"144 -20 OFFCURVE",
"244 -20 CURVE",
"373 -20 OFFCURVE",
"515 22 OFFCURVE",
"637 77 CURVE",
"637 100 LINE",
"510 46 OFFCURVE",
"371 4 OFFCURVE",
"244 4 CURVE",
"159 4 OFFCURVE",
"95 32 OFFCURVE",
"95 99 CURVE",
"95 167 OFFCURVE",
"186 205 OFFCURVE",
"302 205 CURVE",
"407 205 OFFCURVE",
"528 185 OFFCURVE",
"637 157 CURVE",
"637 181 LINE",
"528 207 OFFCURVE",
"422 229 OFFCURVE",
"302 229 CURVE",
"172 229 OFFCURVE",
"70 185 OFFCURVE",
"70 99 CURVE"
);
}
);
};
layerId = "B29C398E-974A-40D0-A0A0-00935056D4B4";
name = "Light Extended";
paths = (
{
closed = 1;
nodes = (
"92 287 LINE",
"194 319 OFFCURVE",
"291 344 OFFCURVE",
"394 344 CURVE SMOOTH",
"539 344 OFFCURVE",
"602 281 OFFCURVE",
"602 197 CURVE SMOOTH",
"602 93 LINE SMOOTH",
"602 28 OFFCURVE",
"639 -10 OFFCURVE",
"690 -10 CURVE SMOOTH",
"721 -10 OFFCURVE",
"748 2 OFFCURVE",
"772 19 CURVE",
"762 39 LINE",
"739 22 OFFCURVE",
"718 13 OFFCURVE",
"691 13 CURVE SMOOTH",
"658 13 OFFCURVE",
"627 38 OFFCURVE",
"627 93 CURVE SMOOTH",
"627 197 LINE SMOOTH",
"627 297 OFFCURVE",
"552 367 OFFCURVE",
"394 367 CURVE SMOOTH",
"295 367 OFFCURVE",
"193 346 OFFCURVE",
"84 310 CURVE"
);
},
{
closed = 1;
nodes = (
"377 -10 OFFCURVE",
"504 20 OFFCURVE",
"613 76 CURVE",
"613 98 LINE",
"499 44 OFFCURVE",
"375 13 OFFCURVE",
"267 13 CURVE SMOOTH",
"174 13 OFFCURVE",
"95 33 OFFCURVE",
"95 96 CURVE",
"95 162 OFFCURVE",
"187 183 OFFCURVE",
"311 183 CURVE SMOOTH",
"414 183 OFFCURVE",
"526 168 OFFCURVE",
"613 153 CURVE",
"613 176 LINE",
"526 191 OFFCURVE",
"416 206 OFFCURVE",
"295 206 CURVE SMOOTH",
"173 206 OFFCURVE",
"70 178 OFFCURVE",
"70 96 CURVE",
"70 16 OFFCURVE",
"146 -10 OFFCURVE",
"267 -10 CURVE SMOOTH"
);
}
);
width = 767;
},
{
anchors = (
{
name = bottom;
position = "{144, -10}";
},
{
name = ogonek;
position = "{438, 1}";
},
{
name = top;
position = "{214, 367}";
}
);
background = {
paths = (
{
closed = 1;
nodes = (
"208 -11 OFFCURVE",
"271 18 OFFCURVE",
"316 61 CURVE",
"318 126 LINE",
"268 87 OFFCURVE",
"210 70 OFFCURVE",
"178 70 CURVE SMOOTH",
"148 70 OFFCURVE",
"129 79 OFFCURVE",
"129 105 CURVE SMOOTH",
"129 140 OFFCURVE",
"170 147 OFFCURVE",
"207 147 CURVE SMOOTH",
"238 147 OFFCURVE",
"271 143 OFFCURVE",
"318 131 CURVE",
"318 193 LINE",
"274 209 OFFCURVE",
"231 218 OFFCURVE",
"180 218 CURVE SMOOTH",
"101 218 OFFCURVE",
"20 180 OFFCURVE",
"20 101 CURVE SMOOTH",
"20 23 OFFCURVE",
"85 -11 OFFCURVE",
"149 -11 CURVE SMOOTH"
);
}
);
};
guideLines = (
{
position = "{245, 377}";
}
);
layerId = "FA480B27-EBBD-4830-9868-98507D39050C";
name = Bold;
paths = (
{
closed = 1;
nodes = (
"62 248 LINE",
"114 270 OFFCURVE",
"164 283 OFFCURVE",
"209 283 CURVE SMOOTH",
"256 283 OFFCURVE",
"297 266 OFFCURVE",
"297 225 CURVE SMOOTH",
"297 90 LINE SMOOTH",
"297 27 OFFCURVE",
"337 -6 OFFCURVE",
"389 -6 CURVE SMOOTH",
"407 -6 OFFCURVE",
"423 -3 OFFCURVE",
"438 1 CURVE",
"438 82 LINE",
"431 79 OFFCURVE",
"426 78 OFFCURVE",
"419 78 CURVE SMOOTH",
"407 78 OFFCURVE",
"395 84 OFFCURVE",
"395 110 CURVE SMOOTH",
"395 221 LINE SMOOTH",
"395 310 OFFCURVE",
"337 366 OFFCURVE",
"228 366 CURVE SMOOTH",
"161 366 OFFCURVE",
"104 351 OFFCURVE",
"40 323 CURVE"
);
},
{
closed = 1;
nodes = (
"208 -11 OFFCURVE",
"271 18 OFFCURVE",
"316 61 CURVE",
"318 126 LINE",
"268 87 OFFCURVE",
"210 70 OFFCURVE",
"178 70 CURVE SMOOTH",
"148 70 OFFCURVE",
"129 79 OFFCURVE",
"129 105 CURVE SMOOTH",
"129 140 OFFCURVE",
"170 147 OFFCURVE",
"207 147 CURVE SMOOTH",
"238 147 OFFCURVE",
"271 143 OFFCURVE",
"318 131 CURVE",
"318 193 LINE",
"274 209 OFFCURVE",
"231 218 OFFCURVE",
"180 218 CURVE SMOOTH",
"101 218 OFFCURVE",
"20 180 OFFCURVE",
"20 101 CURVE SMOOTH",
"20 23 OFFCURVE",
"85 -11 OFFCURVE",
"149 -11 CURVE SMOOTH"
);
}
);
width = 443;
},
{
anchors = (
{
name = bottom;
position = "{265, -20}";
},
{
name = ogonek;
position = "{449, 9}";
},
{
name = top;
position = "{265, 377}";
}
);
background = {
paths = (
{
closed = 1;
nodes = (
"205 -11 OFFCURVE",
"268 18 OFFCURVE",
"313 61 CURVE",
"315 126 LINE",
"265 87 OFFCURVE",
"207 70 OFFCURVE",
"175 70 CURVE SMOOTH",
"145 70 OFFCURVE",
"126 79 OFFCURVE",
"126 105 CURVE SMOOTH",
"126 140 OFFCURVE",
"167 147 OFFCURVE",
"204 147 CURVE SMOOTH",
"235 147 OFFCURVE",
"268 143 OFFCURVE",
"315 131 CURVE",
"315 193 LINE",
"271 209 OFFCURVE",
"228 218 OFFCURVE",
"177 218 CURVE SMOOTH",
"98 218 OFFCURVE",
"17 180 OFFCURVE",
"17 101 CURVE SMOOTH",
"17 23 OFFCURVE",
"82 -11 OFFCURVE",
"146 -11 CURVE SMOOTH"
);
},
{
closed = 1;
nodes = (
"59 248 LINE",
"111 270 OFFCURVE",
"161 283 OFFCURVE",
"206 283 CURVE SMOOTH",
"253 283 OFFCURVE",
"294 266 OFFCURVE",
"294 225 CURVE SMOOTH",
"294 90 LINE SMOOTH",
"294 27 OFFCURVE",
"334 -6 OFFCURVE",
"386 -6 CURVE SMOOTH",
"404 -6 OFFCURVE",
"420 -3 OFFCURVE",
"435 1 CURVE",
"435 82 LINE",
"428 79 OFFCURVE",
"423 78 OFFCURVE",
"416 78 CURVE SMOOTH",
"404 78 OFFCURVE",
"392 84 OFFCURVE",
"392 110 CURVE SMOOTH",
"392 221 LINE SMOOTH",
"392 310 OFFCURVE",
"334 366 OFFCURVE",
"225 366 CURVE SMOOTH",
"158 366 OFFCURVE",
"101 351 OFFCURVE",
"37 323 CURVE"
);
}
);
};
layerId = "543F9737-16F7-428D-9F96-2EBD9FC8D3B6";
name = Light;
paths = (
{
closed = 1;
nodes = (
"72 306 LINE",
"118 327 OFFCURVE",
"166 343 OFFCURVE",
"224 343 CURVE SMOOTH",
"281 343 OFFCURVE",
"331 317 OFFCURVE",
"331 233 CURVE SMOOTH",
"331 68 LINE SMOOTH",
"331 18 OFFCURVE",
"350 -10 OFFCURVE",
"387 -10 CURVE SMOOTH",
"404 -10 OFFCURVE",
"418 -5 OFFCURVE",
"427 2 CURVE",
"421 24 LINE",
"414 18 OFFCURVE",
"402 14 OFFCURVE",
"388 14 CURVE SMOOTH",
"369 14 OFFCURVE",
"355 29 OFFCURVE",
"355 68 CURVE SMOOTH",
"355 233 LINE SMOOTH",
"355 333 OFFCURVE",
"294 367 OFFCURVE",
"224 367 CURVE SMOOTH",
"166 367 OFFCURVE",
"112 350 OFFCURVE",
"65 329 CURVE"
);
},
{
closed = 1;
nodes = (
"229 -10 OFFCURVE",
"291 25 OFFCURVE",
"346 67 CURVE",
"346 90 LINE",
"291 46 OFFCURVE",
"232 13 OFFCURVE",
"175 13 CURVE SMOOTH",
"120 13 OFFCURVE",
"70 43 OFFCURVE",
"70 100 CURVE SMOOTH",
"70 161 OFFCURVE",
"130 191 OFFCURVE",
"194 190 CURVE SMOOTH",
"245 189 OFFCURVE",
"291 180 OFFCURVE",
"346 160 CURVE",
"346 183 LINE",
"295 201 OFFCURVE",
"250 213 OFFCURVE",
"194 213 CURVE SMOOTH",
"107 213 OFFCURVE",
"45 168 OFFCURVE",
"45 100 CURVE SMOOTH",
"45 29 OFFCURVE",
"106 -10 OFFCURVE",
"175 -10 CURVE SMOOTH"
);
}
);
width = 452;
}
);
rightMetricsKey = "=n";
unicode = 0061;
},
{
glyphname = a.alt;
lastChange = "2015-09-26 21:11:11 +0000";
layers = (
{
anchors = (
{
name = bottom;
position = "{429, -10}";
},
{
name = ogonek;
position = "{720, -13}";
},
{
name = top;
position = "{429, 367}";
}
);
layerId = "B29C398E-974A-40D0-A0A0-00935056D4B4";
name = "Light Extended";
paths = (
{
closed = 1;
nodes = (
"627 197 LINE SMOOTH",
"627 297 OFFCURVE",
"552 367 OFFCURVE",
"394 367 CURVE SMOOTH",
"295 367 OFFCURVE",
"193 346 OFFCURVE",
"84 310 CURVE",
"92 287 LINE",
"194 319 OFFCURVE",
"291 344 OFFCURVE",
"394 344 CURVE SMOOTH",
"539 344 OFFCURVE",
"602 281 OFFCURVE",
"602 197 CURVE SMOOTH",
"602 98 LINE",
"602 29 OFFCURVE",
"628 -20 OFFCURVE",
"691 -20 CURVE SMOOTH",
"758 -20 OFFCURVE",
"781 39 OFFCURVE",
"781 88 CURVE SMOOTH",
"781 102 LINE",
"756 102 LINE",
"756 88 LINE SMOOTH",
"756 39 OFFCURVE",
"735 3 OFFCURVE",
"693 3 CURVE SMOOTH",
"647 3 OFFCURVE",
"627 39 OFFCURVE",
"627 98 CURVE"
);
},
{
closed = 1;
nodes = (
"377 -10 OFFCURVE",
"504 20 OFFCURVE",
"613 76 CURVE",
"613 98 LINE",
"499 44 OFFCURVE",
"375 13 OFFCURVE",
"267 13 CURVE SMOOTH",
"174 13 OFFCURVE",
"95 33 OFFCURVE",
"95 96 CURVE",
"95 162 OFFCURVE",
"187 183 OFFCURVE",
"311 183 CURVE SMOOTH",
"414 183 OFFCURVE",
"526 168 OFFCURVE",
"613 153 CURVE",
"613 176 LINE",
"526 191 OFFCURVE",
"416 206 OFFCURVE",
"295 206 CURVE SMOOTH",
"173 206 OFFCURVE",
"70 178 OFFCURVE",
"70 96 CURVE",
"70 16 OFFCURVE",
"146 -10 OFFCURVE",
"267 -10 CURVE SMOOTH"
);
}
);
width = 858;
},
{
anchors = (
{
name = bottom;
position = "{232, -10}";
},
{
name = ogonek;
position = "{451, -3}";
},
{
name = top;
position = "{214, 367}";
}
);
background = {
paths = (
{
closed = 0;
nodes = (
"327 72 LINE SMOOTH",
"327 17 OFFCURVE",
"367 -20 OFFCURVE",
"429 -20 CURVE SMOOTH",
"489 -20 OFFCURVE",
"524 13 OFFCURVE",
"524 72 CURVE SMOOTH",
"524 119 LINE",
"473 119 LINE",
"473 71 LINE SMOOTH",
"473 57 OFFCURVE",
"468 45 OFFCURVE",
"454 45 CURVE SMOOTH",
"440 45 OFFCURVE",
"435 57 OFFCURVE",
"435 71 CURVE SMOOTH"
);
}
);
};
guideLines = (
{
position = "{285, 377}";
}
);
layerId = "FA480B27-EBBD-4830-9868-98507D39050C";
name = Bold;
paths = (
{
closed = 1;
nodes = (
"395 221 LINE SMOOTH",
"395 310 OFFCURVE",
"337 366 OFFCURVE",
"228 366 CURVE SMOOTH",
"161 366 OFFCURVE",
"104 351 OFFCURVE",
"40 323 CURVE",
"62 248 LINE",
"114 270 OFFCURVE",
"164 283 OFFCURVE",
"209 283 CURVE SMOOTH",
"256 283 OFFCURVE",
"297 266 OFFCURVE",
"297 225 CURVE SMOOTH",
"297 72 LINE SMOOTH",
"297 17 OFFCURVE",
"332 -20 OFFCURVE",
"394 -20 CURVE SMOOTH",
"444 -20 OFFCURVE",
"484 13 OFFCURVE",
"484 72 CURVE SMOOTH",
"484 119 LINE",
"433 119 LINE",
"433 71 LINE SMOOTH",
"433 57 OFFCURVE",
"428 45 OFFCURVE",
"414 45 CURVE SMOOTH",
"400 45 OFFCURVE",
"395 57 OFFCURVE",
"395 71 CURVE SMOOTH"
);
},
{
closed = 1;
nodes = (
"208 -11 OFFCURVE",
"271 18 OFFCURVE",
"316 61 CURVE",
"318 126 LINE",
"268 87 OFFCURVE",
"210 70 OFFCURVE",
"178 70 CURVE SMOOTH",
"148 70 OFFCURVE",
"129 79 OFFCURVE",
"129 105 CURVE SMOOTH",
"129 140 OFFCURVE",
"170 147 OFFCURVE",
"207 147 CURVE SMOOTH",
"238 147 OFFCURVE",
"271 143 OFFCURVE",
"318 131 CURVE",
"318 193 LINE",
"274 209 OFFCURVE",
"231 218 OFFCURVE",
"180 218 CURVE SMOOTH",
"101 218 OFFCURVE",
"20 180 OFFCURVE",
"20 101 CURVE SMOOTH",
"20 23 OFFCURVE",
"85 -11 OFFCURVE",
"149 -11 CURVE SMOOTH"
);
}
);
width = 534;
},
{
anchors = (
{
name = bottom;
position = "{268, -20}";
},
{
name = ogonek;
position = "{473, -3}";
},
{
name = top;
position = "{268, 377}";
}
);
layerId = "543F9737-16F7-428D-9F96-2EBD9FC8D3B6";
name = Light;
paths = (
{
closed = 1;
nodes = (
"481 -20 OFFCURVE",
"510 13 OFFCURVE",
"510 55 CURVE SMOOTH",
"510 74 LINE",
"487 74 LINE",
"487 55 LINE SMOOTH",
"487 24 OFFCURVE",
"473 4 OFFCURVE",
"441 4 CURVE SMOOTH",
"412 4 OFFCURVE",
"393 22 OFFCURVE",
"393 55 CURVE SMOOTH",
"393 256 LINE",
"393 321 OFFCURVE",
"349 377 OFFCURVE",
"254 377 CURVE",
"211 377 OFFCURVE",
"157 369 OFFCURVE",
"88 350 CURVE",
"88 326 LINE",
"157 346 OFFCURVE",
"211 353 OFFCURVE",
"254 353 CURVE",
"336 353 OFFCURVE",
"369 305 OFFCURVE",
"369 256 CURVE",
"369 55 LINE SMOOTH",
"369 11 OFFCURVE",
"396 -20 OFFCURVE",
"440 -20 CURVE SMOOTH"
);
},
{
closed = 1;
nodes = (
"251 -20 OFFCURVE",
"312 -1 OFFCURVE",
"379 67 CURVE",
"379 86 LINE",
"312 25 OFFCURVE",
"249 4 OFFCURVE",
"200 4 CURVE SMOOTH",
"160 4 OFFCURVE",
"98 29 OFFCURVE",
"98 97 CURVE SMOOTH",
"98 158 OFFCURVE",
"158 191 OFFCURVE",
"216 191 CURVE SMOOTH",
"258 191 OFFCURVE",
"312 187 OFFCURVE",
"379 165 CURVE",
"379 184 LINE",
"316 204 OFFCURVE",
"273 215 OFFCURVE",
"216 215 CURVE SMOOTH",
"151 215 OFFCURVE",
"74 175 OFFCURVE",
"74 97 CURVE SMOOTH",
"74 12 OFFCURVE",
"145 -20 OFFCURVE",
"200 -20 CURVE SMOOTH"
);
}
);
width = 534;
}
);
},
{
color = 5;
glyphname = a.alt2;
lastChange = "2015-09-26 21:12:04 +0000";
layers = (
{
anchors = (
{
name = bottom;
position = "{414, -20}";
},
{
name = ogonek;
position = "{784, -2}";
},
{
name = top;
position = "{414, 377}";
}
);
background = {
paths = (
{
closed = 1;
nodes = (
"785 -20 OFFCURVE",
"808 -8 OFFCURVE",
"832 9 CURVE",
"823 29 LINE",
"799 12 OFFCURVE",
"781 3 OFFCURVE",
"755 3 CURVE SMOOTH",
"722 3 OFFCURVE",
"687 28 OFFCURVE",
"687 84 CURVE",
"687 207 LINE",
"662 207 LINE",
"662 84 LINE",
"662 18 OFFCURVE",
"703 -20 OFFCURVE",
"753 -20 CURVE SMOOTH"
);
},
{
closed = 1;
nodes = (
"687 181 LINE",
"687 357 LINE",
"662 357 LINE",
"662 181 LINE"
);
},
{
closed = 1;
nodes = (
"606 334 OFFCURVE",
"502 376 OFFCURVE",
"372 375 CURVE",
"220 376 OFFCURVE",
"70 300 OFFCURVE",
"70 164 CURVE",
"70 48 OFFCURVE",
"165 -20 OFFCURVE",
"308 -20 CURVE",
"438 -20 OFFCURVE",
"560 44 OFFCURVE",
"676 127 CURVE",
"676 151 LINE",
"551 62 OFFCURVE",
"422 3 OFFCURVE",
"308 3 CURVE",
"175 3 OFFCURVE",
"95 69 OFFCURVE",
"95 164 CURVE",
"95 283 OFFCURVE",
"230 353 OFFCURVE",
"372 352 CURVE",
"491 353 OFFCURVE",
"605 310 OFFCURVE",
"678 270 CURVE",
"678 293 LINE"
);
}
);
};
layerId = "B29C398E-974A-40D0-A0A0-00935056D4B4";
name = "Light Extended";
paths = (
{
closed = 1;
nodes = (
"438 -11 OFFCURVE",
"560 53 OFFCURVE",
"676 137 CURVE",
"676 160 LINE",
"551 72 OFFCURVE",
"422 12 OFFCURVE",
"308 12 CURVE",
"175 12 OFFCURVE",
"95 73 OFFCURVE",
"95 161 CURVE",
"95 271 OFFCURVE",
"221 344 OFFCURVE",
"373 343 CURVE",
"492 344 OFFCURVE",
"605 301 OFFCURVE",
"679 261 CURVE",
"679 283 LINE",
"607 324 OFFCURVE",
"502 366 OFFCURVE",
"373 366 CURVE",
"210 366 OFFCURVE",
"70 289 OFFCURVE",
"70 161 CURVE",
"70 53 OFFCURVE",
"165 -11 OFFCURVE",
"308 -11 CURVE"
);
},
{
closed = 1;
nodes = (
"782 -10 OFFCURVE",
"809 2 OFFCURVE",
"833 19 CURVE",
"823 39 LINE",
"800 22 OFFCURVE",
"779 13 OFFCURVE",
"752 13 CURVE SMOOTH",
"719 13 OFFCURVE",
"688 38 OFFCURVE",
"688 94 CURVE SMOOTH",
"688 357 LINE",
"663 357 LINE",
"663 94 LINE SMOOTH",
"663 28 OFFCURVE",
"700 -10 OFFCURVE",
"751 -10 CURVE SMOOTH"
);
}
);
width = 828;
},
{
anchors = (
{
name = bottom;
position = "{214, -10}";
},
{
name = ogonek;
position = "{481, -4}";
},
{
name = top;
position = "{214, 367}";
}
);
layerId = "FA480B27-EBBD-4830-9868-98507D39050C";
name = Bold;
paths = (
{
closed = 1;
nodes = (
"438 367 LINE",
"339 348 LINE",
"339 85 LINE",
"339 22 OFFCURVE",
"379 -11 OFFCURVE",
"431 -11 CURVE SMOOTH",
"450 -11 OFFCURVE",
"466 -8 OFFCURVE",
"481 -4 CURVE",
"481 77 LINE",
"474 74 OFFCURVE",
"469 73 OFFCURVE",
"462 73 CURVE SMOOTH",
"450 73 OFFCURVE",
"438 79 OFFCURVE",
"438 105 CURVE"
);
},
{
closed = 1;
nodes = (
"363 307 OFFCURVE",
"315 367 OFFCURVE",
"218 367 CURVE SMOOTH",
"104 367 OFFCURVE",
"23 286 OFFCURVE",
"23 176 CURVE SMOOTH",
"23 67 OFFCURVE",
"105 -11 OFFCURVE",
"205 -11 CURVE SMOOTH",
"305 -11 OFFCURVE",
"358 53 OFFCURVE",
"396 92 CURVE",
"396 165 LINE",
"354 123 OFFCURVE",
"300 74 OFFCURVE",
"233 73 CURVE SMOOTH",
"171 72 OFFCURVE",
"132 115 OFFCURVE",
"132 176 CURVE SMOOTH",
"132 239 OFFCURVE",
"176 285 OFFCURVE",
"243 285 CURVE SMOOTH",
"308 285 OFFCURVE",
"362 241 OFFCURVE",
"396 198 CURVE",
"396 265 LINE"
);
}
);
width = 491;
},
{
anchors = (
{
name = bottom;
position = "{209, -20}";
},
{
name = ogonek;
position = "{442, -2}";
},
{
name = top;
position = "{209, 377}";
}
);
background = {
paths = (
{
closed = 1;
nodes = (
"382 83 LINE SMOOTH",
"382 39 OFFCURVE",
"412 8 OFFCURVE",
"456 8 CURVE SMOOTH",
"497 8 OFFCURVE",
"523 45 OFFCURVE",
"523 83 CURVE SMOOTH",
"523 102 LINE",
"501 102 LINE",
"501 83 LINE SMOOTH",
"501 55 OFFCURVE",
"490 32 OFFCURVE",
"457 32 CURVE SMOOTH",
"428 32 OFFCURVE",
"407 50 OFFCURVE",
"407 83 CURVE SMOOTH",
"407 221 LINE",
"382 221 LINE"
);
}
);
};
layerId = "543F9737-16F7-428D-9F96-2EBD9FC8D3B6";
name = Light;
paths = (
{
closed = 1;
nodes = (
"280 -10 OFFCURVE",
"335 31 OFFCURVE",
"372 67 CURVE",
"372 94 LINE",
"330 52 OFFCURVE",
"280 14 OFFCURVE",
"211 13 CURVE SMOOTH",
"133 12 OFFCURVE",
"70 72 OFFCURVE",
"70 171 CURVE SMOOTH",
"70 272 OFFCURVE",
"140 345 OFFCURVE",
"223 345 CURVE SMOOTH",
"290 345 OFFCURVE",
"338 311 OFFCURVE",
"379 268 CURVE",
"379 291 LINE",
"338 333 OFFCURVE",
"290 367 OFFCURVE",
"223 367 CURVE SMOOTH",
"129 367 OFFCURVE",
"45 290 OFFCURVE",
"45 170 CURVE SMOOTH",
"45 59 OFFCURVE",
"120 -10 OFFCURVE",
"211 -10 CURVE SMOOTH"
);
},
{
closed = 1;
nodes = (
"431 -10 OFFCURVE",
"445 -5 OFFCURVE",
"455 2 CURVE",
"449 24 LINE",
"442 18 OFFCURVE",
"429 14 OFFCURVE",
"416 14 CURVE SMOOTH",
"396 14 OFFCURVE",
"383 29 OFFCURVE",
"383 68 CURVE SMOOTH",
"383 357 LINE",
"359 357 LINE",
"359 68 LINE SMOOTH",
"359 18 OFFCURVE",
"378 -10 OFFCURVE",
"415 -10 CURVE SMOOTH"
);
}
);
width = 485;
}
);
leftMetricsKey = "=d";
rightMetricsKey = "=d";
},
{
glyphname = ae;
lastChange = "2015-08-27 00:35:44 +0000";
layers = (
{
anchors = (
{
name = bottom;
position = "{592, -20}";
},
{
name = top;
position = "{592, 377}";
}
);
layerId = "B29C398E-974A-40D0-A0A0-00935056D4B4";
name = "Light Extended";
paths = (
{
closed = 1;
nodes = (
"582 130 LINE",
"582 207 LINE SMOOTH",
"582 307 OFFCURVE",
"522 377 OFFCURVE",
"374 377 CURVE SMOOTH",
"285 377 OFFCURVE",
"193 354 OFFCURVE",
"92 322 CURVE",
"92 297 LINE",
"194 329 OFFCURVE",
"281 354 OFFCURVE",
"374 354 CURVE SMOOTH",
"509 354 OFFCURVE",
"562 291 OFFCURVE",
"562 207 CURVE SMOOTH",
"562 161 LINE"
);
},
{
closed = 1;
nodes = (
"352 -20 OFFCURVE",
"491 21 OFFCURVE",
"590 92 CURVE",
"590 114 LINE",
"486 45 OFFCURVE",
"350 3 OFFCURVE",
"247 3 CURVE",
"174 3 OFFCURVE",
"95 28 OFFCURVE",
"95 89 CURVE",
"95 158 OFFCURVE",
"187 183 OFFCURVE",
"291 183 CURVE SMOOTH",
"384 183 OFFCURVE",
"486 168 OFFCURVE",
"573 153 CURVE",
"573 176 LINE",
"486 191 OFFCURVE",
"386 206 OFFCURVE",
"275 206 CURVE SMOOTH",
"173 206 OFFCURVE",
"70 174 OFFCURVE",
"70 89 CURVE",
"70 11 OFFCURVE",
"146 -20 OFFCURVE",
"247 -20 CURVE"
);
},
{
closed = 1;
nodes = (
"1099 74 LINE",
"1023 30 OFFCURVE",
"932 2 OFFCURVE",
"835 3 CURVE",
"725 2 OFFCURVE",
"586 62 OFFCURVE",
"586 167 CURVE",
"586 290 OFFCURVE",
"746 353 OFFCURVE",
"872 353 CURVE SMOOTH",
"982 353 OFFCURVE",
"1084 324 OFFCURVE",
"1084 258 CURVE SMOOTH",
"1084 192 OFFCURVE",
"975 165 OFFCURVE",
"880 165 CURVE SMOOTH",
"802 165 OFFCURVE",
"671 188 OFFCURVE",
"581 217 CURVE",
"582 194 LINE",
"671 165 OFFCURVE",
"802 142 OFFCURVE",
"880 142 CURVE SMOOTH",
"990 142 OFFCURVE",
"1109 179 OFFCURVE",
"1109 260 CURVE SMOOTH",
"1109 340 OFFCURVE",
"995 376 OFFCURVE",
"876 376 CURVE SMOOTH",
"726 376 OFFCURVE",
"584 303 OFFCURVE",
"574 195 CURVE",
"574 167 LINE",
"562 167 LINE",
"562 41 OFFCURVE",
"716 -20 OFFCURVE",
"835 -20 CURVE",
"936 -20 OFFCURVE",
"1033 9 OFFCURVE",
"1110 55 CURVE"
);
}
);
width = 1184;
},
{
layerId = "FA480B27-EBBD-4830-9868-98507D39050C";
name = Bold;
width = 420;
},
{
layerId = "543F9737-16F7-428D-9F96-2EBD9FC8D3B6";
name = Light;
width = 420;
}
);
leftMetricsKey = "=a";
rightMetricsKey = "=e";
unicode = 00E6;
},
{
color = 5;
glyphname = b;
lastChange = "2015-09-26 21:13:37 +0000";
layers = (
{
anchors = (
{
name = bottom;
position = "{427, -10}";
},
{
name = top;
position = "{427, 367}";
}
);
layerId = "B29C398E-974A-40D0-A0A0-00935056D4B4";
name = "Light Extended";
paths = (
{
closed = 1;
nodes = (
"163 497 LINE",
"163 520 LINE",
"-35 520 LINE",
"-35 497 LINE"
);
},
{
closed = 1;
nodes = (
"396 367 OFFCURVE",
"274 303 OFFCURVE",
"158 219 CURVE",
"158 196 LINE",
"283 284 OFFCURVE",
"412 344 OFFCURVE",
"526 344 CURVE",
"659 344 OFFCURVE",
"739 283 OFFCURVE",
"739 195 CURVE",
"739 85 OFFCURVE",
"613 12 OFFCURVE",
"461 13 CURVE",
"342 12 OFFCURVE",
"229 55 OFFCURVE",
"155 95 CURVE",
"155 73 LINE",
"227 32 OFFCURVE",
"332 -10 OFFCURVE",
"461 -10 CURVE",
"624 -10 OFFCURVE",
"764 67 OFFCURVE",
"764 195 CURVE",
"764 303 OFFCURVE",
"669 367 OFFCURVE",
"526 367 CURVE"
);
},
{
closed = 1;
nodes = (
"172 -11 LINE",
"172 520 LINE",
"147 520 LINE",
"147 -11 LINE"
);
}
);
width = 834;
},
{
anchors = (
{
name = bottom;
position = "{307, -10}";
},
{
name = top;
position = "{307, 367}";
}
);
layerId = "FA480B27-EBBD-4830-9868-98507D39050C";
name = Bold;
paths = (
{
closed = 1;
nodes = (
"167 437 LINE",
"167 520 LINE",
"0 520 LINE",
"0 437 LINE"
);
},
{
closed = 1;
nodes = (
"236 367 OFFCURVE",
"156 298 OFFCURVE",
"121 194 CURVE",
"121 121 LINE",
"156 217 OFFCURVE",
"223 282 OFFCURVE",
"289 283 CURVE SMOOTH",
"346 284 OFFCURVE",
"385 241 OFFCURVE",
"385 180 CURVE SMOOTH",
"385 117 OFFCURVE",
"341 71 OFFCURVE",
"274 71 CURVE SMOOTH",
"209 71 OFFCURVE",
"155 115 OFFCURVE",
"121 158 CURVE",
"121 91 LINE",
"154 49 OFFCURVE",
"202 -11 OFFCURVE",
"299 -11 CURVE SMOOTH",
"413 -11 OFFCURVE",
"494 70 OFFCURVE",
"494 180 CURVE SMOOTH",
"494 289 OFFCURVE",
"417 367 OFFCURVE",
"322 367 CURVE SMOOTH"
);
},
{
closed = 1;
nodes = (
"174 -11 LINE",
"174 520 LINE",
"75 520 LINE",
"75 -11 LINE"
);
}
);
width = 517;
},
{
anchors = (
{
name = bottom;
position = "{287, 0}";
},
{
name = top;
position = "{287, 377}";
}
);
background = {
paths = (
{
closed = 1;
nodes = (
"215 367 OFFCURVE",
"160 326 OFFCURVE",
"123 290 CURVE",
"123 263 LINE",
"165 305 OFFCURVE",
"215 343 OFFCURVE",
"284 344 CURVE SMOOTH",
"362 345 OFFCURVE",
"425 285 OFFCURVE",
"425 186 CURVE SMOOTH",
"425 85 OFFCURVE",
"355 12 OFFCURVE",
"272 12 CURVE SMOOTH",
"205 12 OFFCURVE",
"157 46 OFFCURVE",
"116 89 CURVE",
"116 66 LINE",
"157 24 OFFCURVE",
"205 -10 OFFCURVE",
"272 -10 CURVE SMOOTH",
"366 -10 OFFCURVE",
"450 67 OFFCURVE",
"450 187 CURVE SMOOTH",
"450 298 OFFCURVE",
"375 367 OFFCURVE",
"284 367 CURVE SMOOTH"
);
}
);
};
layerId = "543F9737-16F7-428D-9F96-2EBD9FC8D3B6";
name = Light;
paths = (
{
closed = 1;
nodes = (
"136 497 LINE",
"136 520 LINE",
"20 520 LINE",
"20 497 LINE"
);
},
{
closed = 1;
nodes = (
"215 367 OFFCURVE",
"160 326 OFFCURVE",
"123 290 CURVE",
"123 263 LINE",
"165 305 OFFCURVE",
"215 343 OFFCURVE",
"284 344 CURVE SMOOTH",
"362 345 OFFCURVE",
"425 285 OFFCURVE",
"425 186 CURVE SMOOTH",
"425 85 OFFCURVE",
"355 12 OFFCURVE",
"272 12 CURVE SMOOTH",
"205 12 OFFCURVE",
"157 46 OFFCURVE",
"116 89 CURVE",
"116 66 LINE",
"157 24 OFFCURVE",
"205 -10 OFFCURVE",
"272 -10 CURVE SMOOTH",
"366 -10 OFFCURVE",
"450 67 OFFCURVE",
"450 187 CURVE SMOOTH",
"450 298 OFFCURVE",
"375 367 OFFCURVE",
"284 367 CURVE SMOOTH"
);
},
{
closed = 1;
nodes = (
"136 0 LINE",
"136 519 LINE",
"112 519 LINE",
"112 0 LINE"
);
}
);
width = 495;
}
);
rightMetricsKey = "=o";
unicode = 0062;
},
{
color = 5;
glyphname = c;
lastChange = "2015-09-26 21:14:27 +0000";
layers = (
{
anchors = (
{
name = bottom;
position = "{356, -10}";
},
{
name = top;
position = "{367, 367}";
}
);
layerId = "B29C398E-974A-40D0-A0A0-00935056D4B4";
name = "Light Extended";
paths = (
{
closed = 1;
nodes = (
"490 -9 OFFCURVE",
"589 33 OFFCURVE",
"668 96 CURVE",
"653 114 LINE",
"579 56 OFFCURVE",
"479 13 OFFCURVE",
"355 14 CURVE SMOOTH",
"208 15 OFFCURVE",
"95 78 OFFCURVE",
"95 172 CURVE SMOOTH",
"95 286 OFFCURVE",
"232 345 OFFCURVE",
"365 344 CURVE SMOOTH",
"474 344 OFFCURVE",
"589 306 OFFCURVE",
"662 220 CURVE",
"662 357 LINE",
"639 357 LINE",
"639 257 LINE",
"654 252 LINE",
"603 315 OFFCURVE",
"491 367 OFFCURVE",
"367 367 CURVE SMOOTH",
"222 368 OFFCURVE",
"70 303 OFFCURVE",
"70 172 CURVE SMOOTH",
"70 58 OFFCURVE",
"198 -9 OFFCURVE",
"355 -9 CURVE SMOOTH"
);
}
);
width = 741;
},
{
anchors = (
{
name = bottom;
position = "{216, -10}";
},
{
name = top;
position = "{217, 367}";
}
);
background = {
paths = (
{
closed = 1;
nodes = (
"352 -11 OFFCURVE",
"445 63 OFFCURVE",
"445 178 CURVE",
"445 293 OFFCURVE",
"345 367 OFFCURVE",
"234 367 CURVE",
"120 367 OFFCURVE",
"23 293 OFFCURVE",
"23 178 CURVE",
"23 63 OFFCURVE",
"120 -11 OFFCURVE",
"234 -11 CURVE"
);
},
{
closed = 1;
nodes = (
"175 72 OFFCURVE",
"132 114 OFFCURVE",
"132 178 CURVE",
"132 242 OFFCURVE",
"175 284 OFFCURVE",
"234 284 CURVE",
"293 284 OFFCURVE",
"336 242 OFFCURVE",
"336 178 CURVE",
"336 114 OFFCURVE",
"293 72 OFFCURVE",
"234 72 CURVE"
);
}
);
};
layerId = "FA480B27-EBBD-4830-9868-98507D39050C";
name = Bold;
paths = (
{
closed = 1;
nodes = (
"308 -10 OFFCURVE",
"353 21 OFFCURVE",
"391 55 CURVE",
"344 123 LINE",
"314 95 OFFCURVE",
"284 72 OFFCURVE",
"236 72 CURVE SMOOTH",
"175 72 OFFCURVE",
"132 116 OFFCURVE",
"132 178 CURVE SMOOTH",
"132 244 OFFCURVE",
"180 284 OFFCURVE",
"233 284 CURVE SMOOTH",
"280 284 OFFCURVE",
"308 261 OFFCURVE",
"332 226 CURVE",
"380 229 LINE",
"380 357 LINE",
"311 357 LINE",
"311 285 LINE",
"347 280 LINE",
"317 328 OFFCURVE",
"281 367 OFFCURVE",
"208 367 CURVE SMOOTH",
"116 367 OFFCURVE",
"23 291 OFFCURVE",
"23 178 CURVE SMOOTH",
"23 51 OFFCURVE",
"136 -12 OFFCURVE",
"231 -11 CURVE SMOOTH"
);
}
);
width = 406;
},
{
anchors = (
{
name = bottom;
position = "{231, -20}";
},
{
name = top;
position = "{231, 377}";
}
);
background = {
paths = (
{
closed = 1;
nodes = (
"358 67 LINE",
"324 36 OFFCURVE",
"287 14 OFFCURVE",
"228 13 CURVE SMOOTH",
"147 12 OFFCURVE",
"70 72 OFFCURVE",
"70 167 CURVE SMOOTH",
"70 282 OFFCURVE",
"155 343 OFFCURVE",
"232 343 CURVE SMOOTH",
"300 343 OFFCURVE",
"346 311 OFFCURVE",
"346 257 CURVE SMOOTH",
"346 204 OFFCURVE",
"285 180 OFFCURVE",
"229 180 CURVE SMOOTH",
"169 180 OFFCURVE",
"115 197 OFFCURVE",
"64 215 CURVE",
"65 192 LINE",
"115 174 OFFCURVE",
"169 157 OFFCURVE",
"229 157 CURVE SMOOTH",
"300 157 OFFCURVE",
"371 191 OFFCURVE",
"371 257 CURVE SMOOTH",
"371 322 OFFCURVE",
"313 366 OFFCURVE",
"232 366 CURVE SMOOTH",
"144 366 OFFCURVE",
"45 299 OFFCURVE",
"45 167 CURVE SMOOTH",
"45 51 OFFCURVE",
"137 -10 OFFCURVE",
"228 -10 CURVE SMOOTH",
"291 -10 OFFCURVE",
"335 14 OFFCURVE",
"373 47 CURVE"
);
}
);
};
layerId = "543F9737-16F7-428D-9F96-2EBD9FC8D3B6";
name = Light;
paths = (
{
closed = 1;
nodes = (
"302 -10 OFFCURVE",
"344 18 OFFCURVE",
"383 60 CURVE",
"367 77 LINE",
"331 37 OFFCURVE",
"292 12 OFFCURVE",
"231 13 CURVE SMOOTH",
"151 14 OFFCURVE",
"70 74 OFFCURVE",
"70 174 CURVE SMOOTH",
"70 273 OFFCURVE",
"137 344 OFFCURVE",
"226 344 CURVE SMOOTH",
"298 344 OFFCURVE",
"346 309 OFFCURVE",
"373 237 CURVE",
"385 238 LINE",
"385 357 LINE",
"362 357 LINE",
"362 271 LINE",
"374 264 LINE",
"352 325 OFFCURVE",
"300 366 OFFCURVE",
"226 367 CURVE SMOOTH",
"125 368 OFFCURVE",
"45 285 OFFCURVE",
"45 174 CURVE SMOOTH",
"45 54 OFFCURVE",
"141 -10 OFFCURVE",
"231 -10 CURVE SMOOTH"
);
}
);
width = 415;
}
);
leftMetricsKey = "=o";
unicode = 0063;
},
{
color = 5;
glyphname = d;
lastChange = "2015-09-26 21:15:22 +0000";
layers = (
{
anchors = (
{
name = bottom;
position = "{415, -10}";
},
{
name = center;
position = "{415, 179}";
},
{
name = top;
position = "{415, 367}";
},
{
name = topright;
position = "{808, 357}";
}
);
layerId = "B29C398E-974A-40D0-A0A0-00935056D4B4";
name = "Light Extended";
paths = (
{
closed = 1;
nodes = (
"438 -11 OFFCURVE",
"560 53 OFFCURVE",
"676 137 CURVE",
"676 160 LINE",
"551 72 OFFCURVE",
"422 12 OFFCURVE",
"308 12 CURVE",
"175 12 OFFCURVE",
"95 73 OFFCURVE",
"95 161 CURVE",
"95 271 OFFCURVE",
"221 344 OFFCURVE",
"373 343 CURVE",
"492 344 OFFCURVE",
"605 301 OFFCURVE",
"679 261 CURVE",
"679 283 LINE",
"607 324 OFFCURVE",
"502 366 OFFCURVE",
"373 366 CURVE",
"210 366 OFFCURVE",
"70 289 OFFCURVE",
"70 161 CURVE",
"70 53 OFFCURVE",
"165 -11 OFFCURVE",
"308 -11 CURVE"
);
},
{
closed = 1;
nodes = (
"782 -10 OFFCURVE",
"809 2 OFFCURVE",
"833 19 CURVE",
"823 39 LINE",
"800 22 OFFCURVE",
"779 13 OFFCURVE",
"752 13 CURVE SMOOTH",
"719 13 OFFCURVE",
"688 38 OFFCURVE",
"688 94 CURVE SMOOTH",
"688 520 LINE",
"663 520 LINE",
"663 94 LINE SMOOTH",
"663 28 OFFCURVE",
"700 -10 OFFCURVE",
"751 -10 CURVE SMOOTH"
);
},
{
closed = 1;
nodes = (
"679 497 LINE",
"679 520 LINE",
"480 520 LINE",
"480 497 LINE"
);
}
);
width = 828;
},
{
anchors = (
{
name = bottom;
position = "{215, -10}";
},
{
name = center;
position = "{215, 179}";
},
{
name = top;
position = "{215, 367}";
},
{
name = topright;
position = "{498, 357}";
}
);
background = {
paths = (
{
closed = 1;
nodes = (
"429 477 LINE",
"429 560 LINE",
"240 560 LINE",
"240 477 LINE"
);
},
{
closed = 1;
nodes = (
"340 26 OFFCURVE",
"379 -11 OFFCURVE",
"431 -11 CURVE SMOOTH",
"465 -11 OFFCURVE",
"488 1 OFFCURVE",
"504 12 CURVE",
"483 83 LINE",
"476 76 OFFCURVE",
"467 72 OFFCURVE",
"458 72 CURVE SMOOTH",
"448 72 OFFCURVE",
"439 81 OFFCURVE",
"439 94 CURVE SMOOTH",
"439 560 LINE",
"340 560 LINE",
"340 81 LINE SMOOTH"
);
},
{
closed = 1;
nodes = (
"363 307 OFFCURVE",
"315 367 OFFCURVE",
"218 367 CURVE SMOOTH",
"104 367 OFFCURVE",
"23 286 OFFCURVE",
"23 176 CURVE SMOOTH",
"23 67 OFFCURVE",
"100 -11 OFFCURVE",
"200 -11 CURVE SMOOTH",
"290 -11 OFFCURVE",
"355 58 OFFCURVE",
"396 132 CURVE",
"396 205 LINE",
"354 123 OFFCURVE",
"290 74 OFFCURVE",
"233 73 CURVE SMOOTH",
"171 72 OFFCURVE",
"132 118 OFFCURVE",
"132 176 CURVE SMOOTH",
"132 239 OFFCURVE",
"176 285 OFFCURVE",
"243 285 CURVE SMOOTH",
"308 285 OFFCURVE",
"362 241 OFFCURVE",
"396 198 CURVE",
"396 265 LINE"
);
}
);
};
layerId = "FA480B27-EBBD-4830-9868-98507D39050C";
name = Bold;
paths = (
{
closed = 1;
nodes = (
"305 -11 OFFCURVE",
"358 53 OFFCURVE",
"396 92 CURVE",
"396 165 LINE",
"354 123 OFFCURVE",
"300 74 OFFCURVE",
"233 73 CURVE SMOOTH",
"171 72 OFFCURVE",
"132 115 OFFCURVE",
"132 176 CURVE SMOOTH",
"132 239 OFFCURVE",
"176 285 OFFCURVE",
"243 285 CURVE SMOOTH",
"308 285 OFFCURVE",
"362 241 OFFCURVE",
"396 198 CURVE",
"396 265 LINE",
"363 307 OFFCURVE",
"315 367 OFFCURVE",
"218 367 CURVE SMOOTH",
"104 367 OFFCURVE",
"23 286 OFFCURVE",
"23 176 CURVE SMOOTH",
"23 67 OFFCURVE",
"105 -11 OFFCURVE",
"205 -11 CURVE SMOOTH"
);
},
{
closed = 1;
nodes = (
"451 -6 OFFCURVE",
"467 -3 OFFCURVE",
"482 1 CURVE",
"482 82 LINE",
"475 79 OFFCURVE",
"470 78 OFFCURVE",
"463 78 CURVE SMOOTH",
"451 78 OFFCURVE",
"439 84 OFFCURVE",
"439 110 CURVE",
"439 520 LINE",
"340 520 LINE",
"340 90 LINE",
"340 27 OFFCURVE",
"380 -6 OFFCURVE",
"432 -6 CURVE SMOOTH"
);
},
{
closed = 1;
nodes = (
"429 437 LINE",
"429 520 LINE",
"240 520 LINE",
"240 437 LINE"
);
}
);
width = 492;
},
{
anchors = (
{
name = bottom;
position = "{209, -20}";
},
{
name = center;
position = "{209, 179}";
},
{
name = top;
position = "{209, 377}";
},
{
name = topright;
position = "{373, 357}";
}
);
background = {
paths = (
{
closed = 1;
nodes = (
"328 330 OFFCURVE",
"284 365 OFFCURVE",
"211 365 CURVE",
"135 365 OFFCURVE",
"45 305 OFFCURVE",
"45 174 CURVE",
"45 46 OFFCURVE",
"115 -20 OFFCURVE",
"203 -20 CURVE SMOOTH",
"272 -20 OFFCURVE",
"326 22 OFFCURVE",
"372 74 CURVE",
"372 94 LINE",
"322 42 OFFCURVE",
"261 4 OFFCURVE",
"203 4 CURVE SMOOTH",
"129 4 OFFCURVE",
"70 69 OFFCURVE",
"70 174 CURVE",
"70 285 OFFCURVE",
"146 342 OFFCURVE",
"211 342 CURVE",
"274 342 OFFCURVE",
"326 307 OFFCURVE",
"375 270 CURVE",
"375 290 LINE"
);
}
);
};
layerId = "543F9737-16F7-428D-9F96-2EBD9FC8D3B6";
name = Light;
paths = (
{
closed = 1;
nodes = (
"280 -10 OFFCURVE",
"335 31 OFFCURVE",
"372 67 CURVE",
"372 94 LINE",
"330 52 OFFCURVE",
"280 14 OFFCURVE",
"211 13 CURVE SMOOTH",
"133 12 OFFCURVE",
"70 72 OFFCURVE",
"70 171 CURVE SMOOTH",
"70 272 OFFCURVE",
"140 345 OFFCURVE",
"223 345 CURVE SMOOTH",
"290 345 OFFCURVE",
"338 311 OFFCURVE",
"379 268 CURVE",
"379 291 LINE",
"338 333 OFFCURVE",
"290 367 OFFCURVE",
"223 367 CURVE SMOOTH",
"129 367 OFFCURVE",
"45 290 OFFCURVE",
"45 170 CURVE SMOOTH",
"45 59 OFFCURVE",
"120 -10 OFFCURVE",
"211 -10 CURVE SMOOTH"
);
},
{
closed = 1;
nodes = (
"431 -10 OFFCURVE",
"445 -5 OFFCURVE",
"455 2 CURVE",
"449 24 LINE",
"442 18 OFFCURVE",
"429 14 OFFCURVE",
"416 14 CURVE SMOOTH",
"396 14 OFFCURVE",
"383 29 OFFCURVE",
"383 68 CURVE SMOOTH",
"383 520 LINE",
"359 520 LINE",
"359 68 LINE SMOOTH",
"359 18 OFFCURVE",
"378 -10 OFFCURVE",
"415 -10 CURVE SMOOTH"
);
},
{
closed = 1;
nodes = (
"383 497 LINE",
"383 520 LINE",
"241 520 LINE",
"241 497 LINE"
);
}
);
width = 485;
}
);
leftMetricsKey = "=o";
unicode = 0064;
},
{
glyphname = d.alt;
lastChange = "2015-09-26 21:17:35 +0000";
layers = (
{
anchors = (
{
name = bottom;
position = "{431, -10}";
},
{
name = center;
position = "{431, 179}";
},
{
name = top;
position = "{431, 367}";
},
{
name = topright;
position = "{841, 357}";
}
);
layerId = "B29C398E-974A-40D0-A0A0-00935056D4B4";
name = "Light Extended";
paths = (
{
closed = 1;
nodes = (
"438 -11 OFFCURVE",
"560 53 OFFCURVE",
"676 137 CURVE",
"676 160 LINE",
"551 72 OFFCURVE",
"422 12 OFFCURVE",
"308 12 CURVE",
"175 12 OFFCURVE",
"95 73 OFFCURVE",
"95 161 CURVE",
"95 271 OFFCURVE",
"221 344 OFFCURVE",
"373 343 CURVE",
"492 344 OFFCURVE",
"605 301 OFFCURVE",
"679 261 CURVE",
"679 283 LINE",
"607 324 OFFCURVE",
"502 366 OFFCURVE",
"373 366 CURVE",
"210 366 OFFCURVE",
"70 289 OFFCURVE",
"70 161 CURVE",
"70 53 OFFCURVE",
"165 -11 OFFCURVE",
"308 -11 CURVE"
);
},
{
closed = 1;
nodes = (
"679 497 LINE",
"679 520 LINE",
"480 520 LINE",
"480 497 LINE"
);
},
{
closed = 1;
nodes = (
"663 39 OFFCURVE",
"690 -10 OFFCURVE",
"753 -10 CURVE SMOOTH",
"820 -10 OFFCURVE",
"842 49 OFFCURVE",
"842 98 CURVE SMOOTH",
"842 112 LINE",
"818 112 LINE",
"818 98 LINE SMOOTH",
"818 48 OFFCURVE",
"796 13 OFFCURVE",
"754 13 CURVE SMOOTH",
"709 13 OFFCURVE",
"688 48 OFFCURVE",
"688 108 CURVE SMOOTH",
"688 520 LINE",
"663 520 LINE",
"663 108 LINE SMOOTH"
);
}
);
width = 828;
},
{
anchors = (
{
name = bottom;
position = "{216, -10}";
},
{
name = center;
position = "{216, 179}";
},
{
name = top;
position = "{226, 367}";
},
{
name = topright;
position = "{530, 357}";
}
);
layerId = "FA480B27-EBBD-4830-9868-98507D39050C";
name = Bold;
paths = (
{
closed = 1;
nodes = (
"305 -11 OFFCURVE",
"358 53 OFFCURVE",
"396 92 CURVE",
"396 165 LINE",
"354 123 OFFCURVE",
"300 74 OFFCURVE",
"233 73 CURVE SMOOTH",
"171 72 OFFCURVE",
"132 115 OFFCURVE",
"132 176 CURVE SMOOTH",
"132 239 OFFCURVE",
"176 285 OFFCURVE",
"243 285 CURVE SMOOTH",
"308 285 OFFCURVE",
"362 241 OFFCURVE",
"396 198 CURVE",
"396 265 LINE",
"363 307 OFFCURVE",
"315 367 OFFCURVE",
"218 367 CURVE SMOOTH",
"104 367 OFFCURVE",
"23 286 OFFCURVE",
"23 176 CURVE SMOOTH",
"23 67 OFFCURVE",
"105 -11 OFFCURVE",
"205 -11 CURVE SMOOTH"
);
},
{
closed = 1;
nodes = (
"439 520 LINE",
"340 520 LINE",
"340 82 LINE SMOOTH",
"340 27 OFFCURVE",
"380 -10 OFFCURVE",
"437 -10 CURVE SMOOTH",
"493 -10 OFFCURVE",
"527 23 OFFCURVE",
"527 82 CURVE SMOOTH",
"527 129 LINE",
"476 129 LINE",
"476 81 LINE SMOOTH",
"476 67 OFFCURVE",
"471 55 OFFCURVE",
"457 55 CURVE SMOOTH",
"443 55 OFFCURVE",
"439 67 OFFCURVE",
"439 81 CURVE SMOOTH"
);
},
{
closed = 1;
nodes = (
"429 437 LINE",
"429 520 LINE",
"240 520 LINE",
"240 437 LINE"
);
}
);
width = 492;
},
{
anchors = (
{
name = bottom;
position = "{236, -20}";
},
{
name = center;
position = "{216, 179}";
},
{
name = top;
position = "{246, 377}";
},
{
name = topright;
position = "{530, 357}";
}
);
background = {
paths = (
{
closed = 1;
nodes = (
"414 83 LINE SMOOTH",
"414 39 OFFCURVE",
"444 8 OFFCURVE",
"488 8 CURVE SMOOTH",
"529 8 OFFCURVE",
"555 45 OFFCURVE",
"555 83 CURVE SMOOTH",
"555 102 LINE",
"533 102 LINE",
"533 83 LINE SMOOTH",
"533 55 OFFCURVE",
"522 32 OFFCURVE",
"489 32 CURVE SMOOTH",
"460 32 OFFCURVE",
"439 50 OFFCURVE",
"439 83 CURVE SMOOTH",
"439 221 LINE",
"414 221 LINE"
);
}
);
};
layerId = "543F9737-16F7-428D-9F96-2EBD9FC8D3B6";
name = Light;
paths = (
{
closed = 1;
nodes = (
"304 -20 OFFCURVE",
"358 22 OFFCURVE",
"404 74 CURVE",
"404 94 LINE",
"354 42 OFFCURVE",
"293 4 OFFCURVE",
"235 4 CURVE SMOOTH",
"161 4 OFFCURVE",
"102 69 OFFCURVE",
"102 174 CURVE",
"102 285 OFFCURVE",
"178 342 OFFCURVE",
"243 342 CURVE",
"306 342 OFFCURVE",
"358 307 OFFCURVE",
"407 270 CURVE",
"407 290 LINE",
"360 330 OFFCURVE",
"316 365 OFFCURVE",
"243 365 CURVE",
"167 365 OFFCURVE",
"77 305 OFFCURVE",
"77 174 CURVE",
"77 46 OFFCURVE",
"147 -20 OFFCURVE",
"235 -20 CURVE SMOOTH"
);
},
{
closed = 1;
nodes = (
"502 -20 OFFCURVE",
"531 13 OFFCURVE",
"531 55 CURVE SMOOTH",
"531 74 LINE",
"509 74 LINE",
"509 55 LINE SMOOTH",
"509 24 OFFCURVE",
"494 4 OFFCURVE",
"462 4 CURVE SMOOTH",
"433 4 OFFCURVE",
"415 21 OFFCURVE",
"415 55 CURVE SMOOTH",
"415 490 LINE",
"391 490 LINE",
"391 55 LINE SMOOTH",
"391 11 OFFCURVE",
"417 -20 OFFCURVE",
"461 -20 CURVE SMOOTH"
);
},
{
closed = 1;
nodes = (
"415 465 LINE",
"415 490 LINE",
"273 490 LINE",
"273 465 LINE"
);
}
);
width = 554;
}
);
},
{
glyphname = eth;
lastChange = "2015-08-27 00:35:44 +0000";
layers = (
{
background = {
paths = (
{
closed = 1;
nodes = (
"557 334 OFFCURVE",
"453 376 OFFCURVE",
"323 375 CURVE",
"171 376 OFFCURVE",
"21 300 OFFCURVE",
"21 164 CURVE",
"21 48 OFFCURVE",
"116 -20 OFFCURVE",
"259 -20 CURVE",
"389 -20 OFFCURVE",
"511 44 OFFCURVE",
"627 127 CURVE",
"627 151 LINE",
"502 62 OFFCURVE",
"373 3 OFFCURVE",
"259 3 CURVE",
"126 3 OFFCURVE",
"46 69 OFFCURVE",
"46 164 CURVE",
"46 283 OFFCURVE",
"181 353 OFFCURVE",
"323 352 CURVE",
"442 353 OFFCURVE",
"556 310 OFFCURVE",
"629 270 CURVE",
"629 293 LINE"
);
}
);
};
layerId = "B29C398E-974A-40D0-A0A0-00935056D4B4";
name = "Light Extended";
paths = (
{
closed = 1;
nodes = (
"318 398 LINE",
"336 387 LINE",
"504 625 LINE",
"486 637 LINE"
);
},
{
closed = 1;
nodes = (
"633 224 LINE",
"555 276 OFFCURVE",
"439 315 OFFCURVE",
"329 315 CURVE SMOOTH",
"186 315 OFFCURVE",
"70 255 OFFCURVE",
"70 147 CURVE SMOOTH",
"70 43 OFFCURVE",
"194 -20 OFFCURVE",
"341 -20 CURVE SMOOTH",
"512 -20 OFFCURVE",
"649 62 OFFCURVE",
"649 224 CURVE SMOOTH",
"649 417 OFFCURVE",
"457 551 OFFCURVE",
"205 592 CURVE",
"199 569 LINE",
"455 527 OFFCURVE",
"625 400 OFFCURVE",
"625 224 CURVE SMOOTH",
"625 74 OFFCURVE",
"495 4 OFFCURVE",
"341 4 CURVE SMOOTH",
"197 4 OFFCURVE",
"95 64 OFFCURVE",
"95 148 CURVE SMOOTH",
"95 234 OFFCURVE",
"185 292 OFFCURVE",
"326 292 CURVE SMOOTH",
"445 292 OFFCURVE",
"554 254 OFFCURVE",
"633 199 CURVE"
);
}
);
width = 719;
},
{
layerId = "FA480B27-EBBD-4830-9868-98507D39050C";
name = Bold;
width = 420;
},
{
layerId = "543F9737-16F7-428D-9F96-2EBD9FC8D3B6";
name = Light;
width = 420;
}
);
leftMetricsKey = "=d";
rightMetricsKey = "=o";
unicode = 00F0;
},
{
color = 5;
glyphname = e;
lastChange = "2015-09-26 21:18:13 +0000";
layers = (
{
anchors = (
{
name = bottom;
position = "{366, -10}";
},
{
name = ogonek;
position = "{658, 65}";
},
{
name = top;
position = "{366, 367}";
}
);
background = {
paths = (
{
closed = 1;
nodes = (
"647 74 LINE",
"571 30 OFFCURVE",
"480 2 OFFCURVE",
"363 3 CURVE",
"234 2 OFFCURVE",
"95 62 OFFCURVE",
"95 167 CURVE",
"95 290 OFFCURVE",
"255 353 OFFCURVE",
"400 353 CURVE SMOOTH",
"530 353 OFFCURVE",
"632 324 OFFCURVE",
"632 258 CURVE SMOOTH",
"632 192 OFFCURVE",
"523 165 OFFCURVE",
"408 165 CURVE SMOOTH",
"310 165 OFFCURVE",
"179 188 OFFCURVE",
"89 217 CURVE",
"90 194 LINE",
"179 165 OFFCURVE",
"310 142 OFFCURVE",
"408 142 CURVE SMOOTH",
"538 142 OFFCURVE",
"657 179 OFFCURVE",
"657 260 CURVE SMOOTH",
"657 340 OFFCURVE",
"543 376 OFFCURVE",
"404 376 CURVE SMOOTH",
"244 376 OFFCURVE",
"70 307 OFFCURVE",
"70 167 CURVE",
"70 41 OFFCURVE",
"224 -20 OFFCURVE",
"363 -20 CURVE",
"484 -20 OFFCURVE",
"581 9 OFFCURVE",
"658 55 CURVE"
);
}
);
};
layerId = "B29C398E-974A-40D0-A0A0-00935056D4B4";
name = "Light Extended";
paths = (
{
closed = 1;
nodes = (
"647 84 LINE",
"571 40 OFFCURVE",
"490 12 OFFCURVE",
"373 13 CURVE",
"234 12 OFFCURVE",
"95 67 OFFCURVE",
"95 167 CURVE",
"95 291 OFFCURVE",
"255 344 OFFCURVE",
"400 344 CURVE SMOOTH",
"530 344 OFFCURVE",
"632 315 OFFCURVE",
"632 258 CURVE SMOOTH",
"632 197 OFFCURVE",
"533 170 OFFCURVE",
"408 170 CURVE SMOOTH",
"310 170 OFFCURVE",
"179 193 OFFCURVE",
"89 222 CURVE",
"90 199 LINE",
"179 170 OFFCURVE",
"310 147 OFFCURVE",
"408 147 CURVE SMOOTH",
"548 147 OFFCURVE",
"657 184 OFFCURVE",
"657 260 CURVE SMOOTH",
"657 331 OFFCURVE",
"543 367 OFFCURVE",
"404 367 CURVE SMOOTH",
"244 367 OFFCURVE",
"70 308 OFFCURVE",
"70 167 CURVE",
"70 46 OFFCURVE",
"224 -10 OFFCURVE",
"373 -10 CURVE",
"494 -10 OFFCURVE",
"581 19 OFFCURVE",
"658 65 CURVE"
);
}
);
width = 732;
},
{
anchors = (
{
name = bottom;
position = "{231, -10}";
},
{
name = ogonek;
position = "{415, 55}";
},
{
name = top;
position = "{231, 367}";
}
);
background = {
paths = (
{
closed = 1;
nodes = (
"332 -11 OFFCURVE",
"430 63 OFFCURVE",
"430 183 CURVE",
"430 303 OFFCURVE",
"325 377 OFFCURVE",
"214 377 CURVE",
"100 377 OFFCURVE",
"-2 303 OFFCURVE",
"-2 183 CURVE",
"-2 63 OFFCURVE",
"100 -11 OFFCURVE",
"214 -11 CURVE"
);
},
{
closed = 1;
nodes = (
"155 66 OFFCURVE",
"112 114 OFFCURVE",
"112 183 CURVE",
"112 252 OFFCURVE",
"155 300 OFFCURVE",
"214 300 CURVE",
"273 300 OFFCURVE",
"316 252 OFFCURVE",
"316 183 CURVE",
"316 114 OFFCURVE",
"273 66 OFFCURVE",
"214 66 CURVE"
);
}
);
};
layerId = "FA480B27-EBBD-4830-9868-98507D39050C";
name = Bold;
paths = (
{
closed = 1;
nodes = (
"378 126 LINE",
"341 94 OFFCURVE",
"297 72 OFFCURVE",
"246 72 CURVE SMOOTH",
"190 72 OFFCURVE",
"127 109 OFFCURVE",
"127 183 CURVE SMOOTH",
"127 253 OFFCURVE",
"184 292 OFFCURVE",
"232 292 CURVE SMOOTH",
"270 292 OFFCURVE",
"297 270 OFFCURVE",
"297 247 CURVE SMOOTH",
"297 223 OFFCURVE",
"271 199 OFFCURVE",
"221 199 CURVE SMOOTH",
"173 199 OFFCURVE",
"105 209 OFFCURVE",
"57 248 CURVE",
"56 195 LINE",
"102 160 OFFCURVE",
"173 131 OFFCURVE",
"247 131 CURVE SMOOTH",
"310 131 OFFCURVE",
"403 163 OFFCURVE",
"403 244 CURVE SMOOTH",
"403 314 OFFCURVE",
"331 367 OFFCURVE",
"232 367 CURVE SMOOTH",
"126 367 OFFCURVE",
"23 298 OFFCURVE",
"23 175 CURVE SMOOTH",
"23 58 OFFCURVE",
"124 -11 OFFCURVE",
"238 -11 CURVE SMOOTH",
"312 -11 OFFCURVE",
"372 19 OFFCURVE",
"415 55 CURVE"
);
}
);
width = 430;
},
{
anchors = (
{
name = bottom;
position = "{226, -20}";
},
{
name = ogonek;
position = "{372, 49}";
},
{
name = top;
position = "{226, 387}";
}
);
background = {
paths = (
{
closed = 1;
nodes = (
"105 -10 OFFCURVE",
"22 63 OFFCURVE",
"22 178 CURVE",
"22 293 OFFCURVE",
"105 366 OFFCURVE",
"207 367 CURVE",
"309 366 OFFCURVE",
"392 293 OFFCURVE",
"392 178 CURVE",
"392 63 OFFCURVE",
"309 -10 OFFCURVE",
"207 -11 CURVE"
);
},
{
closed = 1;
nodes = (
"114 344 OFFCURVE",
"48 277 OFFCURVE",
"48 178 CURVE",
"48 79 OFFCURVE",
"114 12 OFFCURVE",
"207 12 CURVE",
"300 12 OFFCURVE",
"366 79 OFFCURVE",
"366 178 CURVE",
"366 277 OFFCURVE",
"300 344 OFFCURVE",
"207 344 CURVE"
);
}
);
};
layerId = "543F9737-16F7-428D-9F96-2EBD9FC8D3B6";
name = Light;
paths = (
{
closed = 1;
nodes = (
"358 67 LINE",
"324 36 OFFCURVE",
"287 14 OFFCURVE",
"228 13 CURVE SMOOTH",
"147 12 OFFCURVE",
"70 72 OFFCURVE",
"70 167 CURVE SMOOTH",
"70 282 OFFCURVE",
"155 343 OFFCURVE",
"232 343 CURVE SMOOTH",
"298 343 OFFCURVE",
"346 309 OFFCURVE",
"346 257 CURVE SMOOTH",
"346 204 OFFCURVE",
"285 180 OFFCURVE",
"229 180 CURVE SMOOTH",
"169 180 OFFCURVE",
"115 195 OFFCURVE",
"64 213 CURVE",
"65 192 LINE",
"115 174 OFFCURVE",
"169 157 OFFCURVE",
"229 157 CURVE SMOOTH",
"300 157 OFFCURVE",
"371 191 OFFCURVE",
"371 257 CURVE SMOOTH",
"371 320 OFFCURVE",
"311 366 OFFCURVE",
"232 366 CURVE SMOOTH",
"144 366 OFFCURVE",
"45 299 OFFCURVE",
"45 167 CURVE SMOOTH",
"45 51 OFFCURVE",
"137 -10 OFFCURVE",
"228 -10 CURVE SMOOTH",
"291 -10 OFFCURVE",
"334 16 OFFCURVE",
"372 49 CURVE"
);
}
);
width = 418;
}
);
leftMetricsKey = "=o";
unicode = 0065;
},
{
color = 5;
glyphname = f;
lastChange = "2015-09-26 21:18:46 +0000";
layers = (
{
anchors = (
{
name = bottom;
position = "{216, 0}";
},
{
name = top;
position = "{216, 557}";
}
);
background = {
paths = (
{
closed = 1;
nodes = (
"80 0 LINE",
"432 0 LINE",
"432 25 LINE",
"80 25 LINE"
);
},
{
closed = 1;
nodes = (
"212 0 LINE",
"237 0 LINE",
"237 428 LINE",
"237 515 OFFCURVE",
"286 560 OFFCURVE",
"382 560 CURVE SMOOTH",
"450 560 OFFCURVE",
"511 545 OFFCURVE",
"542 531 CURVE",
"542 449 LINE",
"567 449 LINE",
"567 548 LINE",
"521 568 OFFCURVE",
"458 585 OFFCURVE",
"384 585 CURVE SMOOTH",
"269 585 OFFCURVE",
"212 524 OFFCURVE",
"212 426 CURVE"
);
},
{
closed = 1;
nodes = (
"461 357 LINE",
"108 357 LINE",
"108 333 LINE",
"461 333 LINE"
);
}
);
};
layerId = "B29C398E-974A-40D0-A0A0-00935056D4B4";
name = "Light Extended";
paths = (
{
closed = 1;
nodes = (
"40 0 LINE",
"390 0 LINE",
"390 23 LINE",
"40 23 LINE"
);
},
{
closed = 1;
nodes = (
"170 0 LINE",
"195 0 LINE",
"195 388 LINE",
"195 485 OFFCURVE",
"237 532 OFFCURVE",
"333 532 CURVE SMOOTH",
"390 532 OFFCURVE",
"463 514 OFFCURVE",
"517 490 CURVE",
"525 513 LINE",
"469 535 OFFCURVE",
"399 555 OFFCURVE",
"335 555 CURVE SMOOTH",
"220 555 OFFCURVE",
"170 494 OFFCURVE",
"170 386 CURVE"
);
},
{
closed = 1;
nodes = (
"419 357 LINE",
"40 357 LINE",
"40 334 LINE",
"419 334 LINE"
);
}
);
width = 482;
},
{
anchors = (
{
name = bottom;
position = "{146, 0}";
},
{
name = top;
position = "{146, 557}";
}
);
background = {
paths = (
{
closed = 1;
nodes = (
"114 0 LINE",
"213 0 LINE",
"213 357 LINE",
"114 357 LINE"
);
},
{
closed = 1;
nodes = (
"39 83 LINE",
"39 0 LINE",
"288 0 LINE",
"288 83 LINE"
);
},
{
closed = 1;
nodes = (
"39 357 LINE",
"39 274 LINE",
"206 274 LINE",
"206 357 LINE"
);
}
);
};
layerId = "FA480B27-EBBD-4830-9868-98507D39050C";
name = Bold;
paths = (
{
closed = 1;
nodes = (
"20 0 LINE",
"276 0 LINE",
"276 83 LINE",
"20 83 LINE"
);
},
{
closed = 1;
nodes = (
"94 0 LINE",
"191 0 LINE",
"191 406 LINE SMOOTH",
"191 441 OFFCURVE",
"218 468 OFFCURVE",
"264 468 CURVE SMOOTH",
"303 468 OFFCURVE",
"329 455 OFFCURVE",
"365 436 CURVE",
"400 515 LINE",
"354 536 OFFCURVE",
"313 555 OFFCURVE",
"252 555 CURVE SMOOTH",
"157 555 OFFCURVE",
"94 497 OFFCURVE",
"94 404 CURVE SMOOTH"
);
},
{
closed = 1;
nodes = (
"300 357 LINE",
"20 357 LINE",
"20 274 LINE",
"300 274 LINE"
);
}
);
width = 320;
},
{
anchors = (
{
name = bottom;
position = "{146, 0}";
},
{
name = top;
position = "{146, 357}";
}
);
background = {
paths = (
{
closed = 1;
nodes = (
"10 0 LINE",
"266 0 LINE",
"266 83 LINE",
"10 83 LINE"
);
},
{
closed = 1;
nodes = (
"84 0 LINE",
"181 0 LINE",
"181 406 LINE SMOOTH",
"181 441 OFFCURVE",
"208 468 OFFCURVE",
"254 468 CURVE SMOOTH",
"293 468 OFFCURVE",
"319 455 OFFCURVE",
"355 436 CURVE",
"390 515 LINE",
"344 536 OFFCURVE",
"303 555 OFFCURVE",
"242 555 CURVE SMOOTH",
"147 555 OFFCURVE",
"84 497 OFFCURVE",
"84 404 CURVE SMOOTH"
);
},
{
closed = 1;
nodes = (
"290 357 LINE",
"10 357 LINE",
"10 274 LINE",
"290 274 LINE"
);
}
);
};
layerId = "543F9737-16F7-428D-9F96-2EBD9FC8D3B6";
name = Light;
paths = (
{
closed = 1;
nodes = (
"40 0 LINE",
"235 0 LINE",
"235 23 LINE",
"40 23 LINE"
);
},
{
closed = 1;
nodes = (
"120 0 LINE",
"145 0 LINE",
"145 418 LINE",
"145 505 OFFCURVE",
"189 532 OFFCURVE",
"240 532 CURVE SMOOTH",
"278 532 OFFCURVE",
"318 518 OFFCURVE",
"345 504 CURVE",
"355 525 LINE",
"326 538 OFFCURVE",
"285 555 OFFCURVE",
"240 555 CURVE SMOOTH",
"170 555 OFFCURVE",
"120 514 OFFCURVE",
"120 416 CURVE"
);
},
{
closed = 1;
nodes = (
"264 357 LINE",
"40 357 LINE",
"40 334 LINE",
"264 334 LINE"
);
}
);
width = 285;
}
);
leftMetricsKey = "=n";
unicode = 0066;
},
{
glyphname = f.alt;
lastChange = "2015-09-26 21:19:13 +0000";
layers = (
{
anchors = (
{
name = bottom;
position = "{216, 0}";
},
{
name = top;
position = "{216, 557}";
}
);
background = {
paths = (
{
closed = 1;
nodes = (
"53 357 LINE",
"53 333 LINE",
"336 333 LINE",
"336 357 LINE"
);
},
{
closed = 1;
nodes = (
"25 0 LINE",
"342 0 LINE",
"342 25 LINE",
"25 25 LINE"
);
},
{
closed = 1;
nodes = (
"102 416 OFFCURVE",
"158 407 OFFCURVE",
"158 381 CURVE",
"158 0 LINE",
"182 0 LINE",
"182 384 LINE",
"182 413 OFFCURVE",
"126 427 OFFCURVE",
"126 449 CURVE",
"126 529 OFFCURVE",
"172 560 OFFCURVE",
"240 560 CURVE SMOOTH",
"293 560 OFFCURVE",
"334 547 OFFCURVE",
"361 531 CURVE",
"361 449 LINE",
"386 449 LINE",
"386 548 LINE",
"344 569 OFFCURVE",
"302 585 OFFCURVE",
"242 585 CURVE SMOOTH",
"155 585 OFFCURVE",
"101 538 OFFCURVE",
"102 447 CURVE"
);
}
);
};
layerId = "B29C398E-974A-40D0-A0A0-00935056D4B4";
name = "Light Extended";
paths = (
{
closed = 1;
nodes = (
"110 413 OFFCURVE",
"141 380 OFFCURVE",
"179 348 CURVE",
"179 0 LINE",
"204 0 LINE",
"204 348 LINE",
"166 384 OFFCURVE",
"135 418 OFFCURVE",
"135 455 CURVE",
"135 499 OFFCURVE",
"177 532 OFFCURVE",
"253 532 CURVE SMOOTH",
"332 532 OFFCURVE",
"392 510 OFFCURVE",
"438 490 CURVE",
"448 511 LINE",
"395 534 OFFCURVE",
"332 555 OFFCURVE",
"254 555 CURVE SMOOTH",
"161 555 OFFCURVE",
"110 511 OFFCURVE",
"110 455 CURVE"
);
},
{
closed = 1;
nodes = (
"40 357 LINE",
"40 334 LINE",
"386 334 LINE",
"386 357 LINE"
);
},
{
closed = 1;
nodes = (
"40 0 LINE",
"392 0 LINE",
"392 23 LINE",
"40 23 LINE"
);
}
);
width = 442;
},
{
anchors = (
{
name = bottom;
position = "{216, 0}";
},
{
name = top;
position = "{216, 557}";
}
);
layerId = "FA480B27-EBBD-4830-9868-98507D39050C";
name = Bold;
paths = (
{
closed = 1;
nodes = (
"65 408 OFFCURVE",
"92 380 OFFCURVE",
"124 358 CURVE",
"124 0 LINE",
"223 0 LINE",
"223 348 LINE",
"192 364 OFFCURVE",
"168 388 OFFCURVE",
"168 413 CURVE SMOOTH",
"168 443 OFFCURVE",
"198 465 OFFCURVE",
"247 465 CURVE SMOOTH",
"282 465 OFFCURVE",
"316 456 OFFCURVE",
"348 442 CURVE",
"378 523 LINE",
"329 541 OFFCURVE",
"282 555 OFFCURVE",
"214 555 CURVE SMOOTH",
"131 555 OFFCURVE",
"65 510 OFFCURVE",
"65 451 CURVE SMOOTH"
);
},
{
closed = 1;
nodes = (
"20 357 LINE",
"20 274 LINE",
"335 274 LINE",
"335 357 LINE"
);
},
{
closed = 1;
nodes = (
"20 0 LINE",
"341 0 LINE",
"341 83 LINE",
"20 83 LINE"
);
}
);
width = 345;
},
{
anchors = (
{
name = bottom;
position = "{136, 0}";
},
{
name = top;
position = "{136, 357}";
}
);
layerId = "543F9737-16F7-428D-9F96-2EBD9FC8D3B6";
name = Light;
paths = (
{
closed = 1;
nodes = (
"84 426 OFFCURVE",
"108 387 OFFCURVE",
"144 348 CURVE",
"144 0 LINE",
"169 0 LINE",
"169 348 LINE",
"133 391 OFFCURVE",
"109 427 OFFCURVE",
"109 463 CURVE SMOOTH",
"109 504 OFFCURVE",
"148 532 OFFCURVE",
"196 532 CURVE SMOOTH",
"244 532 OFFCURVE",
"283 519 OFFCURVE",
"313 503 CURVE",
"324 523 LINE",
"291 540 OFFCURVE",
"246 555 OFFCURVE",
"197 555 CURVE SMOOTH",
"132 555 OFFCURVE",
"84 517 OFFCURVE",
"84 463 CURVE SMOOTH"
);
},
{
closed = 1;
nodes = (
"40 357 LINE",
"40 334 LINE",
"266 334 LINE",
"266 357 LINE"
);
},
{
closed = 1;
nodes = (
"40 0 LINE",
"272 0 LINE",
"272 23 LINE",
"40 23 LINE"
);
}
);
width = 310;
}
);
leftMetricsKey = "=f";
},
{
color = 5;
glyphname = g;
lastChange = "2015-09-26 21:19:56 +0000";
layers = (
{
anchors = (
{
name = bottom;
position = "{356, -164}";
},
{
name = top;
position = "{365, 367}";
}
);
guideLines = (
{
position = "{69, 219}";
}
);
layerId = "B29C398E-974A-40D0-A0A0-00935056D4B4";
name = "Light Extended";
paths = (
{
closed = 1;
nodes = (
"532 -165 OFFCURVE",
"679 -121 OFFCURVE",
"679 -30 CURVE SMOOTH",
"679 31 OFFCURVE",
"619 59 OFFCURVE",
"543 59 CURVE SMOOTH",
"468 59 OFFCURVE",
"304 26 OFFCURVE",
"227 26 CURVE SMOOTH",
"123 26 OFFCURVE",
"90 63 OFFCURVE",
"90 94 CURVE SMOOTH",
"90 136 OFFCURVE",
"137 159 OFFCURVE",
"172 171 CURVE",
"153 180 LINE",
"118 170 OFFCURVE",
"67 141 OFFCURVE",
"67 91 CURVE SMOOTH",
"67 56 OFFCURVE",
"97 4 OFFCURVE",
"225 4 CURVE SMOOTH",
"305 4 OFFCURVE",
"464 36 OFFCURVE",
"543 36 CURVE SMOOTH",
"609 36 OFFCURVE",
"655 17 OFFCURVE",
"655 -30 CURVE SMOOTH",
"655 -107 OFFCURVE",
"517 -143 OFFCURVE",
"337 -143 CURVE SMOOTH",
"155 -143 OFFCURVE",
"83 -100 OFFCURVE",
"83 -46 CURVE SMOOTH",
"83 -14 OFFCURVE",
"110 14 OFFCURVE",
"143 25 CURVE",
"125 34 LINE",
"98 24 OFFCURVE",
"59 -7 OFFCURVE",
"59 -49 CURVE SMOOTH",
"59 -115 OFFCURVE",
"141 -165 OFFCURVE",
"339 -165 CURVE SMOOTH"
);
},
{
closed = 1;
nodes = (
"501 108 OFFCURVE",
"618 149 OFFCURVE",
"618 238 CURVE",
"618 327 OFFCURVE",
"501 367 OFFCURVE",
"365 367 CURVE",
"230 367 OFFCURVE",
"113 327 OFFCURVE",
"113 238 CURVE",
"113 149 OFFCURVE",
"230 106 OFFCURVE",
"365 108 CURVE"
);
},
{
closed = 1;
nodes = (
"242 131 OFFCURVE",
"138 168 OFFCURVE",
"138 238 CURVE",
"138 310 OFFCURVE",
"242 344 OFFCURVE",
"365 344 CURVE",
"490 344 OFFCURVE",
"595 310 OFFCURVE",
"595 238 CURVE",
"595 168 OFFCURVE",
"490 131 OFFCURVE",
"365 131 CURVE"
);
},
{
closed = 1;
nodes = (
"574 390 OFFCURVE",
"620 418 OFFCURVE",
"677 421 CURVE",
"677 446 LINE",
"612 443 OFFCURVE",
"559 401 OFFCURVE",
"545 325 CURVE",
"556 309 LINE"
);
}
);
width = 711;
},
{
anchors = (
{
name = bottom;
position = "{216, -167}";
},
{
name = top;
position = "{225, 367}";
}
);
layerId = "FA480B27-EBBD-4830-9868-98507D39050C";
name = Bold;
paths = (
{
closed = 1;
nodes = (
"327 -168 OFFCURVE",
"448 -114 OFFCURVE",
"448 -18 CURVE SMOOTH",
"448 48 OFFCURVE",
"397 81 OFFCURVE",
"325 81 CURVE SMOOTH",
"255 81 OFFCURVE",
"208 68 OFFCURVE",
"156 68 CURVE SMOOTH",
"130 68 OFFCURVE",
"109 76 OFFCURVE",
"109 100 CURVE SMOOTH",
"109 122 OFFCURVE",
"138 137 OFFCURVE",
"171 148 CURVE",
"107 180 LINE",
"49 162 OFFCURVE",
"11 129 OFFCURVE",
"11 81 CURVE SMOOTH",
"11 25 OFFCURVE",
"63 -17 OFFCURVE",
"131 -17 CURVE SMOOTH",
"197 -17 OFFCURVE",
"262 -4 OFFCURVE",
"303 -4 CURVE SMOOTH",
"331 -4 OFFCURVE",
"346 -10 OFFCURVE",
"346 -31 CURVE SMOOTH",
"346 -68 OFFCURVE",
"261 -84 OFFCURVE",
"199 -84 CURVE SMOOTH",
"130 -84 OFFCURVE",
"96 -67 OFFCURVE",
"96 -38 CURVE SMOOTH",
"96 -13 OFFCURVE",
"113 3 OFFCURVE",
"127 10 CURVE",
"72 37 LINE",
"40 20 OFFCURVE",
"5 -13 OFFCURVE",
"5 -59 CURVE SMOOTH",
"5 -132 OFFCURVE",
"87 -168 OFFCURVE",
"185 -168 CURVE SMOOTH"
);
},
{
closed = 1;
nodes = (
"300 108 OFFCURVE",
"392 149 OFFCURVE",
"392 238 CURVE SMOOTH",
"392 327 OFFCURVE",
"305 367 OFFCURVE",
"224 367 CURVE SMOOTH",
"144 367 OFFCURVE",
"57 327 OFFCURVE",
"57 238 CURVE SMOOTH",
"57 149 OFFCURVE",
"134 108 OFFCURVE",
"224 108 CURVE SMOOTH"
);
},
{
closed = 1;
nodes = (
"183 179 OFFCURVE",
"154 205 OFFCURVE",
"154 238 CURVE SMOOTH",
"154 272 OFFCURVE",
"183 296 OFFCURVE",
"224 296 CURVE SMOOTH",
"267 296 OFFCURVE",
"296 272 OFFCURVE",
"296 238 CURVE SMOOTH",
"296 205 OFFCURVE",
"267 179 OFFCURVE",
"224 179 CURVE SMOOTH"
);
},
{
closed = 1;
nodes = (
"353 346 OFFCURVE",
"379 361 OFFCURVE",
"436 361 CURVE",
"436 446 LINE SMOOTH",
"371 443 OFFCURVE",
"308 411 OFFCURVE",
"294 335 CURVE",
"335 299 LINE"
);
}
);
width = 451;
},
{
anchors = (
{
name = bottom;
position = "{226, -169}";
},
{
name = top;
position = "{226, 387}";
}
);
background = {
paths = (
{
closed = 1;
nodes = (
"296 -169 OFFCURVE",
"424 -125 OFFCURVE",
"424 -34 CURVE SMOOTH",
"424 27 OFFCURVE",
"384 55 OFFCURVE",
"323 55 CURVE SMOOTH",
"263 55 OFFCURVE",
"204 22 OFFCURVE",
"132 22 CURVE SMOOTH",
"73 22 OFFCURVE",
"50 59 OFFCURVE",
"50 90 CURVE SMOOTH",
"50 132 OFFCURVE",
"97 155 OFFCURVE",
"132 167 CURVE",
"113 176 LINE",
"78 166 OFFCURVE",
"27 137 OFFCURVE",
"27 87 CURVE SMOOTH",
"27 52 OFFCURVE",
"47 0 OFFCURVE",
"130 0 CURVE SMOOTH",
"205 0 OFFCURVE",
"259 32 OFFCURVE",
"323 32 CURVE SMOOTH",
"374 32 OFFCURVE",
"400 13 OFFCURVE",
"400 -34 CURVE SMOOTH",
"400 -111 OFFCURVE",
"287 -147 OFFCURVE",
"202 -147 CURVE SMOOTH",
"105 -147 OFFCURVE",
"43 -104 OFFCURVE",
"43 -50 CURVE SMOOTH",
"43 -18 OFFCURVE",
"70 10 OFFCURVE",
"103 21 CURVE",
"85 30 LINE",
"58 20 OFFCURVE",
"19 -11 OFFCURVE",
"19 -53 CURVE SMOOTH",
"19 -119 OFFCURVE",
"91 -169 OFFCURVE",
"199 -169 CURVE SMOOTH"
);
},
{
closed = 1;
nodes = (
"296 118 OFFCURVE",
"373 159 OFFCURVE",
"373 248 CURVE SMOOTH",
"373 337 OFFCURVE",
"296 377 OFFCURVE",
"225 377 CURVE SMOOTH",
"154 377 OFFCURVE",
"77 336 OFFCURVE",
"77 247 CURVE SMOOTH",
"77 158 OFFCURVE",
"154 118 OFFCURVE",
"225 118 CURVE SMOOTH"
);
},
{
closed = 1;
nodes = (
"165 141 OFFCURVE",
"100 175 OFFCURVE",
"100 247 CURVE SMOOTH",
"100 317 OFFCURVE",
"165 354 OFFCURVE",
"225 354 CURVE SMOOTH",
"285 354 OFFCURVE",
"350 320 OFFCURVE",
"350 248 CURVE SMOOTH",
"350 178 OFFCURVE",
"285 141 OFFCURVE",
"225 141 CURVE SMOOTH"
);
},
{
closed = 1;
nodes = (
"432 456 LINE",
"367 453 OFFCURVE",
"324 401 OFFCURVE",
"310 345 CURVE",
"321 329 LINE",
"339 390 OFFCURVE",
"375 428 OFFCURVE",
"432 431 CURVE"
);
}
);
};
layerId = "543F9737-16F7-428D-9F96-2EBD9FC8D3B6";
name = Light;
paths = (
{
closed = 1;
nodes = (
"315 -169 OFFCURVE",
"425 -115 OFFCURVE",
"425 -24 CURVE SMOOTH",
"425 27 OFFCURVE",
"385 55 OFFCURVE",
"333 55 CURVE SMOOTH",
"268 55 OFFCURVE",
"204 22 OFFCURVE",
"132 22 CURVE SMOOTH",
"73 22 OFFCURVE",
"52 51 OFFCURVE",
"52 82 CURVE SMOOTH",
"52 119 OFFCURVE",
"82 145 OFFCURVE",
"122 164 CURVE",
"101 173 LINE",
"62 154 OFFCURVE",
"27 121 OFFCURVE",
"27 76 CURVE SMOOTH",
"27 41 OFFCURVE",
"54 -2 OFFCURVE",
"132 -2 CURVE SMOOTH",
"207 -2 OFFCURVE",
"264 32 OFFCURVE",
"328 32 CURVE SMOOTH",
"369 32 OFFCURVE",
"400 13 OFFCURVE",
"400 -24 CURVE SMOOTH",
"400 -101 OFFCURVE",
"305 -147 OFFCURVE",
"207 -147 CURVE SMOOTH",
"108 -147 OFFCURVE",
"44 -109 OFFCURVE",
"44 -55 CURVE SMOOTH",
"44 -18 OFFCURVE",
"71 10 OFFCURVE",
"103 21 CURVE",
"85 30 LINE",
"58 20 OFFCURVE",
"19 -11 OFFCURVE",
"19 -58 CURVE SMOOTH",
"19 -124 OFFCURVE",
"93 -169 OFFCURVE",
"204 -169 CURVE SMOOTH"
);
},
{
closed = 1;
nodes = (
"306 108 OFFCURVE",
"373 155 OFFCURVE",
"373 238 CURVE SMOOTH",
"373 322 OFFCURVE",
"296 367 OFFCURVE",
"225 367 CURVE SMOOTH",
"154 367 OFFCURVE",
"77 321 OFFCURVE",
"77 237 CURVE SMOOTH",
"77 153 OFFCURVE",
"153 108 OFFCURVE",
"225 108 CURVE SMOOTH"
);
},
{
closed = 1;
nodes = (
"166 131 OFFCURVE",
"102 165 OFFCURVE",
"102 237 CURVE SMOOTH",
"102 307 OFFCURVE",
"167 344 OFFCURVE",
"225 344 CURVE SMOOTH",
"283 344 OFFCURVE",
"348 310 OFFCURVE",
"348 238 CURVE SMOOTH",
"348 168 OFFCURVE",
"293 131 OFFCURVE",
"225 131 CURVE SMOOTH"
);
},
{
closed = 1;
nodes = (
"344 380 OFFCURVE",
"370 403 OFFCURVE",
"422 406 CURVE",
"422 431 LINE",
"362 428 OFFCURVE",
"326 391 OFFCURVE",
"307 335 CURVE",
"321 319 LINE"
);
}
);
width = 420;
}
);
unicode = 0067;
},
{
color = 5;
glyphname = g.alt;
lastChange = "2015-09-20 18:19:37 +0000";
layers = (
{
anchors = (
{
name = bottom;
position = "{412, -210}";
},
{
name = top;
position = "{412, 387}";
}
);
background = {
paths = (
{
closed = 1;
nodes = (
"564 -27 OFFCURVE",
"706 42 OFFCURVE",
"706 175 CURVE",
"706 312 OFFCURVE",
"564 377 OFFCURVE",
"386 377 CURVE",
"208 376 OFFCURVE",
"67 312 OFFCURVE",
"67 175 CURVE",
"67 42 OFFCURVE",
"208 -28 OFFCURVE",
"386 -27 CURVE"
);
},
{
closed = 1;
nodes = (
"554 353 OFFCURVE",
"681 295 OFFCURVE",
"681 175 CURVE",
"681 60 OFFCURVE",
"554 -4 OFFCURVE",
"386 -4 CURVE",
"218 -4 OFFCURVE",
"91 60 OFFCURVE",
"91 175 CURVE",
"91 295 OFFCURVE",
"218 352 OFFCURVE",
"386 353 CURVE"
);
}
);
};
layerId = "B29C398E-974A-40D0-A0A0-00935056D4B4";
name = "Light Extended";
paths = (
{
closed = 1;
nodes = (
"116 -143 LINE",
"190 -177 OFFCURVE",
"313 -210 OFFCURVE",
"424 -210 CURVE SMOOTH",
"606 -210 OFFCURVE",
"701 -121 OFFCURVE",
"700 18 CURVE",
"700 357 LINE",
"675 357 LINE",
"675 17 LINE",
"675 -106 OFFCURVE",
"589 -187 OFFCURVE",
"425 -187 CURVE SMOOTH",
"319 -187 OFFCURVE",
"197 -154 OFFCURVE",
"123 -120 CURVE"
);
},
{
closed = 1;
nodes = (
"452 -11 OFFCURVE",
"574 53 OFFCURVE",
"690 137 CURVE",
"690 160 LINE",
"565 72 OFFCURVE",
"436 12 OFFCURVE",
"322 12 CURVE",
"189 12 OFFCURVE",
"109 73 OFFCURVE",
"109 161 CURVE",
"109 271 OFFCURVE",
"235 344 OFFCURVE",
"387 343 CURVE",
"506 344 OFFCURVE",
"619 301 OFFCURVE",
"693 261 CURVE",
"693 283 LINE",
"621 324 OFFCURVE",
"516 366 OFFCURVE",
"387 366 CURVE",
"224 366 OFFCURVE",
"84 289 OFFCURVE",
"84 161 CURVE",
"84 53 OFFCURVE",
"179 -11 OFFCURVE",
"322 -11 CURVE"
);
}
);
width = 808;
},
{
anchors = (
{
name = bottom;
position = "{247, -210}";
},
{
name = top;
position = "{247, 387}";
}
);
background = {
paths = (
{
closed = 1;
nodes = (
"473 353 OFFCURVE",
"573 315 OFFCURVE",
"664 269 CURVE",
"668 293 LINE",
"578 339 OFFCURVE",
"479 376 OFFCURVE",
"364 375 CURVE",
"213 376 OFFCURVE",
"65 293 OFFCURVE",
"65 160 CURVE",
"65 48 OFFCURVE",
"160 -20 OFFCURVE",
"289 -20 CURVE",
"419 -20 OFFCURVE",
"555 51 OFFCURVE",
"671 134 CURVE",
"671 158 LINE",
"546 69 OFFCURVE",
"403 3 OFFCURVE",
"289 3 CURVE",
"170 3 OFFCURVE",
"90 69 OFFCURVE",
"90 160 CURVE",
"90 276 OFFCURVE",
"224 353 OFFCURVE",
"364 352 CURVE"
);
},
{
closed = 1;
nodes = (
"97 -143 LINE",
"171 -177 OFFCURVE",
"294 -210 OFFCURVE",
"405 -210 CURVE SMOOTH",
"587 -210 OFFCURVE",
"682 -121 OFFCURVE",
"681 18 CURVE",
"681 357 LINE",
"656 357 LINE",
"656 17 LINE",
"656 -106 OFFCURVE",
"570 -187 OFFCURVE",
"406 -187 CURVE SMOOTH",
"300 -187 OFFCURVE",
"178 -154 OFFCURVE",
"104 -120 CURVE"
);
}
);
};
layerId = "FA480B27-EBBD-4830-9868-98507D39050C";
name = Bold;
paths = (
{
closed = 1;
nodes = (
"438 367 LINE",
"339 348 LINE",
"339 -12 LINE SMOOTH",
"339 -75 OFFCURVE",
"288 -103 OFFCURVE",
"240 -103 CURVE SMOOTH",
"189 -103 OFFCURVE",
"145 -86 OFFCURVE",
"99 -60 CURVE",
"64 -139 LINE",
"120 -167 OFFCURVE",
"174 -190 OFFCURVE",
"249 -190 CURVE SMOOTH",
"339 -190 OFFCURVE",
"438 -133 OFFCURVE",
"438 -12 CURVE SMOOTH"
);
},
{
closed = 1;
nodes = (
"363 307 OFFCURVE",
"315 367 OFFCURVE",
"218 367 CURVE SMOOTH",
"104 367 OFFCURVE",
"23 286 OFFCURVE",
"23 176 CURVE SMOOTH",
"23 67 OFFCURVE",
"105 -11 OFFCURVE",
"205 -11 CURVE SMOOTH",
"305 -11 OFFCURVE",
"358 53 OFFCURVE",
"396 92 CURVE",
"396 165 LINE",
"354 123 OFFCURVE",
"300 74 OFFCURVE",
"233 73 CURVE SMOOTH",
"171 72 OFFCURVE",
"132 115 OFFCURVE",
"132 176 CURVE SMOOTH",
"132 239 OFFCURVE",
"176 285 OFFCURVE",
"243 285 CURVE SMOOTH",
"308 285 OFFCURVE",
"362 241 OFFCURVE",
"396 198 CURVE",
"396 265 LINE"
);
}
);
width = 473;
},
{
anchors = (
{
name = bottom;
position = "{232, -210}";
},
{
name = top;
position = "{232, 387}";
}
);
layerId = "543F9737-16F7-428D-9F96-2EBD9FC8D3B6";
name = Light;
paths = (
{
closed = 1;
nodes = (
"334 -190 OFFCURVE",
"394 -129 OFFCURVE",
"394 -32 CURVE SMOOTH",
"394 344 LINE",
"369 344 LINE",
"369 -33 LINE SMOOTH",
"369 -121 OFFCURVE",
"317 -167 OFFCURVE",
"241 -167 CURVE SMOOTH",
"184 -167 OFFCURVE",
"138 -147 OFFCURVE",
"87 -123 CURVE",
"80 -145 LINE",
"131 -169 OFFCURVE",
"178 -190 OFFCURVE",
"240 -190 CURVE SMOOTH"
);
},
{
closed = 1;
nodes = (
"290 -10 OFFCURVE",
"345 31 OFFCURVE",
"382 67 CURVE",
"382 94 LINE",
"340 52 OFFCURVE",
"290 14 OFFCURVE",
"221 13 CURVE SMOOTH",
"143 12 OFFCURVE",
"80 72 OFFCURVE",
"80 171 CURVE SMOOTH",
"80 272 OFFCURVE",
"150 345 OFFCURVE",
"233 345 CURVE SMOOTH",
"300 345 OFFCURVE",
"348 311 OFFCURVE",
"389 268 CURVE",
"389 291 LINE",
"348 333 OFFCURVE",
"300 367 OFFCURVE",
"233 367 CURVE SMOOTH",
"139 367 OFFCURVE",
"55 290 OFFCURVE",
"55 170 CURVE SMOOTH",
"55 59 OFFCURVE",
"130 -10 OFFCURVE",
"221 -10 CURVE SMOOTH"
);
}
);
width = 479;
}
);
leftMetricsKey = "=q";
rightMetricsKey = "=j";
},
{
color = 5;
glyphname = h;
lastChange = "2015-09-26 21:20:51 +0000";
layers = (
{
anchors = (
{
name = bottom;
position = "{443, 0}";
},
{
name = center;
position = "{443, 179}";
},
{
name = top;
position = "{443, 367}";
}
);
layerId = "B29C398E-974A-40D0-A0A0-00935056D4B4";
name = "Light Extended";
paths = (
{
closed = 1;
nodes = (
"398 0 LINE",
"398 23 LINE",
"10 23 LINE",
"10 0 LINE"
);
},
{
closed = 1;
nodes = (
"215 0 LINE",
"215 520 LINE",
"190 520 LINE",
"190 0 LINE"
);
},
{
closed = 1;
nodes = (
"215 497 LINE",
"215 520 LINE",
"10 520 LINE",
"10 497 LINE"
);
},
{
closed = 1;
nodes = (
"730 0 LINE",
"730 135 LINE",
"730 257 OFFCURVE",
"681 367 OFFCURVE",
"525 367 CURVE SMOOTH",
"389 367 OFFCURVE",
"266 263 OFFCURVE",
"202 211 CURVE",
"202 188 LINE",
"266 239 OFFCURVE",
"389 344 OFFCURVE",
"525 344 CURVE SMOOTH",
"671 344 OFFCURVE",
"705 237 OFFCURVE",
"705 135 CURVE",
"705 0 LINE"
);
},
{
closed = 1;
nodes = (
"891 0 LINE",
"891 23 LINE",
"523 23 LINE",
"523 0 LINE"
);
}
);
width = 886;
},
{
anchors = (
{
name = bottom;
position = "{283, 0}";
},
{
name = center;
position = "{283, 179}";
},
{
name = top;
position = "{283, 367}";
}
);
layerId = "FA480B27-EBBD-4830-9868-98507D39050C";
name = Bold;
paths = (
{
closed = 1;
nodes = (
"468 0 LINE",
"468 197 LINE SMOOTH",
"468 309 OFFCURVE",
"425 366 OFFCURVE",
"338 366 CURVE SMOOTH",
"261 366 OFFCURVE",
"208 320 OFFCURVE",
"140 232 CURVE",
"140 154 LINE",
"194 231 OFFCURVE",
"245 278 OFFCURVE",
"297 278 CURVE SMOOTH",
"344 278 OFFCURVE",
"369 246 OFFCURVE",
"369 196 CURVE SMOOTH",
"369 0 LINE"
);
},
{
closed = 1;
nodes = (
"254 0 LINE",
"254 85 LINE",
"5 85 LINE",
"5 0 LINE"
);
},
{
closed = 1;
nodes = (
"179 0 LINE",
"179 520 LINE",
"80 520 LINE",
"80 0 LINE"
);
},
{
closed = 1;
nodes = (
"539 0 LINE",
"539 85 LINE",
"311 85 LINE",
"311 0 LINE"
);
},
{
closed = 1;
nodes = (
"172 435 LINE",
"172 520 LINE",
"5 520 LINE",
"5 435 LINE"
);
}
);
width = 539;
},
{
anchors = (
{
name = bottom;
position = "{303, 0}";
},
{
name = center;
position = "{303, 179}";
},
{
name = top;
position = "{303, 387}";
}
);
background = {
paths = (
{
closed = 1;
nodes = (
"142 0 LINE",
"166 0 LINE",
"166 520 LINE",
"142 520 LINE"
);
},
{
closed = 1;
nodes = (
"50 23 LINE",
"50 0 LINE",
"242 0 LINE",
"242 23 LINE"
);
},
{
closed = 1;
nodes = (
"50 520 LINE",
"50 497 LINE",
"166 497 LINE",
"166 520 LINE"
);
},
{
closed = 1;
nodes = (
"280 367 OFFCURVE",
"220 305 OFFCURVE",
"153 218 CURVE",
"153 193 LINE",
"222 279 OFFCURVE",
"284 343 OFFCURVE",
"353 343 CURVE SMOOTH",
"415 343 OFFCURVE",
"447 303 OFFCURVE",
"447 233 CURVE SMOOTH",
"447 0 LINE",
"471 0 LINE",
"471 233 LINE SMOOTH",
"471 324 OFFCURVE",
"428 367 OFFCURVE",
"357 367 CURVE SMOOTH"
);
},
{
closed = 1;
nodes = (
"369 23 LINE",
"369 0 LINE",
"555 0 LINE",
"555 23 LINE"
);
}
);
};
layerId = "543F9737-16F7-428D-9F96-2EBD9FC8D3B6";
name = Light;
paths = (
{
closed = 1;
nodes = (
"447 0 LINE",
"447 234 LINE SMOOTH",
"447 324 OFFCURVE",
"400 367 OFFCURVE",
"331 367 CURVE SMOOTH",
"257 367 OFFCURVE",
"193 315 OFFCURVE",
"138 254 CURVE",
"138 231 LINE",
"194 294 OFFCURVE",
"263 344 OFFCURVE",
"326 344 CURVE SMOOTH",
"390 344 OFFCURVE",
"422 304 OFFCURVE",
"422 229 CURVE SMOOTH",
"422 0 LINE"
);
},
{
closed = 1;
nodes = (
"228 0 LINE",
"228 23 LINE",
"35 23 LINE",
"35 0 LINE"
);
},
{
closed = 1;
nodes = (
"152 0 LINE",
"152 520 LINE",
"127 520 LINE",
"127 0 LINE"
);
},
{
closed = 1;
nodes = (
"530 0 LINE",
"530 23 LINE",
"344 23 LINE",
"344 0 LINE"
);
},
{
closed = 1;
nodes = (
"152 497 LINE",
"152 520 LINE",
"35 520 LINE",
"35 497 LINE"
);
}
);
width = 555;
}
);
rightMetricsKey = "=n";
unicode = 0068;
},
{
glyphname = hbar;
lastChange = "2015-08-27 00:35:44 +0000";
layers = (
{
components = (
{
name = h;
}
);
layerId = "B29C398E-974A-40D0-A0A0-00935056D4B4";
name = "Light Extended";
paths = (
{
closed = 1;
nodes = (
"11 456 LINE",
"11 434 LINE",
"751 434 LINE",
"751 456 LINE"
);
}
);
width = 886;
},
{
layerId = "FA480B27-EBBD-4830-9868-98507D39050C";
name = Bold;
width = 420;
},
{
layerId = "543F9737-16F7-428D-9F96-2EBD9FC8D3B6";
name = Light;
width = 420;
}
);
unicode = 0127;
},
{
color = 5;
glyphname = i;
lastChange = "2015-09-26 21:21:42 +0000";
layers = (
{
anchors = (
{
name = bottom;
position = "{205, 0}";
},
{
name = ogonek;
position = "{398, 10}";
},
{
name = top;
position = "{215, 357}";
}
);
layerId = "B29C398E-974A-40D0-A0A0-00935056D4B4";
name = "Light Extended";
paths = (
{
closed = 1;
nodes = (
"245 0 LINE",
"245 357 LINE",
"220 357 LINE",
"220 0 LINE"
);
},
{
closed = 1;
nodes = (
"406 0 LINE",
"406 23 LINE",
"40 23 LINE",
"40 0 LINE"
);
},
{
closed = 1;
nodes = (
"245 334 LINE",
"245 357 LINE",
"40 357 LINE",
"40 334 LINE"
);
},
{
closed = 1;
nodes = (
"253 469 OFFCURVE",
"269 482 OFFCURVE",
"269 499 CURVE",
"269 517 OFFCURVE",
"253 530 OFFCURVE",
"222 530 CURVE",
"192 530 OFFCURVE",
"175 517 OFFCURVE",
"175 499 CURVE",
"175 482 OFFCURVE",
"192 469 OFFCURVE",
"222 469 CURVE"
);
}
);
width = 409;
},
{
anchors = (
{
name = bottom;
position = "{127, 0}";
},
{
name = ogonek;
position = "{269, 0}";
},
{
name = top;
position = "{137, 357}";
}
);
layerId = "FA480B27-EBBD-4830-9868-98507D39050C";
name = Bold;
paths = (
{
closed = 1;
nodes = (
"194 0 LINE",
"194 357 LINE",
"95 357 LINE",
"95 0 LINE"
);
},
{
closed = 1;
nodes = (
"269 0 LINE",
"269 85 LINE",
"20 85 LINE",
"20 0 LINE"
);
},
{
closed = 1;
nodes = (
"192 272 LINE",
"192 357 LINE",
"20 357 LINE",
"20 272 LINE"
);
},
{
closed = 1;
nodes = (
"182 422 OFFCURVE",
"210 445 OFFCURVE",
"210 475 CURVE",
"210 507 OFFCURVE",
"182 530 OFFCURVE",
"137 530 CURVE",
"94 530 OFFCURVE",
"64 507 OFFCURVE",
"64 475 CURVE",
"64 445 OFFCURVE",
"94 422 OFFCURVE",
"137 422 CURVE"
);
}
);
width = 269;
},
{
anchors = (
{
name = bottom;
position = "{135, 0}";
},
{
name = ogonek;
position = "{248, 0}";
},
{
name = top;
position = "{145, 357}";
}
);
layerId = "543F9737-16F7-428D-9F96-2EBD9FC8D3B6";
name = Light;
paths = (
{
closed = 1;
nodes = (
"157 0 LINE",
"157 357 LINE",
"132 357 LINE",
"132 0 LINE"
);
},
{
closed = 1;
nodes = (
"248 0 LINE",
"248 23 LINE",
"40 23 LINE",
"40 0 LINE"
);
},
{
closed = 1;
nodes = (
"157 334 LINE",
"157 357 LINE",
"40 357 LINE",
"40 334 LINE"
);
},
{
closed = 1;
nodes = (
"158 469 OFFCURVE",
"174 482 OFFCURVE",
"174 499 CURVE",
"174 517 OFFCURVE",
"158 530 OFFCURVE",
"134 530 CURVE",
"112 530 OFFCURVE",
"95 517 OFFCURVE",
"95 499 CURVE",
"95 482 OFFCURVE",
"112 469 OFFCURVE",
"134 469 CURVE"
);
}
);
width = 268;
}
);
leftMetricsKey = "=n";
unicode = 0069;
},
{
glyphname = idotless;
lastChange = "2015-09-26 21:32:16 +0000";
layers = (
{
anchors = (
{
name = bottom;
position = "{205, 0}";
},
{
name = ogonek;
position = "{406, 0}";
},
{
name = top;
position = "{215, 357}";
}
);
layerId = "B29C398E-974A-40D0-A0A0-00935056D4B4";
name = "Light Extended";
paths = (
{
closed = 1;
nodes = (
"220 0 LINE",
"245 0 LINE",
"245 357 LINE",
"220 357 LINE"
);
},
{
closed = 1;
nodes = (
"40 23 LINE",
"40 0 LINE",
"406 0 LINE",
"406 23 LINE"
);
},
{
closed = 1;
nodes = (
"40 357 LINE",
"40 334 LINE",
"245 334 LINE",
"245 357 LINE"
);
}
);
width = 409;
},
{
anchors = (
{
name = bottom;
position = "{146, 0}";
},
{
name = ogonek;
position = "{268, 0}";
},
{
name = top;
position = "{135, 357}";
}
);
layerId = "FA480B27-EBBD-4830-9868-98507D39050C";
name = Bold;
paths = (
{
closed = 1;
nodes = (
"194 0 LINE",
"194 357 LINE",
"95 357 LINE",
"95 0 LINE"
);
},
{
closed = 1;
nodes = (
"269 0 LINE",
"269 85 LINE",
"20 85 LINE",
"20 0 LINE"
);
},
{
closed = 1;
nodes = (
"192 272 LINE",
"192 357 LINE",
"20 357 LINE",
"20 272 LINE"
);
}
);
width = 269;
},
{
layerId = "543F9737-16F7-428D-9F96-2EBD9FC8D3B6";
name = Light;
paths = (
{
closed = 1;
nodes = (
"157 0 LINE",
"157 357 LINE",
"132 357 LINE",
"132 0 LINE"
);
},
{
closed = 1;
nodes = (
"248 0 LINE",
"248 23 LINE",
"40 23 LINE",
"40 0 LINE"
);
},
{
closed = 1;
nodes = (
"157 334 LINE",
"157 357 LINE",
"40 357 LINE",
"40 334 LINE"
);
}
);
width = 268;
}
);
leftMetricsKey = "=i";
rightMetricsKey = "=i";
unicode = 0131;
},
{
color = 5;
glyphname = j;
lastChange = "2015-09-20 17:08:36 +0000";
layers = (
{
anchors = (
{
name = bottom;
position = "{191, 0}";
},
{
name = top;
position = "{191, 357}";
}
);
layerId = "B29C398E-974A-40D0-A0A0-00935056D4B4";
name = "Light Extended";
paths = (
{
closed = 1;
nodes = (
"199 -190 OFFCURVE",
"249 -129 OFFCURVE",
"249 -32 CURVE SMOOTH",
"249 344 LINE",
"224 344 LINE",
"224 -33 LINE SMOOTH",
"224 -121 OFFCURVE",
"182 -167 OFFCURVE",
"106 -167 CURVE SMOOTH",
"59 -167 OFFCURVE",
"14 -156 OFFCURVE",
"-28 -143 CURVE",
"-35 -165 LINE",
"7 -178 OFFCURVE",
"53 -190 OFFCURVE",
"105 -190 CURVE SMOOTH"
);
},
{
closed = 1;
nodes = (
"249 334 LINE",
"249 357 LINE",
"43 357 LINE",
"43 334 LINE"
);
},
{
closed = 1;
nodes = (
"258 469 OFFCURVE",
"274 482 OFFCURVE",
"274 499 CURVE",
"274 517 OFFCURVE",
"258 530 OFFCURVE",
"227 530 CURVE",
"197 530 OFFCURVE",
"179 517 OFFCURVE",
"179 499 CURVE",
"179 482 OFFCURVE",
"197 469 OFFCURVE",
"227 469 CURVE"
);
}
);
width = 382;
},
{
anchors = (
{
name = bottom;
position = "{188, 0}";
},
{
name = top;
position = "{188, 357}";
}
);
layerId = "FA480B27-EBBD-4830-9868-98507D39050C";
name = Bold;
paths = (
{
closed = 1;
nodes = (
"175 -190 OFFCURVE",
"242 -131 OFFCURVE",
"242 -20 CURVE SMOOTH",
"242 344 LINE",
"145 344 LINE",
"145 -22 LINE SMOOTH",
"145 -75 OFFCURVE",
"119 -103 OFFCURVE",
"81 -103 CURVE SMOOTH",
"55 -103 OFFCURVE",
"37 -97 OFFCURVE",
"11 -88 CURVE",
"-13 -170 LINE",
"12 -178 OFFCURVE",
"37 -190 OFFCURVE",
"85 -190 CURVE SMOOTH"
);
},
{
closed = 1;
nodes = (
"242 272 LINE",
"242 357 LINE",
"70 357 LINE",
"70 272 LINE"
);
},
{
closed = 1;
nodes = (
"232 422 OFFCURVE",
"260 445 OFFCURVE",
"260 475 CURVE",
"260 507 OFFCURVE",
"232 530 OFFCURVE",
"187 530 CURVE",
"144 530 OFFCURVE",
"114 507 OFFCURVE",
"114 475 CURVE",
"114 445 OFFCURVE",
"144 422 OFFCURVE",
"187 422 CURVE"
);
}
);
width = 295;
},
{
anchors = (
{
name = bottom;
position = "{151, 0}";
},
{
name = top;
position = "{151, 357}";
}
);
layerId = "543F9737-16F7-428D-9F96-2EBD9FC8D3B6";
name = Light;
paths = (
{
closed = 1;
nodes = (
"122 -190 OFFCURVE",
"163 -145 OFFCURVE",
"163 -78 CURVE SMOOTH",
"163 357 LINE",
"138 357 LINE",
"138 -79 LINE SMOOTH",
"138 -137 OFFCURVE",
"105 -167 OFFCURVE",
"60 -167 CURVE SMOOTH",
"27 -167 OFFCURVE",
"-4 -156 OFFCURVE",
"-23 -146 CURVE",
"-30 -168 LINE",
"-11 -177 OFFCURVE",
"21 -190 OFFCURVE",
"59 -190 CURVE SMOOTH"
);
},
{
closed = 1;
nodes = (
"163 334 LINE",
"163 357 LINE",
"48 357 LINE",
"48 334 LINE"
);
},
{
closed = 1;
nodes = (
"172 469 OFFCURVE",
"188 482 OFFCURVE",
"188 499 CURVE",
"188 517 OFFCURVE",
"172 530 OFFCURVE",
"141 530 CURVE",
"111 530 OFFCURVE",
"93 517 OFFCURVE",
"93 499 CURVE",
"93 482 OFFCURVE",
"111 469 OFFCURVE",
"141 469 CURVE"
);
}
);
width = 273;
}
);
unicode = 006A;
},
{
glyphname = jdotless;
lastChange = "2015-09-26 21:25:18 +0000";
layers = (
{
anchors = (
{
name = bottom;
position = "{191, 0}";
},
{
name = top;
position = "{191, 357}";
}
);
layerId = "B29C398E-974A-40D0-A0A0-00935056D4B4";
name = "Light Extended";
paths = (
{
closed = 1;
nodes = (
"-35 -185 LINE",
"7 -198 OFFCURVE",
"53 -210 OFFCURVE",
"105 -210 CURVE SMOOTH",
"199 -210 OFFCURVE",
"250 -149 OFFCURVE",
"249 -52 CURVE SMOOTH",
"249 344 LINE",
"224 344 LINE",
"224 -53 LINE SMOOTH",
"224 -141 OFFCURVE",
"182 -187 OFFCURVE",
"106 -187 CURVE SMOOTH",
"59 -187 OFFCURVE",
"14 -176 OFFCURVE",
"-28 -163 CURVE"
);
},
{
closed = 1;
nodes = (
"43 357 LINE",
"43 334 LINE",
"249 334 LINE",
"249 357 LINE"
);
}
);
width = 382;
},
{
anchors = (
{
name = bottom;
position = "{171, 0}";
},
{
name = top;
position = "{160, 422}";
}
);
layerId = "FA480B27-EBBD-4830-9868-98507D39050C";
name = Bold;
paths = (
{
closed = 1;
nodes = (
"175 -190 OFFCURVE",
"242 -131 OFFCURVE",
"242 -20 CURVE SMOOTH",
"242 344 LINE",
"145 344 LINE",
"145 -22 LINE SMOOTH",
"145 -75 OFFCURVE",
"119 -103 OFFCURVE",
"81 -103 CURVE SMOOTH",
"55 -103 OFFCURVE",
"37 -97 OFFCURVE",
"11 -88 CURVE",
"-13 -170 LINE",
"12 -178 OFFCURVE",
"37 -190 OFFCURVE",
"85 -190 CURVE SMOOTH"
);
},
{
closed = 1;
nodes = (
"242 272 LINE",
"242 357 LINE",
"70 357 LINE",
"70 272 LINE"
);
}
);
width = 295;
},
{
layerId = "543F9737-16F7-428D-9F96-2EBD9FC8D3B6";
name = Light;
paths = (
{
closed = 1;
nodes = (
"122 -190 OFFCURVE",
"163 -145 OFFCURVE",
"163 -78 CURVE SMOOTH",
"163 357 LINE",
"138 357 LINE",
"138 -79 LINE SMOOTH",
"138 -137 OFFCURVE",
"105 -167 OFFCURVE",
"60 -167 CURVE SMOOTH",
"27 -167 OFFCURVE",
"-4 -156 OFFCURVE",
"-23 -146 CURVE",
"-30 -168 LINE",
"-11 -177 OFFCURVE",
"21 -190 OFFCURVE",
"59 -190 CURVE SMOOTH"
);
},
{
closed = 1;
nodes = (
"163 334 LINE",
"163 357 LINE",
"48 357 LINE",
"48 334 LINE"
);
}
);
width = 248;
}
);
leftMetricsKey = "=j";
rightMetricsKey = "=j";
unicode = 0237;
},
{
color = 5;
glyphname = k;
lastChange = "2015-09-26 21:25:52 +0000";
layers = (
{
anchors = (
{
name = bottom;
position = "{451, 0}";
},
{
name = top;
position = "{451, 367}";
}
);
background = {
paths = (
{
closed = 1;
nodes = (
"215 497 LINE",
"215 520 LINE",
"10 520 LINE",
"10 497 LINE"
);
}
);
};
layerId = "B29C398E-974A-40D0-A0A0-00935056D4B4";
name = "Light Extended";
paths = (
{
closed = 1;
nodes = (
"623 134 OFFCURVE",
"733 181 OFFCURVE",
"733 263 CURVE SMOOTH",
"733 328 OFFCURVE",
"672 367 OFFCURVE",
"555 367 CURVE SMOOTH",
"443 367 OFFCURVE",
"317 311 OFFCURVE",
"201 232 CURVE",
"201 212 LINE",
"317 288 OFFCURVE",
"440 344 OFFCURVE",
"552 344 CURVE SMOOTH",
"649 344 OFFCURVE",
"708 317 OFFCURVE",
"708 262 CURVE SMOOTH",
"708 192 OFFCURVE",
"601 157 OFFCURVE",
"450 157 CURVE SMOOTH",
"358 157 OFFCURVE",
"244 170 OFFCURVE",
"200 177 CURVE",
"198 160 LINE",
"244 151 OFFCURVE",
"344 134 OFFCURVE",
"447 134 CURVE SMOOTH"
);
},
{
closed = 1;
nodes = (
"398 0 LINE",
"398 23 LINE",
"10 23 LINE",
"10 0 LINE"
);
},
{
closed = 1;
nodes = (
"215 0 LINE",
"215 520 LINE",
"190 520 LINE",
"190 0 LINE"
);
},
{
closed = 1;
nodes = (
"741 -20 OFFCURVE",
"794 31 OFFCURVE",
"807 99 CURVE",
"786 103 LINE",
"775 34 OFFCURVE",
"721 2 OFFCURVE",
"663 2 CURVE SMOOTH",
"581 2 OFFCURVE",
"532 55 OFFCURVE",
"459 151 CURVE",
"434 151 LINE",
"498 57 OFFCURVE",
"570 -20 OFFCURVE",
"661 -20 CURVE SMOOTH"
);
},
{
closed = 1;
nodes = (
"215 497 LINE",
"215 520 LINE",
"10 520 LINE",
"10 497 LINE"
);
}
);
width = 842;
},
{
anchors = (
{
name = bottom;
position = "{291, 0}";
},
{
name = top;
position = "{291, 367}";
}
);
background = {
paths = (
{
closed = 1;
nodes = (
"80 0 LINE",
"179 0 LINE",
"179 560 LINE",
"80 560 LINE"
);
},
{
closed = 1;
nodes = (
"5 85 LINE",
"5 0 LINE",
"249 0 LINE",
"249 85 LINE"
);
},
{
closed = 1;
nodes = (
"5 560 LINE",
"5 475 LINE",
"172 475 LINE",
"172 560 LINE"
);
},
{
closed = 1;
nodes = (
"284 54 OFFCURVE",
"332 -11 OFFCURVE",
"412 -11 CURVE SMOOTH",
"482 -11 OFFCURVE",
"521 44 OFFCURVE",
"531 102 CURVE",
"464 119 LINE",
"458 91 OFFCURVE",
"443 72 OFFCURVE",
"418 72 CURVE SMOOTH",
"395 72 OFFCURVE",
"370 92 OFFCURVE",
"355 149 CURVE",
"262 149 LINE"
);
},
{
closed = 1;
nodes = (
"273 366 OFFCURVE",
"211 332 OFFCURVE",
"160 274 CURVE",
"158 209 LINE",
"214 263 OFFCURVE",
"268 285 OFFCURVE",
"300 285 CURVE SMOOTH",
"330 285 OFFCURVE",
"352 276 OFFCURVE",
"352 250 CURVE SMOOTH",
"352 220 OFFCURVE",
"316 208 OFFCURVE",
"279 208 CURVE SMOOTH",
"248 208 OFFCURVE",
"211 212 OFFCURVE",
"158 239 CURVE",
"158 177 LINE",
"208 146 OFFCURVE",
"245 137 OFFCURVE",
"306 137 CURVE SMOOTH",
"380 137 OFFCURVE",
"460 175 OFFCURVE",
"461 254 CURVE SMOOTH",
"462 332 OFFCURVE",
"401 366 OFFCURVE",
"332 366 CURVE SMOOTH"
);
}
);
};
layerId = "FA480B27-EBBD-4830-9868-98507D39050C";
name = Bold;
paths = (
{
closed = 1;
nodes = (
"380 131 OFFCURVE",
"463 172 OFFCURVE",
"464 251 CURVE SMOOTH",
"465 329 OFFCURVE",
"401 366 OFFCURVE",
"332 366 CURVE SMOOTH",
"273 366 OFFCURVE",
"211 332 OFFCURVE",
"160 274 CURVE",
"158 209 LINE",
"214 263 OFFCURVE",
"268 285 OFFCURVE",
"300 285 CURVE SMOOTH",
"330 285 OFFCURVE",
"355 273 OFFCURVE",
"355 247 CURVE SMOOTH",
"355 217 OFFCURVE",
"316 202 OFFCURVE",
"279 202 CURVE SMOOTH",
"248 202 OFFCURVE",
"211 206 OFFCURVE",
"158 233 CURVE",
"158 171 LINE",
"208 140 OFFCURVE",
"245 131 OFFCURVE",
"306 131 CURVE SMOOTH"
);
},
{
closed = 1;
nodes = (
"244 0 LINE",
"244 85 LINE",
"5 85 LINE",
"5 0 LINE"
);
},
{
closed = 1;
nodes = (
"179 0 LINE",
"179 520 LINE",
"80 520 LINE",
"80 0 LINE"
);
},
{
closed = 1;
nodes = (
"472 -11 OFFCURVE",
"502 12 OFFCURVE",
"527 42 CURVE",
"482 105 LINE",
"467 88 OFFCURVE",
"450 75 OFFCURVE",
"426 75 CURVE SMOOTH",
"399 75 OFFCURVE",
"373 100 OFFCURVE",
"365 149 CURVE",
"280 149 LINE",
"293 51 OFFCURVE",
"346 -11 OFFCURVE",
"422 -11 CURVE SMOOTH"
);
},
{
closed = 1;
nodes = (
"172 435 LINE",
"172 520 LINE",
"5 520 LINE",
"5 435 LINE"
);
}
);
width = 517;
},
{
anchors = (
{
name = bottom;
position = "{291, 0}";
},
{
name = top;
position = "{291, 387}";
}
);
background = {
paths = (
{
closed = 1;
nodes = (
"80 0 LINE",
"179 0 LINE",
"179 520 LINE",
"80 520 LINE"
);
},
{
closed = 1;
nodes = (
"5 85 LINE",
"5 0 LINE",
"244 0 LINE",
"244 85 LINE"
);
},
{
closed = 1;
nodes = (
"5 520 LINE",
"5 435 LINE",
"172 435 LINE",
"172 520 LINE"
);
},
{
closed = 1;
nodes = (
"482 105 LINE",
"467 88 OFFCURVE",
"450 75 OFFCURVE",
"426 75 CURVE SMOOTH",
"399 75 OFFCURVE",
"373 100 OFFCURVE",
"365 149 CURVE",
"280 149 LINE",
"293 51 OFFCURVE",
"346 -11 OFFCURVE",
"422 -11 CURVE SMOOTH",
"472 -11 OFFCURVE",
"502 12 OFFCURVE",
"527 42 CURVE"
);
},
{
closed = 1;
nodes = (
"273 366 OFFCURVE",
"211 332 OFFCURVE",
"160 274 CURVE",
"158 209 LINE",
"214 263 OFFCURVE",
"268 285 OFFCURVE",
"300 285 CURVE SMOOTH",
"330 285 OFFCURVE",
"355 273 OFFCURVE",
"355 247 CURVE SMOOTH",
"355 217 OFFCURVE",
"316 202 OFFCURVE",
"279 202 CURVE SMOOTH",
"248 202 OFFCURVE",
"211 206 OFFCURVE",
"158 233 CURVE",
"158 171 LINE",
"208 140 OFFCURVE",
"245 131 OFFCURVE",
"306 131 CURVE SMOOTH",
"380 131 OFFCURVE",
"463 172 OFFCURVE",
"464 251 CURVE SMOOTH",
"465 329 OFFCURVE",
"401 366 OFFCURVE",
"332 366 CURVE SMOOTH"
);
}
);
};
layerId = "543F9737-16F7-428D-9F96-2EBD9FC8D3B6";
name = Light;
paths = (
{
closed = 1;
nodes = (
"369 132 OFFCURVE",
"436 181 OFFCURVE",
"436 253 CURVE SMOOTH",
"436 321 OFFCURVE",
"384 361 OFFCURVE",
"316 361 CURVE SMOOTH",
"252 361 OFFCURVE",
"185 322 OFFCURVE",
"135 274 CURVE",
"135 251 LINE",
"186 299 OFFCURVE",
"252 338 OFFCURVE",
"316 338 CURVE SMOOTH",
"372 338 OFFCURVE",
"411 307 OFFCURVE",
"411 253 CURVE SMOOTH",
"411 188 OFFCURVE",
"346 154 OFFCURVE",
"282 155 CURVE SMOOTH",
"235 156 OFFCURVE",
"186 170 OFFCURVE",
"135 195 CURVE",
"135 172 LINE",
"182 149 OFFCURVE",
"233 132 OFFCURVE",
"286 132 CURVE SMOOTH"
);
},
{
closed = 1;
nodes = (
"244 0 LINE",
"244 23 LINE",
"35 23 LINE",
"35 0 LINE"
);
},
{
closed = 1;
nodes = (
"152 0 LINE",
"152 520 LINE",
"127 520 LINE",
"127 0 LINE"
);
},
{
closed = 1;
nodes = (
"460 -10 OFFCURVE",
"488 12 OFFCURVE",
"506 34 CURVE",
"492 48 LINE",
"476 30 OFFCURVE",
"456 12 OFFCURVE",
"421 12 CURVE SMOOTH",
"381 12 OFFCURVE",
"339 43 OFFCURVE",
"317 149 CURVE",
"294 149 LINE",
"314 40 OFFCURVE",
"362 -10 OFFCURVE",
"421 -10 CURVE SMOOTH"
);
},
{
closed = 1;
nodes = (
"152 497 LINE",
"152 520 LINE",
"35 520 LINE",
"35 497 LINE"
);
}
);
width = 547;
}
);
leftMetricsKey = "=h";
unicode = 006B;
},
{
color = 0;
glyphname = k.001;
lastChange = "2015-09-26 21:26:26 +0000";
layers = (
{
anchors = (
{
name = bottom;
position = "{441, 0}";
},
{
name = top;
position = "{441, 367}";
}
);
background = {
paths = (
{
closed = 1;
nodes = (
"191 0 LINE",
"215 0 LINE",
"215 560 LINE",
"191 560 LINE"
);
},
{
closed = 1;
nodes = (
"8 560 LINE",
"8 536 LINE",
"215 536 LINE",
"215 560 LINE"
);
},
{
closed = 1;
nodes = (
"30 0 LINE",
"398 0 LINE",
"398 25 LINE",
"30 25 LINE"
);
},
{
closed = 1;
nodes = (
"244 165 OFFCURVE",
"358 153 OFFCURVE",
"450 153 CURVE SMOOTH",
"585 153 OFFCURVE",
"695 191 OFFCURVE",
"695 260 CURVE SMOOTH",
"695 321 OFFCURVE",
"644 354 OFFCURVE",
"548 354 CURVE",
"431 354 OFFCURVE",
"314 293 OFFCURVE",
"201 212 CURVE",
"201 241 LINE",
"312 321 OFFCURVE",
"417 376 OFFCURVE",
"548 376 CURVE",
"663 376 OFFCURVE",
"719 330 OFFCURVE",
"719 261 CURVE SMOOTH",
"719 179 OFFCURVE",
"609 130 OFFCURVE",
"447 130 CURVE SMOOTH",
"344 130 OFFCURVE",
"244 146 OFFCURVE",
"198 155 CURVE",
"200 173 LINE"
);
},
{
closed = 0;
nodes = (
"597 99 LINE",
"537 186 OFFCURVE",
"494 233 OFFCURVE",
"382 233 CURVE SMOOTH",
"301 233 LINE",
"301 209 LINE",
"397 209 LINE SMOOTH",
"487 209 OFFCURVE",
"525 154 OFFCURVE",
"574 83 CURVE"
);
},
{
closed = 0;
nodes = (
"574 98 LINE",
"574 32 OFFCURVE",
"621 -16 OFFCURVE",
"684 -16 CURVE SMOOTH",
"775 -16 OFFCURVE",
"802 63 OFFCURVE",
"802 116 CURVE",
"777 116 LINE",
"777 60 OFFCURVE",
"750 8 OFFCURVE",
"686 8 CURVE SMOOTH",
"640 8 OFFCURVE",
"598 43 OFFCURVE",
"598 98 CURVE"
);
}
);
};
layerId = "B29C398E-974A-40D0-A0A0-00935056D4B4";
name = "Light Extended";
paths = (
{
closed = 1;
nodes = (
"190 0 LINE",
"215 0 LINE",
"215 560 LINE",
"190 560 LINE"
);
},
{
closed = 1;
nodes = (
"10 560 LINE",
"10 537 LINE",
"215 537 LINE",
"215 560 LINE"
);
},
{
closed = 1;
nodes = (
"10 0 LINE",
"398 0 LINE",
"398 23 LINE",
"10 23 LINE"
);
},
{
closed = 1;
nodes = (
"198 159 LINE",
"244 150 OFFCURVE",
"344 133 OFFCURVE",
"447 133 CURVE SMOOTH",
"623 133 OFFCURVE",
"733 180 OFFCURVE",
"733 262 CURVE SMOOTH",
"733 327 OFFCURVE",
"672 366 OFFCURVE",
"555 366 CURVE SMOOTH",
"443 366 OFFCURVE",
"317 310 OFFCURVE",
"201 231 CURVE",
"201 211 LINE",
"317 287 OFFCURVE",
"440 343 OFFCURVE",
"552 343 CURVE SMOOTH",
"649 343 OFFCURVE",
"708 316 OFFCURVE",
"708 261 CURVE SMOOTH",
"708 191 OFFCURVE",
"601 156 OFFCURVE",
"450 156 CURVE SMOOTH",
"358 156 OFFCURVE",
"244 169 OFFCURVE",
"200 176 CURVE"
);
},
{
closed = 1;
nodes = (
"786 103 LINE",
"775 34 OFFCURVE",
"721 2 OFFCURVE",
"663 2 CURVE SMOOTH",
"581 2 OFFCURVE",
"532 55 OFFCURVE",
"459 151 CURVE",
"434 151 LINE",
"498 57 OFFCURVE",
"570 -20 OFFCURVE",
"661 -20 CURVE SMOOTH",
"741 -20 OFFCURVE",
"794 31 OFFCURVE",
"807 99 CURVE"
);
}
);
width = 842;
},
{
anchors = (
{
name = bottom;
position = "{271, 0}";
},
{
name = top;
position = "{271, 367}";
}
);
background = {
paths = (
{
closed = 1;
nodes = (
"85 0 LINE",
"184 0 LINE",
"184 560 LINE",
"85 560 LINE"
);
},
{
closed = 1;
nodes = (
"10 85 LINE",
"10 0 LINE",
"249 0 LINE",
"249 85 LINE"
);
},
{
closed = 1;
nodes = (
"10 560 LINE",
"10 475 LINE",
"177 475 LINE",
"177 560 LINE"
);
},
{
closed = 1;
nodes = (
"487 105 LINE",
"472 88 OFFCURVE",
"455 75 OFFCURVE",
"431 75 CURVE SMOOTH",
"404 75 OFFCURVE",
"378 100 OFFCURVE",
"370 149 CURVE",
"285 149 LINE",
"298 51 OFFCURVE",
"351 -11 OFFCURVE",
"427 -11 CURVE SMOOTH",
"477 -11 OFFCURVE",
"507 12 OFFCURVE",
"532 42 CURVE"
);
},
{
closed = 1;
nodes = (
"278 366 OFFCURVE",
"216 332 OFFCURVE",
"165 274 CURVE",
"163 209 LINE",
"219 263 OFFCURVE",
"273 285 OFFCURVE",
"305 285 CURVE SMOOTH",
"335 285 OFFCURVE",
"360 273 OFFCURVE",
"360 247 CURVE SMOOTH",
"360 217 OFFCURVE",
"321 202 OFFCURVE",
"284 202 CURVE SMOOTH",
"253 202 OFFCURVE",
"216 206 OFFCURVE",
"163 233 CURVE",
"163 171 LINE",
"213 140 OFFCURVE",
"250 131 OFFCURVE",
"311 131 CURVE SMOOTH",
"385 131 OFFCURVE",
"468 172 OFFCURVE",
"469 251 CURVE SMOOTH",
"470 329 OFFCURVE",
"406 366 OFFCURVE",
"337 366 CURVE SMOOTH"
);
}
);
};
layerId = "FA480B27-EBBD-4830-9868-98507D39050C";
name = Bold;
paths = (
{
closed = 1;
nodes = (
"85 0 LINE",
"184 0 LINE",
"184 560 LINE",
"85 560 LINE"
);
},
{
closed = 1;
nodes = (
"10 85 LINE",
"10 0 LINE",
"249 0 LINE",
"249 85 LINE"
);
},
{
closed = 1;
nodes = (
"10 560 LINE",
"10 475 LINE",
"177 475 LINE",
"177 560 LINE"
);
},
{
closed = 1;
nodes = (
"289 357 LINE",
"289 273 LINE",
"501 273 LINE",
"501 357 LINE"
);
},
{
closed = 1;
nodes = (
"165 100 LINE",
"488 294 LINE",
"360 294 LINE",
"159 177 LINE"
);
},
{
closed = 1;
nodes = (
"521 84 LINE",
"309 84 LINE",
"309 0 LINE",
"521 0 LINE"
);
},
{
closed = 1;
nodes = (
"242 186 LINE",
"380 63 LINE",
"498 63 LINE",
"307 235 LINE"
);
}
);
width = 536;
},
{
layerId = "543F9737-16F7-428D-9F96-2EBD9FC8D3B6";
name = Light;
width = 420;
}
);
leftMetricsKey = "=h";
},
{
color = 5;
glyphname = l;
lastChange = "2015-09-26 21:27:08 +0000";
layers = (
{
anchors = (
{
name = bottom;
position = "{190, 0}";
},
{
name = center;
position = "{190, 283}";
},
{
name = top;
position = "{190, 520}";
},
{
name = topright;
position = "{359, 357}";
}
);
layerId = "B29C398E-974A-40D0-A0A0-00935056D4B4";
name = "Light Extended";
paths = (
{
closed = 1;
nodes = (
"215 0 LINE",
"215 520 LINE",
"190 520 LINE",
"190 0 LINE"
);
},
{
closed = 1;
nodes = (
"375 0 LINE",
"375 23 LINE",
"10 23 LINE",
"10 0 LINE"
);
},
{
closed = 1;
nodes = (
"215 497 LINE",
"215 520 LINE",
"10 520 LINE",
"10 497 LINE"
);
}
);
width = 379;
},
{
anchors = (
{
name = bottom;
position = "{130, 0}";
},
{
name = center;
position = "{130, 283}";
},
{
name = top;
position = "{130, 520}";
},
{
name = topright;
position = "{299, 357}";
}
);
layerId = "FA480B27-EBBD-4830-9868-98507D39050C";
name = Bold;
paths = (
{
closed = 1;
nodes = (
"179 0 LINE",
"179 520 LINE",
"80 520 LINE",
"80 0 LINE"
);
},
{
closed = 1;
nodes = (
"254 0 LINE",
"254 85 LINE",
"5 85 LINE",
"5 0 LINE"
);
},
{
closed = 1;
nodes = (
"172 435 LINE",
"172 520 LINE",
"5 520 LINE",
"5 435 LINE"
);
}
);
width = 254;
},
{
anchors = (
{
name = bottom;
position = "{140, 0}";
},
{
name = center;
position = "{140, 283}";
},
{
name = top;
position = "{140, 560}";
},
{
name = topright;
position = "{309, 357}";
}
);
layerId = "543F9737-16F7-428D-9F96-2EBD9FC8D3B6";
name = Light;
paths = (
{
closed = 1;
nodes = (
"152 0 LINE",
"152 520 LINE",
"127 520 LINE",
"127 0 LINE"
);
},
{
closed = 1;
nodes = (
"244 0 LINE",
"244 23 LINE",
"35 23 LINE",
"35 0 LINE"
);
},
{
closed = 1;
nodes = (
"152 497 LINE",
"152 520 LINE",
"35 520 LINE",
"35 497 LINE"
);
}
);
width = 264;
}
);
leftMetricsKey = "=h";
rightMetricsKey = "=i";
unicode = 006C;
},
{
color = 5;
glyphname = m;
lastChange = "2015-09-26 21:27:33 +0000";
layers = (
{
anchors = (
{
name = bottom;
position = "{635, 0}";
},
{
name = top;
position = "{635, 367}";
}
);
layerId = "B29C398E-974A-40D0-A0A0-00935056D4B4";
name = "Light Extended";
paths = (
{
closed = 1;
nodes = (
"247 334 LINE",
"247 357 LINE",
"40 357 LINE",
"40 334 LINE"
);
},
{
closed = 1;
nodes = (
"247 0 LINE",
"247 357 LINE",
"222 357 LINE",
"222 0 LINE"
);
},
{
closed = 1;
nodes = (
"408 0 LINE",
"408 23 LINE",
"40 23 LINE",
"40 0 LINE"
);
},
{
closed = 1;
nodes = (
"650 0 LINE",
"650 156 LINE",
"650 278 OFFCURVE",
"611 367 OFFCURVE",
"483 367 CURVE SMOOTH",
"375 367 OFFCURVE",
"289 290 OFFCURVE",
"234 211 CURVE",
"234 188 LINE",
"303 269 OFFCURVE",
"375 344 OFFCURVE",
"483 344 CURVE SMOOTH",
"601 344 OFFCURVE",
"626 258 OFFCURVE",
"626 156 CURVE",
"626 0 LINE"
);
},
{
closed = 1;
nodes = (
"811 0 LINE",
"811 23 LINE",
"478 23 LINE",
"478 0 LINE"
);
},
{
closed = 1;
nodes = (
"1054 0 LINE",
"1054 156 LINE",
"1054 278 OFFCURVE",
"1014 367 OFFCURVE",
"886 367 CURVE SMOOTH",
"778 367 OFFCURVE",
"692 290 OFFCURVE",
"637 211 CURVE",
"637 188 LINE",
"706 269 OFFCURVE",
"778 344 OFFCURVE",
"886 344 CURVE SMOOTH",
"1005 344 OFFCURVE",
"1029 258 OFFCURVE",
"1029 156 CURVE",
"1029 0 LINE"
);
},
{
closed = 1;
nodes = (
"1214 0 LINE",
"1214 23 LINE",
"881 23 LINE",
"881 0 LINE"
);
}
);
width = 1209;
},
{
anchors = (
{
name = bottom;
position = "{465, 0}";
},
{
name = top;
position = "{465, 367}";
}
);
layerId = "FA480B27-EBBD-4830-9868-98507D39050C";
name = Bold;
paths = (
{
closed = 1;
nodes = (
"187 274 LINE",
"187 357 LINE",
"20 357 LINE",
"20 274 LINE"
);
},
{
closed = 1;
nodes = (
"194 0 LINE",
"194 357 LINE",
"95 357 LINE",
"95 0 LINE"
);
},
{
closed = 1;
nodes = (
"255 0 LINE",
"255 84 LINE",
"20 84 LINE",
"20 0 LINE"
);
},
{
closed = 1;
nodes = (
"466 0 LINE",
"466 202 LINE SMOOTH",
"466 309 OFFCURVE",
"418 366 OFFCURVE",
"341 366 CURVE SMOOTH",
"269 366 OFFCURVE",
"204 315 OFFCURVE",
"158 232 CURVE",
"158 154 LINE",
"204 231 OFFCURVE",
"256 274 OFFCURVE",
"305 274 CURVE SMOOTH",
"347 274 OFFCURVE",
"367 242 OFFCURVE",
"367 201 CURVE SMOOTH",
"367 0 LINE"
);
},
{
closed = 1;
nodes = (
"529 0 LINE",
"529 84 LINE",
"302 84 LINE",
"302 0 LINE"
);
},
{
closed = 1;
nodes = (
"738 0 LINE",
"738 202 LINE SMOOTH",
"738 309 OFFCURVE",
"690 366 OFFCURVE",
"613 366 CURVE SMOOTH",
"541 366 OFFCURVE",
"476 315 OFFCURVE",
"430 232 CURVE",
"430 154 LINE",
"476 231 OFFCURVE",
"528 274 OFFCURVE",
"577 274 CURVE SMOOTH",
"619 274 OFFCURVE",
"639 242 OFFCURVE",
"639 201 CURVE SMOOTH",
"639 0 LINE"
);
},
{
closed = 1;
nodes = (
"809 0 LINE",
"809 84 LINE",
"581 84 LINE",
"581 0 LINE"
);
}
);
width = 809;
},
{
anchors = (
{
name = bottom;
position = "{415, 0}";
},
{
name = top;
position = "{415, 387}";
}
);
layerId = "543F9737-16F7-428D-9F96-2EBD9FC8D3B6";
name = Light;
paths = (
{
closed = 1;
nodes = (
"157 334 LINE",
"157 357 LINE",
"40 357 LINE",
"40 334 LINE"
);
},
{
closed = 1;
nodes = (
"157 0 LINE",
"157 357 LINE",
"132 357 LINE",
"132 0 LINE"
);
},
{
closed = 1;
nodes = (
"232 0 LINE",
"232 23 LINE",
"40 23 LINE",
"40 0 LINE"
);
},
{
closed = 1;
nodes = (
"429 0 LINE",
"429 239 LINE SMOOTH",
"429 324 OFFCURVE",
"387 367 OFFCURVE",
"323 367 CURVE SMOOTH",
"254 367 OFFCURVE",
"194 317 OFFCURVE",
"143 254 CURVE",
"143 231 LINE",
"195 296 OFFCURVE",
"260 344 OFFCURVE",
"318 344 CURVE SMOOTH",
"377 344 OFFCURVE",
"404 304 OFFCURVE",
"404 234 CURVE SMOOTH",
"404 0 LINE"
);
},
{
closed = 1;
nodes = (
"512 0 LINE",
"512 23 LINE",
"326 23 LINE",
"326 0 LINE"
);
},
{
closed = 1;
nodes = (
"701 0 LINE",
"701 239 LINE SMOOTH",
"701 324 OFFCURVE",
"659 367 OFFCURVE",
"595 367 CURVE SMOOTH",
"526 367 OFFCURVE",
"466 317 OFFCURVE",
"415 254 CURVE",
"415 231 LINE",
"467 296 OFFCURVE",
"532 344 OFFCURVE",
"590 344 CURVE SMOOTH",
"649 344 OFFCURVE",
"676 304 OFFCURVE",
"676 234 CURVE SMOOTH",
"676 0 LINE"
);
},
{
closed = 1;
nodes = (
"784 0 LINE",
"784 23 LINE",
"598 23 LINE",
"598 0 LINE"
);
}
);
width = 809;
}
);
leftMetricsKey = "=n";
rightMetricsKey = "=n";
unicode = 006D;
},
{
color = 5;
glyphname = n;
lastChange = "2015-09-20 14:31:51 +0000";
layers = (
{
anchors = (
{
name = bottom;
position = "{489, 0}";
},
{
name = top;
position = "{479, 367}";
}
);
layerId = "B29C398E-974A-40D0-A0A0-00935056D4B4";
name = "Light Extended";
paths = (
{
closed = 1;
nodes = (
"762 0 LINE",
"762 135 LINE",
"762 257 OFFCURVE",
"713 367 OFFCURVE",
"557 367 CURVE SMOOTH",
"421 367 OFFCURVE",
"298 263 OFFCURVE",
"234 211 CURVE",
"234 188 LINE",
"298 239 OFFCURVE",
"421 344 OFFCURVE",
"557 344 CURVE SMOOTH",
"703 344 OFFCURVE",
"737 237 OFFCURVE",
"737 135 CURVE",
"737 0 LINE"
);
},
{
closed = 1;
nodes = (
"408 0 LINE",
"408 23 LINE",
"40 23 LINE",
"40 0 LINE"
);
},
{
closed = 1;
nodes = (
"247 0 LINE",
"247 357 LINE",
"222 357 LINE",
"222 0 LINE"
);
},
{
closed = 1;
nodes = (
"247 334 LINE",
"247 357 LINE",
"40 357 LINE",
"40 334 LINE"
);
},
{
closed = 1;
nodes = (
"923 0 LINE",
"923 23 LINE",
"555 23 LINE",
"555 0 LINE"
);
}
);
width = 918;
},
{
anchors = (
{
name = bottom;
position = "{299, 0}";
},
{
name = top;
position = "{289, 367}";
}
);
layerId = "FA480B27-EBBD-4830-9868-98507D39050C";
name = Bold;
paths = (
{
closed = 1;
nodes = (
"486 0 LINE",
"486 197 LINE SMOOTH",
"486 309 OFFCURVE",
"438 366 OFFCURVE",
"351 366 CURVE SMOOTH",
"279 366 OFFCURVE",
"226 320 OFFCURVE",
"158 232 CURVE",
"158 154 LINE",
"212 231 OFFCURVE",
"263 274 OFFCURVE",
"315 274 CURVE SMOOTH",
"362 274 OFFCURVE",
"387 242 OFFCURVE",
"387 196 CURVE SMOOTH",
"387 0 LINE"
);
},
{
closed = 1;
nodes = (
"255 0 LINE",
"255 83 LINE",
"20 83 LINE",
"20 0 LINE"
);
},
{
closed = 1;
nodes = (
"194 0 LINE",
"194 357 LINE",
"95 357 LINE",
"95 0 LINE"
);
},
{
closed = 1;
nodes = (
"187 274 LINE",
"187 357 LINE",
"20 357 LINE",
"20 274 LINE"
);
},
{
closed = 1;
nodes = (
"557 0 LINE",
"557 83 LINE",
"329 83 LINE",
"329 0 LINE"
);
}
);
width = 557;
},
{
anchors = (
{
name = bottom;
position = "{299, 0}";
},
{
name = top;
position = "{289, 367}";
}
);
background = {
paths = (
{
closed = 1;
nodes = (
"94 0 LINE",
"193 0 LINE",
"193 357 LINE",
"94 357 LINE"
);
},
{
closed = 1;
nodes = (
"19 84 LINE",
"19 0 LINE",
"254 0 LINE",
"254 84 LINE"
);
},
{
closed = 1;
nodes = (
"19 357 LINE",
"19 274 LINE",
"186 274 LINE",
"186 357 LINE"
);
},
{
closed = 1;
nodes = (
"278 366 OFFCURVE",
"225 320 OFFCURVE",
"157 232 CURVE",
"157 154 LINE",
"211 231 OFFCURVE",
"262 274 OFFCURVE",
"314 274 CURVE SMOOTH",
"361 274 OFFCURVE",
"386 242 OFFCURVE",
"386 196 CURVE SMOOTH",
"386 0 LINE",
"485 0 LINE",
"485 197 LINE SMOOTH",
"485 309 OFFCURVE",
"437 366 OFFCURVE",
"350 366 CURVE SMOOTH"
);
},
{
closed = 1;
nodes = (
"328 84 LINE",
"328 0 LINE",
"556 0 LINE",
"556 84 LINE"
);
}
);
};
layerId = "543F9737-16F7-428D-9F96-2EBD9FC8D3B6";
name = Light;
paths = (
{
closed = 1;
nodes = (
"452 0 LINE",
"452 234 LINE SMOOTH",
"452 324 OFFCURVE",
"405 367 OFFCURVE",
"336 367 CURVE SMOOTH",
"262 367 OFFCURVE",
"198 315 OFFCURVE",
"143 254 CURVE",
"143 231 LINE",
"199 294 OFFCURVE",
"268 344 OFFCURVE",
"331 344 CURVE SMOOTH",
"395 344 OFFCURVE",
"427 304 OFFCURVE",
"427 229 CURVE SMOOTH",
"427 0 LINE"
);
},
{
closed = 1;
nodes = (
"232 0 LINE",
"232 23 LINE",
"40 23 LINE",
"40 0 LINE"
);
},
{
closed = 1;
nodes = (
"157 0 LINE",
"157 357 LINE",
"132 357 LINE",
"132 0 LINE"
);
},
{
closed = 1;
nodes = (
"157 334 LINE",
"157 357 LINE",
"40 357 LINE",
"40 334 LINE"
);
},
{
closed = 1;
nodes = (
"535 0 LINE",
"535 23 LINE",
"349 23 LINE",
"349 0 LINE"
);
}
);
width = 560;
}
);
unicode = 006E;
},
{
glyphname = eng;
lastChange = "2015-08-27 00:35:44 +0000";
layers = (
{
layerId = "B29C398E-974A-40D0-A0A0-00935056D4B4";
name = "Light Extended";
paths = (
{
closed = 1;
nodes = (
"222 0 LINE",
"247 0 LINE",
"247 357 LINE",
"222 357 LINE"
);
},
{
closed = 1;
nodes = (
"40 23 LINE",
"40 0 LINE",
"408 0 LINE",
"408 23 LINE"
);
},
{
closed = 1;
nodes = (
"40 357 LINE",
"40 334 LINE",
"247 334 LINE",
"247 357 LINE"
);
},
{
closed = 1;
nodes = (
"762 145 LINE SMOOTH",
"762 267 OFFCURVE",
"713 377 OFFCURVE",
"557 377 CURVE SMOOTH",
"421 377 OFFCURVE",
"298 273 OFFCURVE",
"234 221 CURVE",
"234 198 LINE",
"298 249 OFFCURVE",
"421 354 OFFCURVE",
"557 354 CURVE SMOOTH",
"703 354 OFFCURVE",
"737 247 OFFCURVE",
"737 145 CURVE SMOOTH",
"737 -53 LINE SMOOTH",
"737 -141 OFFCURVE",
"685 -187 OFFCURVE",
"619 -187 CURVE SMOOTH",
"572 -187 OFFCURVE",
"527 -176 OFFCURVE",
"485 -163 CURVE",
"478 -185 LINE",
"520 -198 OFFCURVE",
"566 -210 OFFCURVE",
"618 -210 CURVE SMOOTH",
"702 -210 OFFCURVE",
"763 -149 OFFCURVE",
"762 -52 CURVE"
);
}
);
width = 870;
},
{
layerId = "FA480B27-EBBD-4830-9868-98507D39050C";
name = Bold;
width = 420;
},
{
layerId = "543F9737-16F7-428D-9F96-2EBD9FC8D3B6";
name = Light;
width = 420;
}
);
leftMetricsKey = "=n";
rightMetricsKey = "=j";
unicode = 014B;
},
{
color = 5;
glyphname = o;
lastChange = "2015-09-26 21:28:27 +0000";
layers = (
{
anchors = (
{
name = bottom;
position = "{390, -10}";
},
{
name = center;
position = "{390, 179}";
},
{
name = ogonek;
position = "{382, -10}";
},
{
name = top;
position = "{390, 367}";
},
{
name = topright;
position = "{759, 357}";
}
);
layerId = "B29C398E-974A-40D0-A0A0-00935056D4B4";
name = "Light Extended";
paths = (
{
closed = 1;
nodes = (
"568 -10 OFFCURVE",
"709 60 OFFCURVE",
"709 179 CURVE",
"709 302 OFFCURVE",
"568 367 OFFCURVE",
"389 367 CURVE",
"211 366 OFFCURVE",
"70 302 OFFCURVE",
"70 179 CURVE",
"70 60 OFFCURVE",
"211 -10 OFFCURVE",
"389 -10 CURVE SMOOTH"
);
},
{
closed = 1;
nodes = (
"222 13 OFFCURVE",
"95 76 OFFCURVE",
"95 179 CURVE",
"95 285 OFFCURVE",
"222 343 OFFCURVE",
"389 344 CURVE",
"557 344 OFFCURVE",
"685 285 OFFCURVE",
"685 179 CURVE",
"685 76 OFFCURVE",
"557 13 OFFCURVE",
"389 13 CURVE SMOOTH"
);
}
);
width = 779;
},
{
anchors = (
{
name = bottom;
position = "{234, -10}";
},
{
name = center;
position = "{234, 179}";
},
{
name = ogonek;
position = "{226, -10}";
},
{
name = top;
position = "{234, 367}";
},
{
name = topright;
position = "{603, 357}";
}
);
layerId = "FA480B27-EBBD-4830-9868-98507D39050C";
name = Bold;
paths = (
{
closed = 1;
nodes = (
"352 -11 OFFCURVE",
"445 63 OFFCURVE",
"445 178 CURVE",
"445 293 OFFCURVE",
"345 367 OFFCURVE",
"234 367 CURVE",
"120 367 OFFCURVE",
"23 293 OFFCURVE",
"23 178 CURVE",
"23 63 OFFCURVE",
"120 -11 OFFCURVE",
"234 -11 CURVE"
);
},
{
closed = 1;
nodes = (
"175 72 OFFCURVE",
"132 114 OFFCURVE",
"132 178 CURVE",
"132 242 OFFCURVE",
"175 284 OFFCURVE",
"234 284 CURVE",
"293 284 OFFCURVE",
"336 242 OFFCURVE",
"336 178 CURVE",
"336 114 OFFCURVE",
"293 72 OFFCURVE",
"234 72 CURVE"
);
}
);
width = 468;
},
{
anchors = (
{
name = bottom;
position = "{230, -20}";
},
{
name = center;
position = "{230, 179}";
},
{
name = ogonek;
position = "{222, -9}";
},
{
name = top;
position = "{230, 387}";
},
{
name = topright;
position = "{404, 357}";
}
);
guideLines = (
{
position = "{253, 377}";
}
);
layerId = "543F9737-16F7-428D-9F96-2EBD9FC8D3B6";
name = Light;
paths = (
{
closed = 1;
nodes = (
"332 -10 OFFCURVE",
"415 63 OFFCURVE",
"415 178 CURVE",
"415 293 OFFCURVE",
"332 366 OFFCURVE",
"230 367 CURVE",
"128 366 OFFCURVE",
"45 293 OFFCURVE",
"45 178 CURVE",
"45 63 OFFCURVE",
"128 -10 OFFCURVE",
"230 -11 CURVE"
);
},
{
closed = 1;
nodes = (
"137 12 OFFCURVE",
"71 79 OFFCURVE",
"71 178 CURVE",
"71 277 OFFCURVE",
"137 344 OFFCURVE",
"230 344 CURVE",
"323 344 OFFCURVE",
"389 277 OFFCURVE",
"389 178 CURVE",
"389 79 OFFCURVE",
"323 12 OFFCURVE",
"230 12 CURVE"
);
}
);
width = 460;
}
);
unicode = 006F;
},
